<svg width="24" height="24" viewBox="0 0 24 24" fill="currentColor" xmlns="http://www.w3.org/2000/svg">
<path fill-rule="evenodd" clip-rule="evenodd" d="M2.25 12C2.25 6.61522 6.61522 2.25 12 2.25C17.3848 2.25 21.75 6.61522 21.75 12C21.75 17.3848 17.3848 21.75 12 21.75C6.61522 21.75 2.25 17.3848 2.25 12ZM15.5857 10.4685C15.8444 10.1451 15.792 9.67311 15.4685 9.41435C15.1451 9.15559 14.6731 9.20803 14.4143 9.53148L10.9378 13.8772L9.53033 12.4697C9.23744 12.1768 8.76256 12.1768 8.46967 12.4697C8.17678 12.7626 8.17678 13.2374 8.46967 13.5303L10.4697 15.5303C10.6205 15.6812 10.8285 15.7606 11.0415 15.7489C11.2545 15.7371 11.4524 15.6351 11.5857 15.4685L15.5857 10.4685Z" fill="currentColor"/>
</svg>
