<svg id="Capa_x0020_1" xmlns="http://www.w3.org/2000/svg" width="276.234" height="60.24" viewBox="0 0 276.234 60.24">
  <g id="_2943755830416">
    <path id="Trazado_1" data-name="Trazado 1" d="M30.12,0h0a30.12,30.12,0,1,1,0,60.24h0A30.12,30.12,0,1,1,30.12,0h0Zm0,3.05a27.075,27.075,0,1,0,19.14,7.93A26.989,26.989,0,0,0,30.12,3.05ZM19.77,31.21h5.22a4.012,4.012,0,0,1,4,4v5.72a1.959,1.959,0,0,1-1.95,1.95H20.52a3.145,3.145,0,0,1-3.14-3.14V33.59a2.386,2.386,0,0,1,2.38-2.38ZM39.39,14.94H34.41a3.167,3.167,0,0,1-3.16-3.16V8.3a2.228,2.228,0,0,1,2.22-2.22h2.51a5.245,5.245,0,0,1,5.23,5.22v1.82A1.827,1.827,0,0,1,39.39,14.94Zm6.87,1.17a3.451,3.451,0,0,1-2.38-3.27c0-1.12-.07-2.57,1.68-1.86,1.82.74,4.27,3.28,3.77,4.41-.49,1.11-2.1,1.05-3.08.73Zm5.36,12.91H48.46a3.088,3.088,0,0,1-3.08-3.08v-4.8a2.253,2.253,0,0,1,2.25-2.25h1.05a5.648,5.648,0,0,1,5.63,5.63v1.81a2.7,2.7,0,0,1-2.69,2.69Zm-11.15,0H35.25a4.012,4.012,0,0,1-4-4V19.3a1.959,1.959,0,0,1,1.95-1.95h6.52a3.145,3.145,0,0,1,3.14,3.14v6.15a2.386,2.386,0,0,1-2.38,2.38ZM39.39,45.29H34.41a3.167,3.167,0,0,0-3.16,3.16v3.48a2.228,2.228,0,0,0,2.22,2.22h2.51a5.245,5.245,0,0,0,5.23-5.22V47.12a1.827,1.827,0,0,0-1.82-1.82Zm6.87-1.17a3.451,3.451,0,0,0-2.38,3.27c0,1.12-.07,2.57,1.68,1.86,1.82-.74,4.27-3.28,3.77-4.41-.49-1.11-2.1-1.05-3.08-.73Zm5.36-12.91H48.46a3.088,3.088,0,0,0-3.08,3.08v4.8a2.253,2.253,0,0,0,2.25,2.25h1.05a5.651,5.651,0,0,0,5.63-5.64V33.89a2.7,2.7,0,0,0-2.69-2.69Zm-11.15,0H35.25a4.012,4.012,0,0,0-4,4v5.72a1.959,1.959,0,0,0,1.95,1.95h6.52a3.145,3.145,0,0,0,3.14-3.14V33.59a2.386,2.386,0,0,0-2.38-2.38ZM20.85,14.94h4.98a3.167,3.167,0,0,0,3.16-3.16V8.3a2.228,2.228,0,0,0-2.22-2.22H24.26a5.237,5.237,0,0,0-5.22,5.22v1.82a1.827,1.827,0,0,0,1.82,1.82Zm-6.87,1.17a3.451,3.451,0,0,0,2.38-3.27c0-1.12.07-2.57-1.68-1.86-1.82.74-4.27,3.28-3.77,4.41.49,1.11,2.1,1.05,3.08.73ZM8.62,29.02h3.16a3.088,3.088,0,0,0,3.08-3.08v-4.8a2.253,2.253,0,0,0-2.25-2.25H11.56a5.648,5.648,0,0,0-5.63,5.63v1.81a2.7,2.7,0,0,0,2.69,2.69Zm11.15,0h5.22a4.012,4.012,0,0,0,4-4V19.3a1.959,1.959,0,0,0-1.95-1.95H20.52a3.145,3.145,0,0,0-3.14,3.14v6.15a2.386,2.386,0,0,0,2.38,2.38Zm1.08,16.27h4.98a3.167,3.167,0,0,1,3.16,3.16v3.48a2.228,2.228,0,0,1-2.22,2.22H24.26a5.237,5.237,0,0,1-5.22-5.22V47.12a1.827,1.827,0,0,1,1.82-1.82Zm-6.87-1.17a3.451,3.451,0,0,1,2.38,3.27c0,1.12.07,2.57-1.68,1.86-1.82-.74-4.27-3.28-3.77-4.41.49-1.11,2.1-1.05,3.08-.73ZM8.62,31.21h3.16a3.088,3.088,0,0,1,3.08,3.08v4.8a2.253,2.253,0,0,1-2.25,2.25H11.56A5.651,5.651,0,0,1,5.93,35.7V33.89A2.7,2.7,0,0,1,8.62,31.2Z" fill="#333"/>
    <path id="Trazado_2" data-name="Trazado 2" d="M77.43,12.386v5H91.6A3.51,3.51,0,0,1,95.352,21.2a3.616,3.616,0,0,1-3.8,3.943H81.751c-2.984,0-4.28,1.312-4.28,4.534V40.991h4.763V30.644c0-.508.246-.721.689-.721H91.4c6.378,0,8.756-4.665,8.756-8.985,0-4.575-2.623-8.559-8.756-8.559H77.438Zm43.665,6.108a1.353,1.353,0,0,1,1.369-.976,1.292,1.292,0,0,1,1.328.976L131.884,41h5.288l-9.018-24.923c-.967-2.673-2.828-3.689-5.649-3.689-2.861,0-4.73,1.017-5.731,3.689L107.4,41h5.247l8.444-22.5Zm25.464-6.108v5h14.929a3.51,3.51,0,0,1,3.8,3.771c0,2.033-1.09,3.984-3.8,3.984H150.871c-2.984,0-4.28,1.312-4.28,4.534V40.991h4.763V30.644c0-.508.246-.721.689-.721h7.1l6.214,11.06h5.288l-6.337-11.445c4.157-1.23,5.772-5.042,5.772-8.608,0-4.575-2.623-8.559-8.756-8.559H146.551Zm31.072,0v5h7.952V41h4.8V17.387h7.952v-5h-20.7Zm30.432,0V41h4.763V12.386h-4.763Zm27.522,6.108a1.353,1.353,0,0,1,1.369-.976,1.292,1.292,0,0,1,1.328.976L246.374,41h5.288l-9.018-24.923c-.967-2.673-2.828-3.689-5.649-3.689-2.861,0-4.73,1.017-5.731,3.689L221.894,41h5.247Zm35.351-6.108c-7.223,0-10.051,4.157-10.051,9.879V41h4.763V29.685H282.07V24.938H265.649V22.224c0-2.673,1.287-4.829,5.608-4.829h10.978v-5h-11.3Z" transform="translate(-6 3.436)" fill="currentColor"/>
  </g>
</svg>
