<svg width="24" height="24" viewBox="0 0 24 24" fill="none" xmlns="http://www.w3.org/2000/svg">
<path fill-rule="evenodd" clip-rule="evenodd" d="M3.25003 6C3.25003 4.48122 4.48125 3.25 6.00003 3.25H9.00003C9.41424 3.25 9.75003 3.58579 9.75003 4C9.75003 4.41421 9.41424 4.75 9.00003 4.75H6.00003C5.30967 4.75 4.75003 5.30964 4.75003 6V9C4.75003 9.41421 4.41424 9.75 4.00003 9.75C3.58582 9.75 3.25003 9.41421 3.25003 9V6ZM14.25 4C14.25 3.58579 14.5858 3.25 15 3.25H18C19.5188 3.25 20.75 4.48122 20.75 6V9C20.75 9.41421 20.4142 9.75 20 9.75C19.5858 9.75 19.25 9.41421 19.25 9V6C19.25 5.30964 18.6904 4.75 18 4.75H15C14.5858 4.75 14.25 4.41421 14.25 4ZM6.25009 12C6.25009 11.5858 6.58588 11.25 7.00009 11.25H17.0001C17.4143 11.25 17.7501 11.5858 17.7501 12C17.7501 12.4142 17.4143 12.75 17.0001 12.75H7.00009C6.58588 12.75 6.25009 12.4142 6.25009 12ZM4.00003 14.25C4.41424 14.25 4.75003 14.5858 4.75003 15V18C4.75003 18.6904 5.30967 19.25 6.00003 19.25H9.00003C9.41424 19.25 9.75003 19.5858 9.75003 20C9.75003 20.4142 9.41424 20.75 9.00003 20.75H6.00003C4.48125 20.75 3.25003 19.5188 3.25003 18V15C3.25003 14.5858 3.58582 14.25 4.00003 14.25ZM20 14.25C20.4142 14.25 20.75 14.5858 20.75 15V18C20.75 19.5188 19.5188 20.75 18 20.75H15C14.5858 20.75 14.25 20.4142 14.25 20C14.25 19.5858 14.5858 19.25 15 19.25H18C18.6904 19.25 19.25 18.6904 19.25 18V15C19.25 14.5858 19.5858 14.25 20 14.25Z" fill="currentColor"/>
</svg>
