<svg id="covers-disco" xmlns="http://www.w3.org/2000/svg" width="20.671" height="12.578" viewBox="0 0 20.671 12.578">
  <path id="Trazado_113" data-name="Trazado 113" d="M19.183,11.09V1.481H1.481V3.034A3.533,3.533,0,0,1,3.506,6.227,3.525,3.525,0,0,1,1.481,9.421v1.662h17.7Zm1.488,1.488H0v-4.3a2.034,2.034,0,0,0,2.025-2.04A2.034,2.034,0,0,0,0,4.2V0H20.671Z" fill="#c1c8d8"/>
  <path id="Trazado_114" data-name="Trazado 114" d="M16.55,1.391a.711.711,0,0,1,1.423,0V2.785a.711.711,0,0,1-1.423,0Z" transform="translate(-4.538 -0.186)" fill="#c1c8d8"/>
  <path id="Trazado_115" data-name="Trazado 115" d="M16.55,13.591a.711.711,0,1,1,1.423,0v1.59a.711.711,0,1,1-1.423,0v-1.59Z" transform="translate(-4.538 -3.532)" fill="#c1c8d8"/>
  <path id="Trazado_116" data-name="Trazado 116" d="M8.341,6.873a.711.711,0,1,1,0-1.423h2.7a.711.711,0,1,1,0,1.423Z" transform="translate(-2.092 -1.494)" fill="#c1c8d8"/>
  <path id="Trazado_117" data-name="Trazado 117" d="M8.341,10.723a.711.711,0,1,1,0-1.423h2.7a.711.711,0,1,1,0,1.423Z" transform="translate(-2.092 -2.55)" fill="#c1c8d8"/>
  <path id="Trazado_118" data-name="Trazado 118" d="M16.55,6.741a.711.711,0,0,1,1.423,0V8.766a.711.711,0,0,1-1.423,0Z" transform="translate(-4.538 -1.654)" fill="#c1c8d8"/>
</svg>
