<svg xmlns="http://www.w3.org/2000/svg" width="16.862" height="17" viewBox="0 0 16.862 17">
  <path id="empleados" d="M11.326,17a2.886,2.886,0,0,1-2.557-4.224l3.888,2.035,3.886-2.017a2.851,2.851,0,0,1,.319,1.32A2.888,2.888,0,0,1,13.977,17ZM.019,13.918c-.028-2.213-.158-3.464.952-4.5a3.318,3.318,0,0,1,2.889-1c.754-.007,2.218,0,3.17,0,2.992-.072,3.2.11,3.2.11a4.3,4.3,0,0,0-.573.622,3.342,3.342,0,0,0-.376.695,2.8,2.8,0,0,0-1.39.664,2.567,2.567,0,0,0-.861,1.724c-.023,1.57.029,2.506.029,2.506s-3.859.014-5.5.023H1.473C-.073,14.767.027,14.529.019,13.918Zm12.627-.344L9.43,11.939a2.866,2.866,0,0,1,1.079-.591A1.512,1.512,0,0,1,10.468,11a1.483,1.483,0,0,1,1.481-1.481h1.4A1.483,1.483,0,0,1,14.835,11a1.513,1.513,0,0,1-.042.352,2.891,2.891,0,0,1,1.085.6l-3.231,1.63Zm-1.083-2.344h2.176a.86.86,0,0,0-.854-.779h-.468A.859.859,0,0,0,11.563,11.229ZM2.825,3.509A3.509,3.509,0,1,1,6.334,7.018,3.51,3.51,0,0,1,2.825,3.509Z" fill="#c1c8d8"/>
</svg>
