<svg xmlns="http://www.w3.org/2000/svg" width="16" height="18.251" viewBox="0 0 16 18.251">
  <path id="gastos" d="M.33,18.214a.514.514,0,0,1-.321-.477V4.885C-.013,4.232-.035,2.035.554,1.2,1.149-.12,3.383-.012,3.733.013h8.514c1.089-.006,3.64-.019,3.722,2.67.07,2.289,0,4.308,0,4.328a.513.513,0,0,1-.511.5H11.706V8.642a4.786,4.786,0,0,1-.514,9.542A4.729,4.729,0,0,1,8.3,17.2l-.928.906a.51.51,0,0,1-.727-.014l-.718-.758-.736.762a.51.51,0,0,1-.734,0l-.747-.773-.783.78a.51.51,0,0,1-.752-.035l-.588-.7-.693.729a.51.51,0,0,1-.56.122ZM7.453,13.4a3.74,3.74,0,1,0,3.74-3.757A3.753,3.753,0,0,0,7.453,13.4ZM5.93,16.078a.51.51,0,0,1,.368.16l.729.769.529-.517a4.792,4.792,0,0,1,3.127-7.847V2.614a2.107,2.107,0,0,1,.605-1.573H3.714l-.04,0c-.768-.059-2,.093-2.2.607a.515.515,0,0,1-.083.142,7.568,7.568,0,0,0-.362,3.081V16.454l.206-.217A.51.51,0,0,1,2,16.261l.6.717.755-.752a.51.51,0,0,1,.36-.149h0a.51.51,0,0,1,.362.156L4.82,17l.74-.765a.51.51,0,0,1,.367-.156Zm9.03-9.6c.016-.731.035-2.182-.013-3.764-.036-1.183-.735-1.538-1.7-1.638C11.63,1.568,11.7,2.488,11.7,2.528l0,.025V6.478Zm-3.976,9.344v-.6A1.1,1.1,0,0,1,9.948,14.1l.836-.085a.4.4,0,0,0,.442.417c.252,0,.384-.148.384-.312,0-.222-.216-.28-.694-.465a1.134,1.134,0,0,1-.846-1.12,1.1,1.1,0,0,1,.915-1.1v-.613H11.5v.623a1.044,1.044,0,0,1,.846.914l-.815.116a.3.3,0,0,0-.31-.269.274.274,0,0,0-.294.275c0,.19.121.29.457.407.515.174,1.13.417,1.13,1.146A1.1,1.1,0,0,1,11.5,15.214v.607ZM2.742,13.382a.514.514,0,0,1,0-1.028H4.856a.514.514,0,0,1,0,1.028Zm0-2.127a.514.514,0,0,1,0-1.028H4.856a.514.514,0,0,1,0,1.028Zm0-2.127a.514.514,0,0,1,0-1.028H6.969a.514.514,0,0,1,0,1.028Zm2.651-2.7V5.344H4.316a.514.514,0,0,1,0-1.028H5.393V3.234a.512.512,0,1,1,1.023,0V4.316H7.493a.514.514,0,0,1,0,1.028H6.416V6.426a.512.512,0,1,1-1.023,0Z" transform="translate(0)" fill="#c1c8d8"/>
</svg>
