<svg xmlns="http://www.w3.org/2000/svg" width="21" height="21.938" viewBox="0 0 21 21.938">
  <g id="icono-reservas" transform="translate(-44.469 -264)">
    <g id="_2943547788704" transform="translate(45.307 264)">
      <path id="Trazado_120" data-name="Trazado 120" d="M18.577,20.038V1.9a1.887,1.887,0,0,1,.035-.371,2.026,2.026,0,0,1,.11-.354A1.836,1.836,0,0,1,18.9.845a2.094,2.094,0,0,1,.233-.29,1.745,1.745,0,0,1,.29-.233,2.091,2.091,0,0,1,.329-.177,2.026,2.026,0,0,1,.354-.11A1.887,1.887,0,0,1,20.477,0h8.949A1.887,1.887,0,0,1,29.8.035a2.026,2.026,0,0,1,.354.11,1.836,1.836,0,0,1,.329.177,2.094,2.094,0,0,1,.29.233,1.859,1.859,0,0,1,.41.615l.011.028a1.939,1.939,0,0,1,.1.329,1.887,1.887,0,0,1,.035.371V20.038a1.887,1.887,0,0,1-.035.371,2.025,2.025,0,0,1-.11.354,1.836,1.836,0,0,1-.177.329,2.093,2.093,0,0,1-.233.29,1.745,1.745,0,0,1-.29.233,2.091,2.091,0,0,1-.329.177,1.889,1.889,0,0,1-.357.11,1.862,1.862,0,0,1-.371.035H20.473A1.887,1.887,0,0,1,20.1,21.9l-.021,0a1.947,1.947,0,0,1-.336-.106l-.028-.014a1.9,1.9,0,0,1-.3-.163,2.094,2.094,0,0,1-.29-.233,1.745,1.745,0,0,1-.233-.29,2.091,2.091,0,0,1-.177-.329,2.026,2.026,0,0,1-.11-.354,1.887,1.887,0,0,1-.035-.371ZM19.546,1.9V20.038a.975.975,0,0,0,.018.18,1.157,1.157,0,0,0,.053.177,1.135,1.135,0,0,0,.085.159,1.293,1.293,0,0,0,.117.141.823.823,0,0,0,.141.117.906.906,0,0,0,.141.078l.021.007a.916.916,0,0,0,.159.05l.014,0a1.006,1.006,0,0,0,.18.018h8.949a.975.975,0,0,0,.18-.018h0a.755.755,0,0,0,.173-.053h0a1.136,1.136,0,0,0,.159-.085,1.293,1.293,0,0,0,.141-.117.823.823,0,0,0,.117-.141,1.135,1.135,0,0,0,.085-.159,1.157,1.157,0,0,0,.053-.177,1.006,1.006,0,0,0,.018-.18V1.9a.974.974,0,0,0-.018-.18.667.667,0,0,0-.046-.156l-.007-.018a.9.9,0,0,0-.2-.3.823.823,0,0,0-.141-.117,1.135,1.135,0,0,0-.159-.085A1.157,1.157,0,0,0,29.609.99a1.006,1.006,0,0,0-.18-.018H20.48A.975.975,0,0,0,20.3.99a1.157,1.157,0,0,0-.177.053,1.135,1.135,0,0,0-.159.085,1.293,1.293,0,0,0-.141.117.823.823,0,0,0-.117.141,1.135,1.135,0,0,0-.085.159,1.157,1.157,0,0,0-.053.177,1.006,1.006,0,0,0-.018.18Z" transform="translate(-12.001 0)" fill="#c1c8d8"/>
      <path id="Trazado_121" data-name="Trazado 121" d="M12.794,27.5H0V25.648c.692,0,1.255-1.277,1.255-1.951s-.3-1.716-.994-1.716V20.364H12.794L12.6,22.178c-.692,0-1.064.845-1.064,1.519s.563,1.754,1.255,1.754V27.5Z" transform="translate(0.559 -12.775)" fill="#fff"/>
      <path id="Trazado_122" data-name="Trazado 122" d="M13.049,26.921V25.789a2.4,2.4,0,0,1,0-4.344V20.392H1.012v1.054a2.4,2.4,0,0,1,1.379,2.172,2.4,2.4,0,0,1-1.379,2.172v1.132Zm1.012,1.012H0V25a1.385,1.385,0,0,0,1.379-1.387A1.385,1.385,0,0,0,0,22.231V19.38H14.06v2.851a1.387,1.387,0,0,0,0,2.773Z" transform="translate(0 -12.525)" fill="#c1c8d8"/>
      <path id="Trazado_123" data-name="Trazado 123" d="M23.1,20.795a.485.485,0,0,1,.969,0v.951a.485.485,0,0,1-.969,0Z" transform="translate(-14.929 -13.126)" fill="#c1c8d8"/>
      <path id="Trazado_124" data-name="Trazado 124" d="M23.1,37.825a.485.485,0,1,1,.969,0v1.082a.485.485,0,1,1-.969,0Z" transform="translate(-14.929 -24.132)" fill="#c1c8d8"/>
      <path id="Trazado_125" data-name="Trazado 125" d="M11.125,27.929a.485.485,0,0,1,0-.969H12.96a.485.485,0,0,1,0,.969Z" transform="translate(-6.876 -17.424)" fill="#c1c8d8"/>
      <path id="Trazado_126" data-name="Trazado 126" d="M11.125,33.309a.485.485,0,1,1,0-.969H12.96a.485.485,0,1,1,0,.969Z" transform="translate(-6.876 -20.901)" fill="#c1c8d8"/>
      <path id="Trazado_127" data-name="Trazado 127" d="M19.855,49.989a.485.485,0,1,1,0-.969H31a.485.485,0,1,1,0,.969Z" transform="translate(-12.519 -31.681)" fill="#c1c8d8"/>
      <path id="Trazado_128" data-name="Trazado 128" d="M19.855,8.529a.485.485,0,1,1,0-.969H31.191a.485.485,0,0,1,0,.969Z" transform="translate(-12.519 -4.886)" fill="#c1c8d8"/>
      <path id="Trazado_129" data-name="Trazado 129" d="M32.785,54.059a.485.485,0,0,1,0-.969h1.91a.485.485,0,1,1,0,.969Z" transform="translate(-20.875 -34.311)" fill="#c1c8d8"/>
      <path id="Trazado_130" data-name="Trazado 130" d="M23.1,28.265a.485.485,0,0,1,.969,0v1.379a.485.485,0,0,1-.969,0Z" transform="translate(-14.929 -17.954)" fill="#c1c8d8"/>
    </g>
    <rect id="Rectángulo_194" data-name="Rectángulo 194" width="21" height="21" transform="translate(44.469 264.469)" fill="none" opacity="0.3"/>
  </g>
</svg>
