<svg xmlns="http://www.w3.org/2000/svg" width="20.671" height="12.578" viewBox="0 0 20.671 12.578">
  <path id="icono-cover" d="M0,12.578v-4.3A2.033,2.033,0,0,0,2.025,6.234,2.033,2.033,0,0,0,0,4.195V0H20.671V12.578Zm19.183-1.5V1.48H13.434V2.6a.711.711,0,1,1-1.422,0V1.48H1.48V3.034A3.533,3.533,0,0,1,3.506,6.227,3.525,3.525,0,0,1,1.48,9.421v1.661H12.012V10.06a.711.711,0,1,1,1.422,0v1.022ZM6.249,8.173a.711.711,0,0,1,0-1.423h2.7a.711.711,0,1,1,0,1.423Zm5.764-1.06V5.088a.711.711,0,1,1,1.422,0V7.113a.711.711,0,1,1-1.422,0ZM6.249,5.378a.711.711,0,0,1,0-1.423h2.7a.711.711,0,1,1,0,1.423Z" fill="#c1c8d8"/>
</svg>
