<svg xmlns="http://www.w3.org/2000/svg" width="79.243" height="11.077" viewBox="0 0 79.243 11.077">
  <path id="Trazado_2" data-name="Trazado 2" d="M77.43,12.376v1.935h5.481a1.358,1.358,0,0,1,1.453,1.475A1.4,1.4,0,0,1,82.9,17.312H79.1c-1.155,0-1.656.508-1.656,1.754v4.378h1.843v-4c0-.2.1-.279.266-.279h3.28a3.216,3.216,0,0,0,3.388-3.477,3.1,3.1,0,0,0-3.388-3.312h-5.4ZM94.325,14.74a.523.523,0,0,1,.53-.377.5.5,0,0,1,.514.377L98.5,23.447h2.046L97.056,13.8a2.042,2.042,0,0,0-2.186-1.427A2.077,2.077,0,0,0,92.653,13.8l-3.626,9.643h2.03Zm9.853-2.363v1.935h5.776a1.358,1.358,0,0,1,1.469,1.459,1.4,1.4,0,0,1-1.469,1.542h-4.108c-1.155,0-1.656.508-1.656,1.754v4.378h1.843v-4c0-.2.1-.279.266-.279h2.747l2.4,4.279H113.5l-2.452-4.428a3.258,3.258,0,0,0,2.233-3.331,3.1,3.1,0,0,0-3.388-3.312h-5.716Zm12.022,0v1.935h3.077v9.136h1.859V14.311h3.077V12.376H116.2Zm11.775,0V23.447h1.843V12.376h-1.843Zm10.649,2.363a.523.523,0,0,1,.53-.377.5.5,0,0,1,.514.377l3.131,8.708h2.046L141.355,13.8a2.042,2.042,0,0,0-2.186-1.427,2.077,2.077,0,0,0-2.217,1.427l-3.626,9.643h2.03ZM152.3,12.376c-2.795,0-3.889,1.608-3.889,3.822v7.248h1.843V19.07h6.354V17.233h-6.354v-1.05c0-1.034.5-1.868,2.17-1.868h4.247V12.38H152.3Z" transform="translate(-77.43 -12.37)" fill="#ffdf2c"/>
</svg>
