<svg width="42" height="51" viewBox="0 0 42 51" fill="none" xmlns="http://www.w3.org/2000/svg">
<path d="M34.3332 27.0459C34.2746 20.7217 39.5063 17.656 39.7448 17.5044C38.708 16.0216 37.339 14.8009 35.7474 13.9403C34.1558 13.0797 32.3855 12.603 30.577 12.5473C26.7205 12.1422 22.9798 14.8559 21.0126 14.8559C19.0103 14.8559 15.9814 12.5865 12.7252 12.6585C10.6174 12.7235 8.5627 13.3337 6.76177 14.4308C4.96085 15.5279 3.47584 17.0739 2.45128 18.917C-1.9928 26.6182 1.31904 37.9187 5.57645 44.1407C7.70515 47.1752 10.1965 50.5761 13.4511 50.4581C16.637 50.3275 17.8284 48.4308 21.674 48.4308C25.4844 48.4308 26.5998 50.458 29.9222 50.3927C33.3425 50.3274 35.4957 47.3255 37.5508 44.2584C39.0783 42.0883 40.2559 39.6915 41.0405 37.1563C39.0558 36.3124 37.3624 34.9054 36.1701 33.1082C34.9778 31.311 34.3392 29.2026 34.3332 27.0459Z" fill="#FEFEFE"/>
<path d="M28.0538 8.46481C29.9206 6.22735 30.8391 3.34911 30.6141 0.443848C27.7675 0.749152 25.14 2.11057 23.2487 4.25977C21.6658 6.11057 20.2572 9.12789 20.623 11.9832C23.408 12.1883 26.2683 10.5734 28.0538 8.46481Z" fill="#FEFEFE"/>
</svg>
