<svg width="51" height="83" viewBox="0 0 51 83" fill="none" xmlns="http://www.w3.org/2000/svg">
<path d="M48.6764 44.3954L12.0094 81.0624C11.1604 81.9105 10.0095 82.3869 8.80945 82.3869C7.60942 82.3869 6.45847 81.9105 5.60945 81.0624L1.32845 76.7854C0.479308 75.9375 0.00150358 74.7871 3.54257e-06 73.5871C-0.00149649 72.3871 0.473431 71.2355 1.32045 70.3854L30.3794 41.1854L1.32145 11.9974C0.474431 11.1474 -0.000496447 9.99581 0.00100359 8.79579C0.00250363 7.59576 0.480308 6.4454 1.32945 5.59744L5.60545 1.32444C6.45447 0.476365 7.60542 0 8.80545 0C10.0055 0 11.1564 0.476365 12.0054 1.32444L48.6764 37.9914C49.097 38.4119 49.4306 38.9111 49.6582 39.4605C49.8857 40.0099 50.0029 40.5988 50.0029 41.1934C50.0029 41.7881 49.8857 42.377 49.6582 42.9264C49.4306 43.4758 49.097 43.975 48.6764 44.3954Z" fill="#676767" fill-opacity="0.15"/>
</svg>
