<svg width="8" height="13" viewBox="0 0 8 13" fill="none" xmlns="http://www.w3.org/2000/svg">
<path d="M5.531 6.8013L1.262 11.0663C1.11109 11.2177 1.02652 11.4229 1.0269 11.6367C1.02727 11.8505 1.11256 12.0554 1.264 12.2063C1.41544 12.3572 1.62062 12.4418 1.83441 12.4414C2.0482 12.441 2.25309 12.3557 2.404 12.2043L7.24 7.3723C7.38745 7.22627 7.47239 7.02864 7.47686 6.82116C7.48134 6.61367 7.40502 6.41257 7.264 6.2603L2.408 1.3943C2.33328 1.31925 2.2445 1.25965 2.14675 1.21891C2.04899 1.17817 1.94417 1.15708 1.83827 1.15685C1.73236 1.15662 1.62745 1.17725 1.52952 1.21756C1.43158 1.25787 1.34255 1.31708 1.2675 1.3918C1.19245 1.46653 1.13285 1.5553 1.09211 1.65305C1.05137 1.75081 1.03028 1.85563 1.03004 1.96154C1.02981 2.06744 1.05044 2.17235 1.09076 2.27029C1.13107 2.36822 1.19028 2.45725 1.265 2.5323L5.531 6.8013Z" fill="white" stroke="white"/>
</svg>
