<svg width="207" height="46" viewBox="0 0 207 46" fill="none" xmlns="http://www.w3.org/2000/svg">
<path d="M22.959 0.260022C25.9188 0.240264 28.8533 0.80617 31.5935 1.92516C34.3337 3.04414 36.8255 4.69411 38.9254 6.78005C41.0253 8.86599 42.6918 11.3467 43.8291 14.0794C44.9664 16.812 45.5518 19.7427 45.5518 22.7025C45.5518 25.6624 44.9664 28.593 43.8291 31.3257C42.6918 34.0583 41.0253 36.5391 38.9254 38.625C36.8255 40.7109 34.3337 42.3609 31.5935 43.4799C28.8533 44.5989 25.9188 45.1648 22.959 45.145C19.9992 45.1648 17.0648 44.5989 14.3246 43.4799C11.5844 42.3609 9.09258 40.7109 6.99267 38.625C4.89276 36.5391 3.2262 34.0583 2.08894 31.3257C0.951692 28.593 0.366211 25.6624 0.366211 22.7025C0.366211 19.7427 0.951692 16.812 2.08894 14.0794C3.2262 11.3467 4.89276 8.86599 6.99267 6.78005C9.09258 4.69411 11.5844 3.04414 14.3246 1.92516C17.0648 0.80617 19.9992 0.240264 22.959 0.260022ZM22.959 2.53302C18.2913 2.53132 13.7674 4.14827 10.1583 7.10832C6.54916 10.0684 4.07814 14.1883 3.16633 18.7662C2.25452 23.344 2.95833 28.0963 5.15784 32.2133C7.35734 36.3303 10.9164 39.5573 15.2286 41.3442C19.5407 43.1311 24.3391 43.3674 28.8059 42.0129C33.2728 40.6584 37.1318 37.7968 39.7252 33.9159C42.3186 30.0349 43.4861 25.3748 43.0285 20.7295C42.571 16.0843 40.5168 11.7414 37.216 8.44102C35.3457 6.56598 33.1234 5.07884 30.6768 4.06497C28.2302 3.05111 25.6074 2.5305 22.959 2.53302ZM15.247 23.515H19.136C19.9256 23.5174 20.6822 23.8321 21.2406 24.3905C21.7989 24.9488 22.1136 25.7054 22.116 26.495V30.76C22.1142 31.1448 21.9605 31.5133 21.6884 31.7854C21.4163 32.0575 21.0478 32.2112 20.663 32.213H15.806C15.1857 32.212 14.5912 31.9651 14.1526 31.5265C13.714 31.0879 13.4671 30.4933 13.466 29.873V25.288C13.4673 24.8182 13.6546 24.368 13.9868 24.0358C14.319 23.7036 14.7692 23.5163 15.239 23.515H15.247ZM29.866 11.392H26.155C25.5308 11.3907 24.9326 11.1422 24.4912 10.7008C24.0499 10.2594 23.8013 9.6612 23.8 9.03702V6.44402C23.8016 6.00567 23.9765 5.58573 24.2866 5.27586C24.5966 4.96599 25.0167 4.79134 25.455 4.79002H27.325C28.3568 4.79212 29.3459 5.20218 30.0765 5.93074C30.8072 6.6593 31.22 7.64723 31.225 8.67902V10.036C31.2237 10.3958 31.08 10.7404 30.8253 10.9945C30.5707 11.2486 30.2258 11.3915 29.866 11.392ZM34.985 12.26C34.472 12.0916 34.0251 11.7659 33.7076 11.3292C33.39 10.8925 33.2181 10.367 33.216 9.82702C33.216 8.99202 33.164 7.91202 34.468 8.44102C35.824 8.99202 37.65 10.885 37.277 11.727C36.904 12.569 35.712 12.509 34.982 12.271L34.985 12.26ZM38.979 21.879H36.624C36.0158 21.8777 35.4328 21.6355 35.0027 21.2054C34.5726 20.7753 34.3303 20.1923 34.329 19.584V16.012C34.3298 15.5678 34.5066 15.1419 34.8208 14.8278C35.1349 14.5136 35.5608 14.3368 36.005 14.336H36.787C37.8985 14.3397 38.9633 14.7829 39.7493 15.5688C40.5352 16.3547 40.9783 17.4196 40.982 18.531V19.88C40.9794 20.4096 40.7678 20.9168 40.3933 21.2913C40.0188 21.6658 39.5116 21.8774 38.982 21.88L38.979 21.879ZM30.671 21.879H26.781C25.9914 21.8766 25.2348 21.5619 24.6765 21.0036C24.1181 20.4452 23.8034 19.6886 23.801 18.899V14.641C23.8029 14.2562 23.9565 13.8877 24.2286 13.6156C24.5007 13.3435 24.8692 13.1899 25.254 13.188H30.116C30.7363 13.1891 31.3309 13.436 31.7695 13.8746C32.2081 14.3132 32.455 14.9077 32.456 15.528V20.11C32.4547 20.5798 32.2675 21.03 31.9353 21.3623C31.603 21.6945 31.1528 21.8817 30.683 21.883L30.671 21.879ZM29.871 34.002H26.155C25.5305 34.0036 24.9321 34.2527 24.4908 34.6947C24.0496 35.1366 23.8015 35.7355 23.801 36.36V38.953C23.8026 39.3912 23.9774 39.811 24.2872 40.1208C24.5971 40.4307 25.0168 40.6054 25.455 40.607H27.325C28.3568 40.6049 29.3459 40.1949 30.0765 39.4663C30.8072 38.7377 31.22 37.7498 31.225 36.718V35.369C31.2237 35.0098 31.0804 34.6657 30.8264 34.4116C30.5724 34.1576 30.2282 34.0143 29.869 34.013L29.871 34.002ZM34.99 33.13C34.4748 33.298 34.0258 33.6245 33.7072 34.0629C33.3887 34.5013 33.2167 35.0291 33.216 35.571C33.216 36.406 33.164 37.486 34.468 36.957C35.824 36.406 37.65 34.513 37.277 33.671C36.904 32.829 35.712 32.889 34.982 33.127L34.99 33.13ZM38.984 23.511H36.624C36.0158 23.5123 35.4328 23.7546 35.0027 24.1847C34.5726 24.6148 34.3303 25.1978 34.329 25.806V29.383C34.3296 29.8275 34.5063 30.2535 34.8204 30.5679C35.1346 30.8823 35.5606 31.0592 36.005 31.06H36.787C37.8993 31.0561 38.9647 30.6121 39.7507 29.8252C40.5367 29.0383 40.9794 27.9723 40.982 26.86V25.512C40.9794 24.9824 40.7678 24.4752 40.3933 24.1007C40.0188 23.7262 39.5116 23.5147 38.982 23.512L38.984 23.511ZM30.676 23.511H26.781C25.9914 23.5134 25.2348 23.8281 24.6765 24.3865C24.1181 24.9448 23.8034 25.7014 23.801 26.491V30.76C23.8029 31.1448 23.9565 31.5133 24.2286 31.7854C24.5007 32.0575 24.8692 32.2112 25.254 32.213H30.116C30.7363 32.212 31.3309 31.9651 31.7695 31.5265C32.2081 31.0879 32.455 30.4933 32.456 29.873V25.288C32.4547 24.8182 32.2675 24.368 31.9353 24.0358C31.603 23.7036 31.1528 23.5163 30.683 23.515L30.676 23.511ZM16.051 11.392H19.762C20.386 11.3904 20.984 11.1418 21.4252 10.7004C21.8663 10.2591 22.1147 9.66103 22.116 9.03702V6.44402C22.1144 6.00584 21.9397 5.58606 21.6298 5.27621C21.32 4.96637 20.9002 4.7916 20.462 4.79002H18.592C17.5613 4.79293 16.5737 5.20373 15.8449 5.93264C15.1162 6.66156 14.7057 7.64931 14.703 8.68002V10.036C14.7043 10.3952 14.8476 10.7394 15.1016 10.9934C15.3557 11.2474 15.6998 11.3907 16.059 11.392H16.051ZM10.933 12.26C11.4468 12.0923 11.8946 11.7669 12.2129 11.3302C12.5311 10.8934 12.7037 10.3674 12.706 9.82702C12.706 8.99202 12.758 7.91202 11.454 8.44102C10.098 8.99202 8.27202 10.885 8.64502 11.727C9.01802 12.569 10.21 12.509 10.94 12.271L10.933 12.26ZM6.93902 21.883H9.29302C9.90129 21.8817 10.4843 21.6395 10.9144 21.2094C11.3445 20.7793 11.5867 20.1963 11.588 19.588V16.012C11.5875 15.5683 11.4113 15.1428 11.098 14.8285C10.7847 14.5143 10.3598 14.3369 9.91602 14.335H9.12902C8.01757 14.3387 6.9527 14.7819 6.16678 15.5678C5.38087 16.3537 4.93771 17.4186 4.93402 18.53V19.879C4.93665 20.4086 5.14821 20.9158 5.52271 21.2903C5.89721 21.6648 6.4044 21.8764 6.93402 21.879L6.93902 21.883ZM15.247 21.883H19.136C19.9256 21.8806 20.6822 21.5659 21.2406 21.0076C21.7989 20.4492 22.1136 19.6926 22.116 18.903V14.641C22.1142 14.2562 21.9605 13.8877 21.6884 13.6156C21.4163 13.3435 21.0478 13.1899 20.663 13.188H15.806C15.1857 13.1891 14.5912 13.436 14.1526 13.8746C13.714 14.3132 13.4671 14.9077 13.466 15.528V20.11C13.4673 20.5798 13.6546 21.03 13.9868 21.3623C14.319 21.6945 14.7692 21.8817 15.239 21.883H15.247ZM16.047 34.006H19.758C20.3825 34.0065 20.9814 34.2546 21.4234 34.6958C21.8654 35.1371 22.1144 35.7355 22.116 36.36V38.953C22.1144 39.3912 21.9397 39.811 21.6298 40.1208C21.32 40.4307 20.9002 40.6054 20.462 40.607H18.592C17.5615 40.6041 16.574 40.1935 15.8453 39.4648C15.1166 38.736 14.7059 37.7486 14.703 36.718V35.369C14.7043 35.0098 14.8476 34.6657 15.1016 34.4116C15.3557 34.1576 15.6998 34.0143 16.059 34.013L16.047 34.006ZM10.928 33.134C11.4422 33.3019 11.8904 33.6277 12.2087 34.0651C12.5271 34.5025 12.6993 35.0291 12.701 35.57C12.701 36.405 12.753 37.485 11.449 36.956C10.093 36.405 8.26702 34.512 8.64002 33.67C9.01302 32.828 10.205 32.888 10.935 33.126L10.928 33.134ZM6.93902 23.515H9.29302C9.90129 23.5163 10.4843 23.7586 10.9144 24.1887C11.3445 24.6188 11.5867 25.2018 11.588 25.81V29.387C11.5864 29.8301 11.4098 30.2545 11.0966 30.5679C10.7834 30.8813 10.3591 31.0582 9.91602 31.06H9.12902C8.01679 31.0561 6.95132 30.6121 6.16532 29.8252C5.37931 29.0383 4.93666 27.9723 4.93402 26.86V25.512C4.93665 24.9824 5.14821 24.4752 5.52271 24.1007C5.89721 23.7262 6.4044 23.5147 6.93402 23.512L6.93902 23.515Z" fill="#7E7E7E"/>
<path d="M53.739 12.0491V15.7751H64.295C64.6735 15.7467 65.0537 15.8011 65.409 15.9344C65.7644 16.0678 66.0865 16.2769 66.3529 16.5472C66.6194 16.8175 66.8237 17.1426 66.9519 17.4999C67.08 17.8572 67.1289 18.2381 67.095 18.6161C67.1306 19.0014 67.0828 19.3899 66.9548 19.755C66.8269 20.1202 66.6217 20.4535 66.3534 20.7323C66.085 21.0111 65.7598 21.2288 65.3998 21.3706C65.0397 21.5124 64.6534 21.575 64.267 21.5541H56.958C54.734 21.5541 53.769 22.5311 53.769 24.9321V33.3671H57.319V25.6531C57.319 25.2741 57.502 25.1151 57.832 25.1151H64.148C68.901 25.1151 70.672 21.6391 70.672 18.4151C70.672 15.0061 68.717 12.0381 64.148 12.0381H53.748L53.739 12.0491ZM86.274 16.6001C86.3371 16.3816 86.4722 16.1909 86.6574 16.0589C86.8426 15.927 87.0669 15.8615 87.294 15.8731C87.5179 15.8599 87.7394 15.9253 87.9201 16.058C88.1009 16.1908 88.2296 16.3825 88.284 16.6001L94.309 33.3671H98.249L91.529 14.7971C90.808 12.8061 89.421 12.0481 87.32 12.0481C85.188 12.0481 83.795 12.8051 83.05 14.7971L76.072 33.3671H79.982L86.274 16.6001ZM105.248 12.0491V15.7751H116.372C116.75 15.7431 117.13 15.7936 117.487 15.9232C117.843 16.0528 118.167 16.2584 118.436 16.5258C118.705 16.7931 118.913 17.1158 119.045 17.4714C119.177 17.827 119.23 18.207 119.2 18.5851C119.239 18.9726 119.194 19.3641 119.068 19.7326C118.942 20.1011 118.738 20.438 118.469 20.72C118.2 21.0021 117.874 21.2227 117.512 21.3666C117.15 21.5106 116.761 21.5746 116.372 21.5541H108.461C106.237 21.5541 105.272 22.5311 105.272 24.9321V33.3671H108.821V25.6531C108.821 25.2741 109.004 25.1151 109.334 25.1151H114.624L119.254 33.3561H123.194L118.472 24.8281C121.572 23.9121 122.772 21.0711 122.772 18.4141C122.772 15.0051 120.817 12.0371 116.248 12.0371H105.241L105.248 12.0491ZM128.4 12.0491V15.7751H134.325V33.3671H137.905V15.7761H143.83V12.0491H128.409H128.4ZM151.075 12.0491V33.3671H154.624V12.0491H151.075ZM171.582 16.6001C171.645 16.3816 171.78 16.1909 171.965 16.0589C172.151 15.927 172.375 15.8615 172.602 15.8731C172.826 15.8601 173.047 15.9256 173.228 16.0583C173.409 16.191 173.537 16.3826 173.592 16.6001L179.62 33.3671H183.56L176.84 14.7971C176.119 12.8061 174.733 12.0481 172.631 12.0481C170.499 12.0481 169.106 12.8051 168.361 14.7971L161.38 33.3671H165.29L171.582 16.6001ZM197.923 12.0491C192.541 12.0491 190.434 15.1491 190.434 19.4101V33.3671H193.983V24.9371H206.219V21.4021H193.982V19.3801C193.982 17.3891 194.941 15.7801 198.16 15.7801H206.34V12.0551H197.922L197.923 12.0491Z" fill="#7E7E7E"/>
</svg>
