<svg width="65" height="65" viewBox="0 0 65 65" fill="none" xmlns="http://www.w3.org/2000/svg">
<path d="M2.83198 11.399L2.90698 21.141L0.72998 10.215L57.559 0.921005L59.554 12.821L2.83198 11.399Z" fill="#FBD132"/>
<path d="M62.4671 15.028L61.5821 24.663L5.63107 15.967L5.01907 19.183L4.97607 13.603L62.4671 15.028Z" fill="#FBD132"/>
<path d="M34.3921 30.831C32.109 30.4348 29.7591 30.8416 27.742 31.9821C25.7249 33.1226 24.165 34.9265 23.3275 37.087C22.49 39.2476 22.4266 41.6315 23.1481 43.8336C23.8696 46.0356 25.3314 47.9198 27.285 49.1659C29.2386 50.4121 31.5635 50.9431 33.8644 50.6689C36.1654 50.3947 38.3003 49.332 39.9063 47.6617C41.5124 45.9913 42.4904 43.8163 42.6741 41.5064C42.8578 39.1965 42.2359 36.8942 40.9141 34.991C39.3764 32.7957 37.031 31.2997 34.3921 30.831ZM37.4721 39.531L37.3721 39.787C37.3325 39.9179 37.2665 40.0394 37.1781 40.1438C37.0897 40.2482 36.9809 40.3334 36.8583 40.394C36.7357 40.4547 36.602 40.4896 36.4653 40.4965C36.3287 40.5034 36.1922 40.4822 36.0641 40.4342C35.936 40.3863 35.8191 40.3125 35.7206 40.2176C35.6222 40.1226 35.5442 40.0085 35.4916 39.8822C35.4391 39.7559 35.4129 39.6202 35.4149 39.4834C35.4169 39.3466 35.4469 39.2117 35.5031 39.087L35.6031 38.827C35.6513 38.6994 35.6739 38.5636 35.6696 38.4273C35.6652 38.291 35.634 38.1569 35.5777 38.0327C35.5214 37.9084 35.4411 37.7966 35.3415 37.7034C35.2418 37.6103 35.1248 37.5378 34.9971 37.49L33.2971 36.852C33.0913 36.775 32.8664 36.7653 32.6548 36.8243C32.4432 36.8834 32.2558 37.0081 32.1196 37.1805C31.9835 37.3529 31.9056 37.5641 31.8972 37.7837C31.8889 38.0032 31.9504 38.2197 32.0731 38.402L35.0341 42.29C35.3145 42.6935 35.4935 43.1587 35.5558 43.6462C35.6182 44.1336 35.562 44.6289 35.3921 45.09L35.1221 45.813C34.9045 46.3915 34.5157 46.8898 34.0075 47.2416C33.4994 47.5934 32.8961 47.7819 32.2781 47.782C31.9277 47.7813 31.5801 47.7194 31.2511 47.599L30.8681 48.621C30.8292 48.7528 30.7636 48.8751 30.6754 48.9804C30.5872 49.0857 30.4782 49.1717 30.3553 49.233C30.2324 49.2943 30.0981 49.3296 29.961 49.3368C29.8238 49.344 29.6866 49.3228 29.558 49.2746C29.4294 49.2264 29.312 49.1522 29.2133 49.0566C29.1146 48.9611 29.0367 48.8462 28.9843 48.7192C28.932 48.5923 28.9064 48.4558 28.9091 48.3185C28.9118 48.1812 28.9428 48.0458 29.0001 47.921L29.3861 46.889C28.6687 46.5862 28.0965 46.0173 27.7896 45.3017C27.4827 44.5861 27.4649 43.7794 27.7401 43.051L28.1071 42.071C28.1459 41.9392 28.2115 41.8169 28.2997 41.7116C28.3879 41.6063 28.4969 41.5203 28.6198 41.459C28.7427 41.3977 28.877 41.3624 29.0141 41.3552C29.1513 41.348 29.2885 41.3692 29.4171 41.4174C29.5458 41.4656 29.6631 41.5398 29.7618 41.6354C29.8605 41.7309 29.9384 41.8458 29.9908 41.9728C30.0431 42.0998 30.0687 42.2362 30.066 42.3735C30.0633 42.5108 30.0324 42.6462 29.9751 42.771L29.6081 43.751C29.5115 44.0088 29.5214 44.2944 29.6354 44.5449C29.7494 44.7955 29.9583 44.9904 30.2161 45.087L31.9161 45.724C32.1739 45.82 32.4592 45.8099 32.7096 45.6959C32.96 45.582 33.1551 45.3734 33.2521 45.116L33.5221 44.394C33.5796 44.2396 33.5996 44.0737 33.5803 43.9101C33.561 43.7464 33.503 43.5898 33.4111 43.453L30.4501 39.565C30.0856 39.0466 29.8932 38.4267 29.9002 37.793C29.9072 37.1593 30.1132 36.5438 30.489 36.0335C30.8649 35.5233 31.3916 35.144 31.9947 34.9494C32.5978 34.7548 33.2468 34.7547 33.8501 34.949L34.2371 33.917C34.2759 33.7852 34.3415 33.6629 34.4297 33.5576C34.5179 33.4523 34.6269 33.3663 34.7498 33.305C34.8727 33.2437 35.007 33.2084 35.1441 33.2012C35.2813 33.194 35.4185 33.2152 35.5471 33.2634C35.6758 33.3116 35.7931 33.3858 35.8918 33.4814C35.9905 33.5769 36.0684 33.6918 36.1208 33.8188C36.1731 33.9458 36.1987 34.0822 36.196 34.2195C36.1933 34.3569 36.1624 34.4922 36.1051 34.617L35.7231 35.638C36.4698 35.9241 37.0729 36.4942 37.4005 37.2237C37.7281 37.9533 37.7544 38.7828 37.4721 39.531Z" fill="#FBD132"/>
<path d="M14.8021 32.437C14.6162 32.404 14.4278 32.3873 14.2391 32.387C13.5805 32.3873 12.9383 32.5921 12.4011 32.973C11.6994 33.4676 11.2215 34.2194 11.0717 35.0648C10.9218 35.9101 11.1121 36.7804 11.6011 37.486C11.8416 37.8331 12.1485 38.1291 12.504 38.357C12.8595 38.5849 13.2566 38.7402 13.6724 38.8139C14.0882 38.8876 14.5145 38.8783 14.9267 38.7865C15.3389 38.6947 15.7289 38.5222 16.0741 38.279C16.7758 37.7844 17.2536 37.0326 17.4034 36.1873C17.5533 35.3419 17.363 34.4717 16.8741 33.766C16.6342 33.418 16.3275 33.1213 15.9717 32.8931C15.616 32.6649 15.2184 32.5099 14.8021 32.437Z" fill="#FBD132"/>
<path d="M7.34409 18.395L0.715088 53.562L57.1591 64.728L64.3681 27.254L7.34409 18.395ZM19.3641 36.54C19.1502 37.7284 18.531 38.8058 17.6119 39.5888C16.6928 40.3719 15.5306 40.8121 14.3234 40.8345C13.1161 40.8568 11.9385 40.46 10.991 39.7116C10.0435 38.9631 9.38475 37.9094 9.12698 36.7298C8.8692 35.5502 9.02833 34.3177 9.57726 33.2422C10.1262 32.1668 11.031 31.3149 12.1375 30.8316C13.244 30.3484 14.4839 30.2637 15.6458 30.592C16.8078 30.9203 17.82 31.6412 18.5101 32.632C18.9024 33.1953 19.1797 33.8304 19.3263 34.501C19.4728 35.1715 19.4857 35.8644 19.3641 36.54ZM44.4981 42.911C44.003 45.7076 42.5416 48.2416 40.3689 50.0707C38.1962 51.8998 35.4502 52.9079 32.6101 52.919C31.906 52.9189 31.2033 52.8566 30.5101 52.733C28.1458 52.3259 25.9556 51.2262 24.2169 49.5731C22.4783 47.92 21.2695 45.788 20.7437 43.4472C20.2179 41.1065 20.3989 38.6623 21.2635 36.4245C22.1282 34.1867 23.6377 32.2559 25.6008 30.8768C27.5639 29.4977 29.8922 28.7324 32.2906 28.6779C34.6891 28.6233 37.0498 29.282 39.0735 30.5704C41.0973 31.8588 42.693 33.719 43.6585 35.9152C44.6241 38.1114 44.9159 40.5448 44.4971 42.907L44.4981 42.911ZM55.1041 47.896C54.2325 48.5122 53.1915 48.8434 52.1241 48.844C50.8757 48.849 49.6667 48.4068 48.7162 47.5974C47.7657 46.7881 47.1365 45.665 46.9425 44.4318C46.7485 43.1985 47.0026 41.9365 47.6587 40.8744C48.3149 39.8123 49.3297 39.0203 50.5194 38.6419C51.709 38.2634 52.9949 38.3235 54.1441 38.8113C55.2933 39.2991 56.2298 40.1823 56.7841 41.301C57.3383 42.4196 57.4735 43.6998 57.1654 44.9096C56.8572 46.1194 56.126 47.1788 55.1041 47.896Z" fill="#FBD132"/>
<path d="M52.6871 40.413C52.5012 40.38 52.3128 40.3633 52.1241 40.363C51.4655 40.3633 50.8233 40.5681 50.2861 40.949C49.5844 41.4436 49.1065 42.1954 48.9567 43.0408C48.8069 43.8861 48.9971 44.7564 49.4861 45.462C49.7266 45.8091 50.0335 46.1051 50.389 46.333C50.7445 46.5609 51.1416 46.7162 51.5575 46.7899C51.9733 46.8636 52.3995 46.8543 52.8117 46.7625C53.2239 46.6707 53.6139 46.4982 53.9591 46.255C54.6608 45.7604 55.1386 45.0086 55.2885 44.1633C55.4383 43.3179 55.248 42.4477 54.7591 41.742C54.5192 41.394 54.2125 41.0973 53.8568 40.8691C53.501 40.6409 53.1034 40.4859 52.6871 40.413Z" fill="#FBD132"/>
</svg>
