<svg width="26" height="20" viewBox="0 0 26 20" fill="none" xmlns="http://www.w3.org/2000/svg">
<path d="M8.59961 19.4039L0.370606 11.1769C0.133305 10.9395 0 10.6176 0 10.2819C0 9.94628 0.133305 9.62435 0.370606 9.38694L2.16061 7.59694C2.39801 7.35964 2.71994 7.22634 3.05561 7.22634C3.39127 7.22634 3.7132 7.35964 3.95061 7.59694L9.49261 13.1389L21.3636 1.26794C21.601 1.03064 21.9229 0.897339 22.2586 0.897339C22.5943 0.897339 22.9162 1.03064 23.1536 1.26794L24.9436 3.05794C25.1809 3.29535 25.3142 3.61728 25.3142 3.95294C25.3142 4.28861 25.1809 4.61054 24.9436 4.84794L10.3876 19.4039C10.1503 19.6406 9.82878 19.7736 9.49361 19.7736C9.15843 19.7736 8.83693 19.6406 8.59961 19.4039Z" fill="#FBD132"/>
</svg>
