<svg width="29" height="17" viewBox="0 0 29 17" fill="none" xmlns="http://www.w3.org/2000/svg">
<path d="M0.839844 16.901V11.182C1.55576 11.1794 2.24131 10.8925 2.74575 10.3845C3.2502 9.87647 3.53224 9.18892 3.52984 8.473C3.53116 8.11843 3.46262 7.76708 3.32815 7.43899C3.19368 7.11091 2.9959 6.81253 2.74611 6.56088C2.49632 6.30923 2.19941 6.10925 1.87233 5.97235C1.54525 5.83545 1.19441 5.76431 0.839844 5.763V0.190002H28.3028V16.901H0.839844ZM26.3248 14.914V2.157H18.6878V3.642C18.6799 3.88718 18.5769 4.11965 18.4006 4.29026C18.2243 4.46088 17.9887 4.55627 17.7433 4.55627C17.498 4.55627 17.2623 4.46088 17.0861 4.29026C16.9098 4.11965 16.8068 3.88718 16.7988 3.642V2.157H2.80684V4.221C3.61107 4.60056 4.2909 5.2008 4.76714 5.95182C5.24339 6.70284 5.49645 7.57371 5.49684 8.463C5.49803 9.35289 5.24564 10.2247 4.76924 10.9763C4.29283 11.728 3.61212 12.3283 2.80684 12.707V14.914H16.7988V13.556C16.8068 13.3108 16.9098 13.0784 17.0861 12.9077C17.2623 12.7371 17.498 12.6417 17.7433 12.6417C17.9887 12.6417 18.2243 12.7371 18.4006 12.9077C18.5769 13.0784 18.6799 13.3108 18.6878 13.556V14.914H26.3248ZM9.13984 11.048C8.88921 11.048 8.64885 10.9484 8.47163 10.7712C8.29441 10.594 8.19484 10.3536 8.19484 10.103C8.19484 9.85237 8.29441 9.61201 8.47163 9.43479C8.64885 9.25756 8.88921 9.158 9.13984 9.158H12.7268C12.9775 9.158 13.2178 9.25756 13.3951 9.43479C13.5723 9.61201 13.6718 9.85237 13.6718 10.103C13.6718 10.3536 13.5723 10.594 13.3951 10.7712C13.2178 10.9484 12.9775 11.048 12.7268 11.048H9.13984ZM16.7988 9.64V6.949C16.8068 6.70382 16.9098 6.47136 17.0861 6.30074C17.2623 6.13013 17.498 6.03474 17.7433 6.03474C17.9887 6.03474 18.2243 6.13013 18.4006 6.30074C18.5769 6.47136 18.6799 6.70382 18.6878 6.949V9.64C18.692 9.76662 18.6706 9.89278 18.625 10.011C18.5794 10.1292 18.5105 10.237 18.4223 10.328C18.3342 10.419 18.2287 10.4914 18.1121 10.5408C17.9954 10.5903 17.87 10.6157 17.7433 10.6157C17.6167 10.6157 17.4913 10.5903 17.3746 10.5408C17.258 10.4914 17.1525 10.419 17.0643 10.328C16.9762 10.237 16.9073 10.1292 16.8617 10.011C16.8161 9.89278 16.7947 9.76662 16.7988 9.64ZM9.13984 7.336C8.88921 7.336 8.64885 7.23644 8.47163 7.05922C8.29441 6.882 8.19484 6.64163 8.19484 6.391C8.19484 6.14037 8.29441 5.90001 8.47163 5.72279C8.64885 5.54556 8.88921 5.446 9.13984 5.446H12.7268C12.9775 5.446 13.2178 5.54556 13.3951 5.72279C13.5723 5.90001 13.6718 6.14037 13.6718 6.391C13.6718 6.64163 13.5723 6.882 13.3951 7.05922C13.2178 7.23644 12.9775 7.336 12.7268 7.336H9.13984Z" fill="#333333"/>
</svg>
