<svg width="54" height="38" viewBox="0 0 54 38" fill="none" xmlns="http://www.w3.org/2000/svg">
<path d="M45.214 16.539C45.6822 15.3211 45.8472 14.0076 45.6947 12.7118C45.5423 11.4159 45.0769 10.1766 44.3387 9.10072C43.6006 8.02481 42.6118 7.14458 41.4577 6.53592C40.3036 5.92726 39.0188 5.60844 37.714 5.60696C36.125 5.6058 34.5717 6.07786 33.252 6.96296C31.7799 4.40756 29.5056 2.40943 26.782 1.27859C24.0583 0.147759 21.0376 -0.0525536 18.1884 0.708735C15.3393 1.47002 12.8211 3.15035 11.0244 5.489C9.22783 7.82765 8.25328 10.6939 8.252 13.643C8.252 13.869 8.26 14.095 8.269 14.321C5.58578 15.2662 3.32322 17.1298 1.88138 19.5822C0.439541 22.0346 -0.0886956 24.9178 0.390073 27.7221C0.868842 30.5263 2.32378 33.071 4.49761 34.9061C6.67145 36.7412 9.42416 37.7485 12.269 37.75H43.069C45.7238 37.7499 48.2841 36.7641 50.2535 34.9838C52.2229 33.2034 53.4611 30.7553 53.7282 28.1139C53.9953 25.4726 53.2723 22.8261 51.6992 20.6875C50.1261 18.549 47.8151 17.0706 45.214 16.539ZM34.09 23.964L25.267 32.787C25.0153 33.0364 24.6753 33.1763 24.321 33.1763C23.9667 33.1763 23.6267 33.0364 23.375 32.787L14.552 23.964C14.3651 23.7767 14.2378 23.5383 14.1863 23.2787C14.1347 23.0192 14.1613 22.7502 14.2625 22.5058C14.3637 22.2613 14.5351 22.0523 14.7549 21.9051C14.9748 21.758 15.2334 21.6793 15.498 21.679H20.972V12.3C20.9739 11.9452 21.116 11.6055 21.3675 11.3552C21.6189 11.1049 21.9592 10.9642 22.314 10.964H26.332C26.6859 10.9655 27.0249 11.1068 27.2753 11.3569C27.5257 11.6071 27.6672 11.946 27.669 12.3V21.675H33.144C33.4086 21.6753 33.6672 21.754 33.8871 21.9011C34.107 22.0483 34.2783 22.2573 34.3795 22.5018C34.4808 22.7462 34.5073 23.0152 34.4557 23.2747C34.4042 23.5343 34.2769 23.7727 34.09 23.96V23.964Z" fill="url(#paint0_linear_6_83)"/>
<defs>
<linearGradient id="paint0_linear_6_83" x1="27.0003" y1="0.254761" x2="27.0003" y2="37.75" gradientUnits="userSpaceOnUse">
<stop stop-color="#FBD132"/>
<stop offset="1" stop-color="#FF8000"/>
</linearGradient>
</defs>
</svg>
