<svg width="22" height="17" viewBox="0 0 22 17" fill="none" xmlns="http://www.w3.org/2000/svg">
<path d="M19.7964 0H2.20356C1.91486 0.000536576 1.6291 0.0560322 1.36262 0.163314C1.09614 0.270596 0.854171 0.42756 0.650541 0.62523C0.446911 0.822901 0.285618 1.0574 0.175884 1.31532C0.0661493 1.57324 0.0101262 1.84953 0.0110178 2.12838L0 14.8716C0 15.4361 0.23216 15.9775 0.645408 16.3766C1.05866 16.7758 1.61914 17 2.20356 17H19.7964C20.3809 17 20.9413 16.7758 21.3546 16.3766C21.7678 15.9775 22 15.4361 22 14.8716V2.12838C22 1.5639 21.7678 1.02254 21.3546 0.623387C20.9413 0.224239 20.3809 0 19.7964 0ZM19.7964 4.24939L10.9975 9.5605L2.20356 4.24939V2.12838L11.0017 7.4395L19.7964 2.12838V4.24939Z" fill="white"/>
</svg>
