<svg width="18" height="21" viewBox="0 0 18 21" fill="none" xmlns="http://www.w3.org/2000/svg">
<path d="M16.5949 0.262013H1.4439C1.27537 0.251797 1.1066 0.277467 0.94874 0.337325C0.790876 0.397183 0.647514 0.489867 0.528133 0.609248C0.408751 0.72863 0.316067 0.871991 0.256209 1.02986C0.196351 1.18772 0.170681 1.35649 0.180897 1.52501V20.462L3.9689 17.937L6.4939 20.462L9.0189 17.937L11.5449 20.462L14.0699 17.937L17.8579 20.462V1.52501C17.8681 1.35649 17.8424 1.18772 17.7826 1.02986C17.7227 0.871991 17.63 0.72863 17.5107 0.609248C17.3913 0.489867 17.2479 0.397183 17.0901 0.337325C16.9322 0.277467 16.7634 0.251797 16.5949 0.262013ZM14.0699 12.888H3.9689V10.362H14.0689L14.0699 12.888ZM14.0699 7.83701H3.9689V5.31301H14.0689L14.0699 7.83701Z" fill="#333333"/>
</svg>
