<svg width="13" height="28" viewBox="0 0 13 28" fill="none" xmlns="http://www.w3.org/2000/svg">
<path fill-rule="evenodd" clip-rule="evenodd" d="M2.76101 14.272V27.3486C2.76088 27.3934 2.76965 27.4378 2.78668 27.4793C2.80372 27.5207 2.82871 27.5584 2.8603 27.5901C2.89189 27.6218 2.92949 27.6469 2.97078 27.664C3.01208 27.6811 3.05631 27.6898 3.10098 27.6897H7.94136C7.98595 27.6897 8.03013 27.6809 8.07131 27.6637C8.11249 27.6466 8.14995 27.6214 8.18143 27.5897C8.21291 27.558 8.23783 27.5204 8.2548 27.479C8.27177 27.4377 8.28049 27.3933 8.28035 27.3486V14.0549H11.7901C11.875 14.0547 11.9567 14.0225 12.0191 13.9647C12.0814 13.9069 12.1199 13.8277 12.1269 13.7427L12.4649 9.74104C12.4689 9.69407 12.463 9.64679 12.4478 9.60218C12.4327 9.55757 12.4086 9.51661 12.3768 9.4819C12.345 9.44719 12.3064 9.41949 12.2634 9.40055C12.2204 9.38161 12.1738 9.37184 12.1269 9.37188H8.28035V6.53066C8.28062 6.21093 8.4072 5.90435 8.63237 5.67817C8.85754 5.45199 9.16287 5.32467 9.48144 5.32414H12.1858C12.2304 5.32428 12.2746 5.31554 12.3159 5.29844C12.3572 5.28135 12.3948 5.25622 12.4264 5.22452C12.458 5.19281 12.483 5.15515 12.5 5.1137C12.5171 5.07226 12.5257 5.02783 12.5256 4.983V0.981284C12.5257 0.936447 12.5171 0.892026 12.5 0.850576C12.483 0.809127 12.458 0.771466 12.4264 0.739762C12.3948 0.708057 12.3572 0.682935 12.3159 0.665837C12.2746 0.64874 12.2304 0.640006 12.1858 0.640138H7.61538C6.97776 0.640138 6.34643 0.766184 5.75735 1.01108C5.16827 1.25598 4.63308 1.61492 4.18222 2.06743C3.73135 2.51994 3.3737 3.05714 3.1297 3.64837C2.88569 4.2396 2.76004 4.87328 2.76004 5.51322V9.36988H0.339848C0.2497 9.36988 0.163278 9.40582 0.0995331 9.4698C0.0357884 9.53377 0 9.62054 0 9.71102V13.7127C0.000262973 13.8031 0.0360887 13.8897 0.0997765 13.9537C0.163464 14.0176 0.249781 14.0536 0.339848 14.0539H2.76004L2.76101 14.272Z" fill="#333333"/>
</svg>
