<svg xmlns="http://www.w3.org/2000/svg" width="13.579" height="29.229" viewBox="0 0 13.579 29.229">
  <path id="faceboo_icon" d="M1229.617,36.1V50.226a.368.368,0,0,0,.368.368h5.248a.368.368,0,0,0,.368-.368V35.865h3.8a.368.368,0,0,0,.366-.338l.366-4.327a.368.368,0,0,0-.366-.4H1235.6V27.732a1.3,1.3,0,0,1,1.3-1.3h2.932a.368.368,0,0,0,.368-.368V21.734a.368.368,0,0,0-.368-.368h-4.955a5.265,5.265,0,0,0-5.264,5.264V30.8h-2.624a.368.368,0,0,0-.368.368V35.5a.369.369,0,0,0,.368.368h2.624Z" transform="translate(-1226.625 -21.366)" fill="#fbd132" fill-rule="evenodd"/>
</svg>
