<svg width="14" height="30" viewBox="0 0 14 30" fill="none" xmlns="http://www.w3.org/2000/svg">
<path fill-rule="evenodd" clip-rule="evenodd" d="M2.99597 15.4069V29.5329C2.99597 29.6305 3.03475 29.7241 3.10376 29.7931C3.17277 29.8621 3.26641 29.9009 3.36401 29.9009H8.61206C8.70966 29.9009 8.80318 29.8621 8.87219 29.7931C8.94121 29.7241 8.97998 29.6305 8.97998 29.5329V15.1719H12.78C12.8723 15.1717 12.9611 15.1368 13.0289 15.0742C13.0967 15.0116 13.1385 14.9258 13.146 14.8339L13.5121 10.5069C13.5165 10.4561 13.5103 10.4049 13.4939 10.3567C13.4775 10.3084 13.4513 10.264 13.4169 10.2264C13.3825 10.1888 13.3407 10.1588 13.2941 10.1382C13.2474 10.1176 13.197 10.1069 13.146 10.1069H8.979V7.03885C8.979 6.69407 9.11594 6.36341 9.35974 6.11961C9.60354 5.87582 9.93427 5.73885 10.2791 5.73885H13.2111C13.3087 5.73885 13.4022 5.70008 13.4712 5.63107C13.5402 5.56205 13.579 5.46845 13.579 5.37085V1.04085C13.579 0.943252 13.5402 0.849651 13.4712 0.780638C13.4022 0.711624 13.3087 0.672852 13.2111 0.672852H8.25598C6.85996 0.673117 5.52119 1.2278 4.53406 2.21494C3.54692 3.20207 2.99233 4.54083 2.99207 5.93685V10.1069H0.368042C0.270442 10.1069 0.176801 10.1456 0.107788 10.2146C0.0387747 10.2837 0 10.3773 0 10.4749V14.8069C0.000263922 14.9044 0.039198 14.9978 0.108154 15.0668C0.177111 15.1357 0.270523 15.1746 0.368042 15.1749H2.99207L2.99597 15.4069Z" fill="white"/>
</svg>
