<svg width="20" height="20" viewBox="0 0 20 20" fill="none" xmlns="http://www.w3.org/2000/svg">
<path d="M18.9089 6.33899L10.7069 0.479994C10.5082 0.33811 10.2701 0.261841 10.0259 0.261841C9.78175 0.261841 9.54367 0.33811 9.34494 0.479994L1.14294 6.33899C0.897582 6.52249 0.733834 6.79477 0.686768 7.09751C0.639701 7.40026 0.713058 7.7094 0.891127 7.95872C1.0692 8.20804 1.33782 8.37772 1.63946 8.43142C1.9411 8.48511 2.25177 8.41855 2.50494 8.24599L2.99594 7.89499V17.838C2.99581 17.9919 3.02603 18.1444 3.08488 18.2867C3.14374 18.4289 3.23006 18.5582 3.33892 18.667C3.44777 18.7759 3.57702 18.8622 3.71928 18.921C3.86153 18.9799 4.01399 19.0101 4.16794 19.01H15.8849C16.195 19.0089 16.492 18.885 16.7107 18.6653C16.9295 18.4455 17.0522 18.148 17.0519 17.838V7.89599C17.3679 8.21095 17.7801 8.41124 18.2229 8.46499C18.4711 8.46496 18.7129 8.38613 18.9134 8.23987C19.1139 8.09361 19.2628 7.88746 19.3387 7.65114C19.4145 7.41482 19.4134 7.16053 19.3354 6.9249C19.2575 6.68926 19.1068 6.48446 18.9049 6.33999L18.9089 6.33899ZM14.7129 16.662H12.3689V13.151C12.3689 12.5295 12.122 11.9334 11.6825 11.4939C11.2431 11.0544 10.647 10.8075 10.0254 10.8075C9.4039 10.8075 8.80783 11.0544 8.36833 11.4939C7.92884 11.9334 7.68194 12.5295 7.68194 13.151V16.662H5.33894V6.22199L10.0259 2.87399L14.7129 6.22199V16.662Z" fill="#333333"/>
</svg>
