<svg width="29" height="29" viewBox="0 0 29 29" fill="none" xmlns="http://www.w3.org/2000/svg">
<path d="M21.6217 8.43173C22.535 8.43173 23.2754 7.68865 23.2754 6.77202C23.2754 5.85538 22.535 5.1123 21.6217 5.1123C20.7084 5.1123 19.968 5.85538 19.968 6.77202C19.968 7.68865 20.7084 8.43173 21.6217 8.43173Z" fill="#333333"/>
<path d="M14.2725 7.23999C12.899 7.23979 11.5562 7.64841 10.414 8.41416C9.27181 9.17991 8.38158 10.2684 7.85581 11.542C7.33003 12.8156 7.19238 14.217 7.46023 15.5691C7.72808 16.9212 8.38942 18.1633 9.36061 19.1381C10.3318 20.113 11.5691 20.7769 12.9163 21.046C14.2635 21.315 15.6599 21.177 16.9289 20.6495C18.1979 20.122 19.2826 19.2286 20.0457 18.0824C20.8088 16.9362 21.2161 15.5885 21.2161 14.21C21.214 12.3622 20.4819 10.5908 19.1802 9.28414C17.8785 7.9775 16.1135 7.24237 14.2725 7.23999ZM14.2725 18.6749C13.3926 18.6751 12.5325 18.4134 11.8008 17.9229C11.069 17.4324 10.4986 16.7352 10.1617 15.9193C9.82488 15.1035 9.73662 14.2057 9.90816 13.3395C10.0797 12.4734 10.5033 11.6777 11.1254 11.0532C11.7476 10.4286 12.5403 10.0033 13.4033 9.83093C14.2662 9.65857 15.1608 9.74693 15.9737 10.0848C16.7867 10.4227 17.4816 10.995 17.9705 11.7293C18.4593 12.4636 18.7203 13.3269 18.7203 14.21C18.7189 15.3936 18.2499 16.5283 17.4161 17.3653C16.5823 18.2023 15.4518 18.6733 14.2725 18.6749Z" fill="#333333"/>
<path d="M19.7849 28.3121H8.52107C6.27453 28.3103 4.12059 27.4137 2.53204 25.8194C0.9435 24.2251 0.0501877 22.0632 0.0483398 19.8085V8.50364C0.0504512 6.24898 0.943801 4.08728 2.53229 2.493C4.12077 0.898716 6.27461 0.00211904 8.52107 0H19.7849C22.0314 0.00185455 24.1853 0.898367 25.7739 2.49271C27.3624 4.08705 28.2557 6.2489 28.2576 8.50364V19.8085C28.256 22.0633 27.3629 24.2253 25.7742 25.8197C24.1856 27.4141 22.0315 28.3105 19.7849 28.3121ZM8.52107 2.67214C6.9788 2.67426 5.5004 3.29024 4.41003 4.38495C3.31967 5.47967 2.70641 6.96375 2.70483 8.51164V19.8165C2.70641 21.3644 3.31967 22.8485 4.41003 23.9432C5.5004 25.0379 6.9788 25.6539 8.52107 25.656H19.7849C21.3274 25.6541 22.8061 25.0383 23.8969 23.9436C24.9876 22.8489 25.6012 21.3646 25.603 19.8165V8.51164C25.6012 6.96348 24.9876 5.47926 23.8969 4.38454C22.8061 3.28982 21.3274 2.674 19.7849 2.67214H8.52107Z" fill="#333333"/>
</svg>
