<svg id="instagram_icon" xmlns="http://www.w3.org/2000/svg" width="30.573" height="30.574" viewBox="0 0 30.573 30.574">
  <ellipse id="Elipse_7" data-name="Elipse 7" cx="1.792" cy="1.792" rx="1.792" ry="1.792" transform="translate(21.588 5.513)" fill="#fbd132"/>
  <path id="Trazado_446" data-name="Trazado 446" d="M1403.484,27.92a7.53,7.53,0,1,0,7.528,7.53A7.538,7.538,0,0,0,1403.484,27.92Zm0,12.353a4.823,4.823,0,1,1,4.823-4.823A4.828,4.828,0,0,1,1403.484,40.273Z" transform="translate(-1388.072 -20.108)" fill="#fbd132"/>
  <g id="Grupo_234" data-name="Grupo 234">
    <path id="Trazado_447" data-name="Trazado 447" d="M1410.107,51.322H1397.9a9.193,9.193,0,0,1-9.183-9.183V29.932a9.194,9.194,0,0,1,9.183-9.184h12.207a9.194,9.194,0,0,1,9.183,9.184V42.139A9.193,9.193,0,0,1,1410.107,51.322Zm-12.207-27.7a6.314,6.314,0,0,0-6.307,6.308V42.139a6.314,6.314,0,0,0,6.307,6.308h12.207a6.315,6.315,0,0,0,6.307-6.308V29.932a6.315,6.315,0,0,0-6.307-6.308Z" transform="translate(-1388.717 -20.748)" fill="#fbd132"/>
  </g>
</svg>
