<svg width="32" height="31" viewBox="0 0 32 31" fill="none" xmlns="http://www.w3.org/2000/svg">
<path d="M24.3211 9.09694C25.3107 9.09694 26.1131 8.29463 26.1131 7.30494C26.1131 6.31525 25.3107 5.51294 24.3211 5.51294C23.3314 5.51294 22.5291 6.31525 22.5291 7.30494C22.5291 8.29463 23.3314 9.09694 24.3211 9.09694Z" fill="white"/>
<path d="M16.3531 7.81201C14.8637 7.81162 13.4077 8.25291 12.1691 9.08007C10.9305 9.90724 9.96505 11.0831 9.39481 12.459C8.82458 13.8349 8.67517 15.349 8.96549 16.8098C9.25581 18.2706 9.97278 19.6125 11.0258 20.6658C12.0788 21.7191 13.4205 22.4365 14.8813 22.7272C16.342 23.0179 17.8562 22.8689 19.2322 22.299C20.6083 21.7291 21.7844 20.764 22.6119 19.5257C23.4393 18.2873 23.881 16.8314 23.881 15.342C23.8789 13.3459 23.0852 11.4322 21.674 10.0205C20.2627 8.60891 18.3491 7.81466 16.3531 7.81201ZM16.3531 20.165C15.3992 20.165 14.4666 19.8821 13.6735 19.3522C12.8804 18.8222 12.2622 18.069 11.8971 17.1877C11.5321 16.3064 11.4366 15.3367 11.6227 14.4011C11.8088 13.4655 12.2682 12.6061 12.9427 11.9316C13.6172 11.2571 14.4766 10.7978 15.4121 10.6117C16.3477 10.4256 17.3175 10.5211 18.1988 10.8861C19.0801 11.2512 19.8332 11.8694 20.3632 12.6625C20.8932 13.4556 21.1761 14.3881 21.1761 15.342C21.1747 16.6207 20.6662 17.8467 19.762 18.7509C18.8578 19.6551 17.6318 20.1637 16.3531 20.165Z" fill="white"/>
<path d="M22.3311 30.574H10.124C7.68935 30.5714 5.35512 29.603 3.63354 27.8814C1.91197 26.1599 0.943687 23.8257 0.94104 21.391V9.184C0.943687 6.74924 1.912 4.41494 3.63354 2.69321C5.35509 0.971477 7.68926 0.00291159 10.124 0H22.3311C24.7658 0.00291159 27.1 0.971477 28.8215 2.69321C30.5431 4.41494 31.5114 6.74924 31.514 9.184V21.391C31.5114 23.8257 30.543 26.1599 28.8214 27.8814C27.0998 29.603 24.7657 30.5714 22.3311 30.574ZM10.124 2.874C8.4517 2.87585 6.84843 3.54107 5.66602 4.72368C4.4836 5.90629 3.8186 7.50968 3.81702 9.182V21.391C3.8186 23.0633 4.4836 24.6667 5.66602 25.8493C6.84843 27.0319 8.4517 27.6971 10.124 27.699H22.3311C24.0033 27.6969 25.6063 27.0316 26.7887 25.849C27.9711 24.6665 28.6361 23.0632 28.6379 21.391V9.184C28.6361 7.51176 27.9711 5.90852 26.7887 4.72597C25.6063 3.54342 24.0033 2.87812 22.3311 2.876L10.124 2.874Z" fill="white"/>
</svg>
