<svg width="40" height="40" viewBox="0 0 40 40" fill="none" xmlns="http://www.w3.org/2000/svg">
<path d="M19.8562 6.365C19.538 6.365 19.2328 6.23857 19.0077 6.01353C18.7827 5.78848 18.6562 5.48326 18.6562 5.165V2.022C18.6562 1.70374 18.7827 1.39851 19.0077 1.17347C19.2328 0.948427 19.538 0.821999 19.8562 0.821999C20.1745 0.821999 20.4797 0.948427 20.7048 1.17347C20.9298 1.39851 21.0563 1.70374 21.0563 2.022V5.162C21.0566 5.31984 21.0259 5.4762 20.9658 5.62214C20.9056 5.76808 20.8173 5.90072 20.7058 6.01247C20.5944 6.12422 20.462 6.21287 20.3162 6.27337C20.1704 6.33386 20.0141 6.365 19.8562 6.365Z" fill="#FBD132"/>
<path d="M30.3921 10.729C30.1535 10.7304 29.9199 10.6606 29.7211 10.5286C29.5224 10.3966 29.3675 10.2083 29.2763 9.98788C29.185 9.76741 29.1616 9.52475 29.2089 9.2909C29.2563 9.05705 29.3723 8.84262 29.5421 8.675L31.7611 6.456C31.9865 6.23057 32.2922 6.10392 32.6111 6.10392C32.9299 6.10392 33.2356 6.23057 33.4611 6.456C33.6865 6.68144 33.8131 6.98719 33.8131 7.306C33.8131 7.62481 33.6865 7.93057 33.4611 8.156L31.2441 10.377C31.0179 10.6025 30.7115 10.7291 30.3921 10.729Z" fill="#FBD132"/>
<path d="M37.8942 21.264H34.7562C34.4379 21.264 34.1327 21.1376 33.9076 20.9125C33.6826 20.6875 33.5562 20.3823 33.5562 20.064C33.5562 19.7457 33.6826 19.4405 33.9076 19.2155C34.1327 18.9904 34.4379 18.864 34.7562 18.864H37.8942C38.2124 18.864 38.5176 18.9904 38.7427 19.2155C38.9677 19.4405 39.0942 19.7457 39.0942 20.064C39.0942 20.3823 38.9677 20.6875 38.7427 20.9125C38.5176 21.1376 38.2124 21.264 37.8942 21.264Z" fill="#FBD132"/>
<path d="M32.611 34.018C32.453 34.0184 32.2965 33.9874 32.1506 33.9268C32.0047 33.8662 31.8723 33.7772 31.761 33.665L29.542 31.446C29.3166 31.2206 29.1899 30.9148 29.1899 30.596C29.1899 30.2772 29.3166 29.9714 29.542 29.746C29.7675 29.5206 30.0732 29.3939 30.392 29.3939C30.7108 29.3939 31.0166 29.5206 31.242 29.746L33.461 31.965C33.6309 32.1327 33.7469 32.3472 33.7942 32.5811C33.8415 32.8151 33.818 33.0578 33.7266 33.2783C33.6353 33.4989 33.4802 33.6871 33.2813 33.819C33.0824 33.951 32.8487 34.0206 32.61 34.019L32.611 34.018Z" fill="#FBD132"/>
<path d="M7.10495 34.018C6.86636 34.0194 6.63276 33.9496 6.43401 33.8176C6.23526 33.6856 6.08038 33.4973 5.98914 33.2769C5.89791 33.0564 5.87447 32.8137 5.92181 32.5799C5.96916 32.346 6.08514 32.1316 6.25495 31.964L8.47395 29.745C8.69938 29.5196 9.00514 29.3929 9.32395 29.3929C9.64276 29.3929 9.94852 29.5196 10.1739 29.745C10.3994 29.9704 10.526 30.2762 10.526 30.595C10.526 30.9138 10.3994 31.2196 10.1739 31.445L7.95395 33.666C7.84251 33.7776 7.71016 33.8661 7.56448 33.9265C7.41881 33.9869 7.26265 34.018 7.10495 34.018Z" fill="#FBD132"/>
<path d="M4.95719 21.264H1.81719C1.49893 21.264 1.1937 21.1376 0.968659 20.9125C0.743616 20.6875 0.617188 20.3823 0.617188 20.064C0.617188 19.7457 0.743616 19.4405 0.968659 19.2155C1.1937 18.9904 1.49893 18.864 1.81719 18.864H4.95719C5.27545 18.864 5.58067 18.9904 5.80572 19.2155C6.03076 19.4405 6.15719 19.7457 6.15719 20.064C6.15719 20.3823 6.03076 20.6875 5.80572 20.9125C5.58067 21.1376 5.27545 21.264 4.95719 21.264Z" fill="#FBD132"/>
<path d="M9.32096 10.729C9.16296 10.7294 9.00646 10.6984 8.86055 10.6378C8.71463 10.5772 8.58221 10.4882 8.47096 10.376L6.25296 8.158C6.02753 7.93257 5.90088 7.62681 5.90088 7.308C5.90088 6.98919 6.02753 6.68343 6.25296 6.458C6.47839 6.23257 6.78415 6.10592 7.10296 6.10592C7.42177 6.10592 7.72753 6.23257 7.95296 6.458L10.173 8.676C10.3428 8.84367 10.4588 9.0582 10.5062 9.29214C10.5535 9.52609 10.5299 9.76883 10.4386 9.98934C10.3472 10.2098 10.1922 10.3981 9.99328 10.53C9.79437 10.662 9.56064 10.7316 9.32196 10.73L9.32096 10.729Z" fill="#FBD132"/>
<path d="M24.6674 34.492V36.492C24.6639 37.2351 24.3672 37.9469 23.8417 38.4724C23.3162 38.9978 22.6045 39.2946 21.8614 39.298H17.8534C16.5064 39.302 15.0474 38.276 15.0474 36.031V34.492H24.6674Z" fill="#FBD132"/>
<path d="M26.9283 11.339C25.7699 10.4029 24.4368 9.70678 23.0067 9.29109C21.5765 8.8754 20.078 8.74849 18.5983 8.91776C17.1186 9.08702 15.6874 9.54907 14.3881 10.277C13.0888 11.0049 11.9473 11.9841 11.0302 13.1576C10.1131 14.3311 9.43878 15.6754 9.04641 17.1121C8.65405 18.5488 8.55154 20.0492 8.74486 21.5259C8.93818 23.0027 9.42346 24.4262 10.1724 25.7135C10.9214 27.0008 11.9191 28.1261 13.1073 29.024C14.0833 29.7752 14.7363 30.8702 14.9333 32.086V32.102C14.9691 32.0889 15.0073 32.0835 15.0453 32.086H24.6653C24.693 32.0836 24.7207 32.0891 24.7453 32.102V32.086C25.0128 30.8015 25.7431 29.6601 26.7973 28.879C28.1208 27.8369 29.1929 26.5104 29.9341 24.9977C30.6753 23.485 31.0668 21.825 31.0793 20.1405C31.0919 18.456 30.7253 16.7903 30.0068 15.2667C29.2882 13.7431 28.2361 12.4008 26.9283 11.339ZM25.8703 20.863C25.5529 20.8601 25.2494 20.7328 25.025 20.5084C24.8005 20.2839 24.6732 19.9804 24.6703 19.663C24.6706 19.0839 24.5567 18.5105 24.3352 17.9754C24.1138 17.4404 23.789 16.9542 23.3795 16.5448C22.9701 16.1353 22.4839 15.8106 21.9489 15.5891C21.4138 15.3676 20.8404 15.2537 20.2613 15.254C19.9431 15.254 19.6378 15.1276 19.4128 14.9025C19.1877 14.6775 19.0613 14.3723 19.0613 14.054C19.0613 13.7357 19.1877 13.4305 19.4128 13.2055C19.6378 12.9804 19.9431 12.854 20.2613 12.854C22.0673 12.858 23.7981 13.5771 25.0752 14.8542C26.3522 16.1312 27.0714 17.862 27.0753 19.668C27.0711 19.9854 26.9425 20.2884 26.7171 20.5119C26.4918 20.7354 26.1877 20.8615 25.8703 20.863Z" fill="#FBD132"/>
<path d="M14.9351 32.087H15.0471C15.009 32.0845 14.9709 32.0899 14.9351 32.103V32.087Z" fill="#FBD132"/>
<path d="M24.747 32.087V32.103C24.7224 32.0901 24.6946 32.0846 24.667 32.087H24.747Z" fill="#FBD132"/>
</svg>
