<svg width="16" height="23" viewBox="0 0 16 23" fill="none" xmlns="http://www.w3.org/2000/svg">
<path d="M8 1.93906e-06C6.94922 -0.000732155 5.9086 0.206976 4.93767 0.611248C3.96674 1.01552 3.08453 1.60842 2.34152 2.35605C1.59851 3.10367 1.00926 3.99134 0.607479 4.9683C0.2057 5.94526 -0.000727641 6.99233 1.92711e-06 8.04963C1.92711e-06 14.0868 8 23 8 23C8 23 16 14.0875 16 8.04963C16.0007 6.99233 15.7943 5.94526 15.3925 4.9683C14.9907 3.99134 14.4015 3.10367 13.6585 2.35605C12.9155 1.60842 12.0333 1.01552 11.0623 0.611248C10.0914 0.206976 9.05078 -0.000732155 8 1.93906e-06ZM8 10.9249C7.43495 10.9249 6.88258 10.7563 6.41275 10.4405C5.94293 10.1246 5.57674 9.67563 5.36051 9.15034C5.14427 8.62506 5.08769 8.04706 5.19793 7.48942C5.30817 6.93179 5.58027 6.41957 5.97982 6.01754C6.37937 5.6155 6.88844 5.34172 7.44263 5.2308C7.99683 5.11988 8.57127 5.1768 9.09331 5.39438C9.61536 5.61196 10.0616 5.98042 10.3755 6.45316C10.6894 6.9259 10.857 7.48169 10.857 8.05025C10.8566 8.81256 10.5555 9.54356 10.0198 10.0826C9.48411 10.6216 8.75761 10.9246 8 10.9249Z" fill="white"/>
</svg>
