<svg width="202" height="45" viewBox="0 0 202 45" fill="none" xmlns="http://www.w3.org/2000/svg">
<path d="M21.9934 0.267822C27.8264 0.267822 33.4204 2.58497 37.545 6.70953C41.6696 10.8341 43.9867 16.4282 43.9867 22.2612C43.9867 28.0942 41.6696 33.6883 37.545 37.8128C33.4204 41.9374 27.8264 44.2545 21.9934 44.2545C16.1604 44.2545 10.5663 41.9374 6.4417 37.8128C2.31715 33.6883 0 28.0942 0 22.2612C0 16.4282 2.31715 10.8341 6.4417 6.70953C10.5663 2.58497 16.1604 0.267822 21.9934 0.267822ZM21.9934 2.49499C17.4195 2.49438 12.9869 4.07976 9.45092 6.98098C5.91494 9.88221 3.49433 13.9198 2.60158 18.4057C1.70882 22.8916 2.39914 27.5482 4.55492 31.5822C6.7107 35.6162 10.1985 38.7778 14.4241 40.5284C18.6497 42.2791 23.3516 42.5103 27.7286 41.1828C32.1056 39.8553 35.8868 37.0511 38.4281 33.2482C40.9693 29.4452 42.1132 24.8787 41.665 20.3269C41.2167 15.775 39.204 11.5194 35.9697 8.28524C34.1363 6.44705 31.9578 4.98924 29.5593 3.99556C27.1608 3.00189 24.5896 2.49193 21.9934 2.49499ZM14.4362 23.0566H18.2469C19.0203 23.0602 19.761 23.369 20.3079 23.9159C20.8548 24.4628 21.1636 25.2035 21.1672 25.9769V30.1534C21.1655 30.5306 21.015 30.8918 20.7483 31.1585C20.4816 31.4251 20.1204 31.5757 19.7433 31.5774H14.9836C14.3757 31.5774 13.7926 31.3359 13.3627 30.906C12.9329 30.4761 12.6913 29.8931 12.6913 29.2851V24.7923C12.6913 24.3303 12.8749 23.8871 13.2016 23.5604C13.5283 23.2337 13.9714 23.0502 14.4335 23.0502L14.4362 23.0566ZM28.7629 11.179H25.1237C24.5123 11.1775 23.9263 10.934 23.494 10.5017C23.0617 10.0694 22.8182 9.48345 22.8167 8.87206V6.32857C22.8182 5.89907 22.9894 5.48759 23.2931 5.18389C23.5968 4.88019 24.0083 4.70893 24.4378 4.70748H26.2716C27.2826 4.71013 28.2516 5.11242 28.9671 5.82662C29.6827 6.54082 30.0869 7.50898 30.0915 8.51997V9.84857C30.0905 10.2008 29.9503 10.5384 29.7014 10.7876C29.4525 11.0369 29.1151 11.1775 28.7629 11.179ZM33.7793 12.0336C33.275 11.87 32.8352 11.5515 32.5224 11.1235C32.2096 10.6955 32.0398 10.1797 32.0371 9.6496C32.0371 8.83172 31.9858 7.77269 33.264 8.29166C34.5926 8.83172 36.3814 10.6866 36.0147 11.5118C35.6571 12.3224 34.4816 12.2784 33.7655 12.0446L33.7793 12.0336ZM37.6926 21.4575H35.3857C34.7896 21.4561 34.2184 21.2186 33.7969 20.7971C33.3754 20.3756 33.138 19.8044 33.1365 19.2083V15.7039C33.1384 15.2687 33.3122 14.8519 33.6199 14.5442C33.9276 14.2365 34.3444 14.0628 34.7796 14.0608H35.5461C36.6352 14.0647 37.6786 14.499 38.4487 15.269C39.2189 16.039 39.6534 17.0823 39.6575 18.1713V19.4926C39.6561 20.013 39.4487 20.5117 39.0807 20.8797C38.7127 21.2478 38.214 21.4551 37.6935 21.4566L37.6926 21.4575ZM29.5514 21.4575H25.7398C24.9664 21.4539 24.2257 21.1451 23.6788 20.5982C23.1319 20.0513 22.8231 19.3106 22.8195 18.5372V14.3607C22.8212 13.9835 22.9717 13.6223 23.2384 13.3556C23.5051 13.089 23.8663 12.9384 24.2434 12.9367H29.004C29.305 12.9367 29.6031 12.996 29.8812 13.1112C30.1593 13.2264 30.412 13.3952 30.6249 13.6081C30.8377 13.821 31.0066 14.0736 31.1218 14.3518C31.237 14.6299 31.2963 14.9279 31.2963 15.229V19.7218C31.2963 20.1838 31.1127 20.627 30.786 20.9537C30.4593 21.2804 30.0162 21.4639 29.5542 21.4639L29.5514 21.4575ZM28.7629 33.3379H25.1237C24.5123 33.3393 23.9263 33.5828 23.494 34.0151C23.0617 34.4475 22.8182 35.0334 22.8167 35.6448V38.1855C22.8182 38.615 22.9894 39.0265 23.2931 39.3302C23.5968 39.6339 24.0083 39.8052 24.4378 39.8066H26.2716C27.2823 39.8037 28.2509 39.4015 28.9662 38.6875C29.6816 37.9735 30.0857 37.0057 30.0905 35.995V34.6738C30.0891 34.3219 29.9487 33.9848 29.6998 33.7359C29.451 33.4871 29.1139 33.3466 28.7619 33.3452L28.7629 33.3379ZM33.7793 32.4833C33.275 32.6469 32.8352 32.9653 32.5224 33.3934C32.2096 33.8214 32.0398 34.3371 32.0371 34.8673C32.0371 35.6851 31.9858 36.7442 33.264 36.2252C34.5926 35.6851 36.3814 33.8302 36.0147 33.005C35.6571 32.1945 34.4816 32.2385 33.7655 32.4723L33.7793 32.4833ZM37.6926 23.0566H35.3857C34.7896 23.058 34.2184 23.2955 33.7969 23.717C33.3754 24.1384 33.138 24.7097 33.1365 25.3058V28.8111C33.1384 29.2463 33.3122 29.6631 33.6199 29.9708C33.9276 30.2785 34.3444 30.4523 34.7796 30.4542H35.5461C36.6365 30.4501 37.6808 30.0145 38.451 29.2428C39.2213 28.471 39.6547 27.4258 39.6566 26.3354V25.0142C39.6552 24.4937 39.4478 23.995 39.0798 23.627C38.7118 23.259 38.2131 23.0516 37.6926 23.0502V23.0566ZM29.5514 23.0566H25.7398C24.9664 23.0602 24.2257 23.369 23.6788 23.9159C23.1319 24.4628 22.8231 25.2035 22.8195 25.9769V30.1534C22.8212 30.5306 22.9717 30.8918 23.2384 31.1585C23.5051 31.4251 23.8663 31.5757 24.2434 31.5774H29.004C29.305 31.5774 29.6031 31.5181 29.8812 31.4029C30.1593 31.2877 30.412 31.1189 30.6249 30.906C30.8377 30.6931 31.0066 30.4405 31.1218 30.1623C31.237 29.8842 31.2963 29.5862 31.2963 29.2851V24.7923C31.2963 24.3303 31.1127 23.8871 30.786 23.5604C30.4593 23.2337 30.0162 23.0502 29.5542 23.0502L29.5514 23.0566ZM15.2211 11.179H18.8612C19.4726 11.1775 20.0585 10.934 20.4908 10.5017C20.9232 10.0694 21.1667 9.48345 21.1681 8.87206V6.32857C21.1667 5.89907 20.9954 5.48759 20.6917 5.18389C20.388 4.88019 19.9765 4.70893 19.5471 4.70748H17.7132C16.7035 4.71111 15.7361 5.11403 15.0224 5.82831C14.3086 6.54258 13.9064 7.5102 13.9035 8.51997V9.84857C13.9045 10.2008 14.0447 10.5384 14.2936 10.7876C14.5425 11.0369 14.8799 11.1775 15.2321 11.179H15.2211ZM10.2047 12.0336C10.709 11.87 11.1488 11.5515 11.4615 11.1235C11.7743 10.6955 11.9441 10.1797 11.9468 9.6496C11.9468 8.83172 11.9982 7.77269 10.72 8.29166C9.3914 8.83172 7.60252 10.6866 7.96928 11.5118C8.32688 12.3224 9.50235 12.2784 10.2185 12.0446L10.2047 12.0336ZM6.29501 21.4575H8.60195C9.19802 21.4561 9.76926 21.2186 10.1907 20.7971C10.6122 20.3756 10.8497 19.8044 10.8511 19.2083V15.7039C10.8492 15.2687 10.6755 14.8519 10.3677 14.5442C10.06 14.2365 9.6432 14.0628 9.20802 14.0608H8.44149C7.35243 14.0649 6.30915 14.4995 5.53915 15.2696C4.76915 16.0398 4.33487 17.0832 4.331 18.1722V19.4935C4.33245 20.0139 4.53984 20.5126 4.90785 20.8807C5.27586 21.2487 5.77457 21.4561 6.29501 21.4575ZM14.4362 21.4575H18.2469C19.0203 21.4539 19.761 21.1451 20.3079 20.5982C20.8548 20.0513 21.1636 19.3106 21.1672 18.5372V14.3607C21.1655 13.9835 21.015 13.6223 20.7483 13.3556C20.4816 13.089 20.1204 12.9384 19.7433 12.9367H14.9836C14.3757 12.9367 13.7926 13.1782 13.3627 13.6081C12.9329 14.038 12.6913 14.621 12.6913 15.229V19.7218C12.6913 20.1838 12.8749 20.627 13.2016 20.9537C13.5283 21.2804 13.9714 21.4639 14.4335 21.4639L14.4362 21.4575ZM15.2248 33.3379H18.8612C19.4726 33.3393 20.0585 33.5828 20.4908 34.0151C20.9232 34.4475 21.1667 35.0334 21.1681 35.6448V38.1855C21.1667 38.615 20.9954 39.0265 20.6917 39.3302C20.388 39.6339 19.9765 39.8052 19.5471 39.8066H17.7132C16.7033 39.8035 15.7356 39.4009 15.0215 38.6868C14.3074 37.9726 13.9048 37.005 13.9017 35.995V34.6738C13.9031 34.3219 14.0436 33.9848 14.2924 33.7359C14.5412 33.4871 14.8783 33.3466 15.2303 33.3452L15.2248 33.3379ZM10.2084 32.4833C10.7126 32.6469 11.1524 32.9653 11.4652 33.3934C11.778 33.8214 11.9478 34.3371 11.9505 34.8673C11.9505 35.6851 12.0018 36.7442 10.7237 36.2252C9.39507 35.6851 7.60619 33.8302 7.97295 33.005C8.33054 32.1945 9.50602 32.2385 10.2221 32.4723L10.2084 32.4833ZM6.29501 23.0566H8.60195C9.19802 23.058 9.76926 23.2955 10.1907 23.717C10.6122 24.1384 10.8497 24.7097 10.8511 25.3058V28.8111C10.8492 29.2463 10.6755 29.6631 10.3677 29.9708C10.06 30.2785 9.6432 30.4523 9.20802 30.4542H8.44149C7.351 30.4503 6.30639 30.0149 5.53598 29.2431C4.76557 28.4713 4.33202 27.4259 4.33009 26.3354V25.0142C4.33154 24.4937 4.53893 23.995 4.90694 23.627C5.27494 23.259 5.77366 23.0516 6.2941 23.0502L6.29501 23.0566Z" fill="#333333"/>
<path d="M52.1577 11.8208V15.4728H62.5022C62.8724 15.4465 63.2439 15.5008 63.5911 15.6319C63.9383 15.763 64.2529 15.9678 64.5133 16.2322C64.7738 16.4966 64.9737 16.8144 65.0995 17.1635C65.2253 17.5127 65.2739 17.8849 65.242 18.2547C65.2769 18.6323 65.2301 19.013 65.1046 19.3709C64.9792 19.7288 64.7781 20.0555 64.5151 20.3287C64.2521 20.6019 63.9333 20.8153 63.5804 20.9542C63.2275 21.0931 62.8488 21.1543 62.4702 21.1338H55.3128C53.1333 21.1338 52.188 22.0919 52.188 24.4438V32.7051H55.6658V25.1526C55.6658 24.7858 55.8492 24.6253 56.1683 24.6253H62.3583C67.0153 24.6253 68.7519 21.219 68.7519 18.064C68.7519 14.7237 66.8365 11.8143 62.3583 11.8143H52.1641L52.1577 11.8208ZM84.0385 16.2806C84.1003 16.0665 84.2327 15.8796 84.4141 15.7502C84.5956 15.6209 84.8154 15.5567 85.0379 15.5681C85.2573 15.5554 85.4742 15.6195 85.6513 15.7496C85.8284 15.8797 85.9546 16.0675 86.008 16.2806L91.9166 32.7134H95.7777L89.1924 14.5146C88.4864 12.5635 87.1276 11.8208 85.0664 11.8208C82.9767 11.8208 81.6124 12.5635 80.8816 14.5146L74.0443 32.7134H77.8751L84.0385 16.2806ZM102.632 11.8208V15.4728H113.535C113.905 15.4422 114.277 15.4922 114.626 15.6193C114.975 15.7464 115.292 15.9476 115.555 16.2091C115.819 16.4706 116.023 16.786 116.152 17.1338C116.282 17.4816 116.335 17.8534 116.307 18.2235C116.345 18.6032 116.301 18.9866 116.177 19.3475C116.053 19.7084 115.852 20.0383 115.589 20.3146C115.326 20.5909 115.006 20.807 114.652 20.9483C114.297 21.0895 113.916 21.1524 113.535 21.1328H105.783C103.604 21.1328 102.658 22.091 102.658 24.4429V32.7042H106.136V25.1526C106.136 24.7858 106.319 24.6253 106.638 24.6253H111.821L116.359 32.7005H120.22L115.592 24.3439C118.627 23.4462 119.81 20.6625 119.81 18.0585C119.81 14.7182 117.894 11.8088 113.416 11.8088H102.629L102.632 11.8208ZM125.32 11.8208V15.4728H131.127V32.7106H134.635V15.4728H140.442V11.8208H125.329H125.32ZM147.542 11.8208V32.7134H151.019V11.8208H147.542ZM167.637 16.2806C167.699 16.0665 167.832 15.8796 168.013 15.7502C168.194 15.6209 168.414 15.5567 168.637 15.5681C168.856 15.5554 169.073 15.6195 169.25 15.7496C169.427 15.8797 169.553 16.0675 169.607 16.2806L175.515 32.7134H179.377L172.795 14.5146C172.089 12.5635 170.73 11.8208 168.669 11.8208C166.579 11.8208 165.215 12.5635 164.484 14.5146L157.642 32.7134H161.473L167.637 16.2806ZM193.45 11.8208C188.176 11.8208 186.115 14.8557 186.115 19.0341V32.7134H189.593V24.452H201.586V20.9861H189.593V19.0047C189.593 17.0535 190.532 15.4783 193.688 15.4783H201.703V11.8272H193.451L193.45 11.8208Z" fill="#333333"/>
</svg>
