<svg id="_2943755830416" xmlns="http://www.w3.org/2000/svg" width="241.17" height="52.593" viewBox="0 0 241.17 52.593">
  <path id="Trazado_1" data-name="Trazado 1" d="M26.3,0h0a26.3,26.3,0,1,1,0,52.593h0A26.3,26.3,0,1,1,26.3,0h0Zm0,2.663a23.638,23.638,0,1,0,16.71,6.923A23.563,23.563,0,0,0,26.3,2.663ZM17.26,27.248h4.557a3.5,3.5,0,0,1,3.492,3.492v4.994a1.71,1.71,0,0,1-1.7,1.7H17.915A2.746,2.746,0,0,1,15.174,34.7V29.326a2.083,2.083,0,0,1,2.078-2.078Zm17.13-14.2H30.042a2.765,2.765,0,0,1-2.759-2.759V7.246a1.945,1.945,0,0,1,1.938-1.938h2.191a4.579,4.579,0,0,1,4.566,4.557v1.589A1.6,1.6,0,0,1,34.39,13.044Zm6,1.021A3.013,3.013,0,0,1,38.31,11.21c0-.978-.061-2.244,1.467-1.624,1.589.646,3.728,2.864,3.291,3.85-.428.969-1.833.917-2.689.637Zm4.68,11.271H42.309a2.7,2.7,0,0,1-2.689-2.689V18.457a1.967,1.967,0,0,1,1.964-1.964H42.5a4.931,4.931,0,0,1,4.915,4.915v1.58a2.355,2.355,0,0,1-2.349,2.349Zm-9.735,0H30.776a3.5,3.5,0,0,1-3.492-3.492V16.85a1.71,1.71,0,0,1,1.7-1.7h5.692a2.746,2.746,0,0,1,2.741,2.741v5.369a2.083,2.083,0,0,1-2.078,2.078Zm-.943,14.2H30.042A2.765,2.765,0,0,0,27.283,42.3v3.038a1.945,1.945,0,0,0,1.938,1.938h2.191a4.579,4.579,0,0,0,4.566-4.557v-1.58A1.6,1.6,0,0,0,34.39,39.55Zm6-1.021a3.013,3.013,0,0,0-2.078,2.855c0,.978-.061,2.244,1.467,1.624,1.589-.646,3.728-2.864,3.291-3.85-.428-.969-1.833-.917-2.689-.637Zm4.68-11.271H42.309a2.7,2.7,0,0,0-2.689,2.689v4.191a1.967,1.967,0,0,0,1.964,1.964H42.5a4.933,4.933,0,0,0,4.915-4.924v-1.58a2.355,2.355,0,0,0-2.349-2.349Zm-9.735,0H30.776a3.5,3.5,0,0,0-3.492,3.492v4.994a1.71,1.71,0,0,0,1.7,1.7h5.692A2.746,2.746,0,0,0,37.42,34.7V29.326a2.083,2.083,0,0,0-2.078-2.078ZM18.2,13.044h4.348a2.765,2.765,0,0,0,2.759-2.759V7.246a1.945,1.945,0,0,0-1.938-1.938H21.181a4.572,4.572,0,0,0-4.557,4.557v1.589a1.6,1.6,0,0,0,1.589,1.589Zm-6,1.021a3.013,3.013,0,0,0,2.078-2.855c0-.978.061-2.244-1.467-1.624-1.589.646-3.728,2.864-3.291,3.85.428.969,1.833.917,2.689.637ZM7.526,25.336h2.759a2.7,2.7,0,0,0,2.689-2.689V18.457a1.967,1.967,0,0,0-1.964-1.964h-.917a4.931,4.931,0,0,0-4.915,4.915v1.58a2.355,2.355,0,0,0,2.349,2.349Zm9.735,0h4.557a3.5,3.5,0,0,0,3.492-3.492V16.85a1.71,1.71,0,0,0-1.7-1.7H17.915a2.746,2.746,0,0,0-2.741,2.741v5.369a2.083,2.083,0,0,0,2.078,2.078Zm.943,14.2h4.348A2.765,2.765,0,0,1,25.31,42.3v3.038a1.945,1.945,0,0,1-1.938,1.938H21.181a4.572,4.572,0,0,1-4.557-4.557v-1.58a1.6,1.6,0,0,1,1.589-1.589Zm-6-1.021a3.013,3.013,0,0,1,2.078,2.855c0,.978.061,2.244-1.467,1.624-1.589-.646-3.728-2.864-3.291-3.85.428-.969,1.833-.917,2.689-.637ZM7.526,27.248h2.759a2.7,2.7,0,0,1,2.689,2.689v4.191a1.967,1.967,0,0,1-1.964,1.964h-.917a4.933,4.933,0,0,1-4.915-4.924v-1.58A2.355,2.355,0,0,1,7.526,27.24Z" fill="#fbd132"/>
  <path id="Trazado_2" data-name="Trazado 2" d="M77.43,12.384v4.366H89.8a3.064,3.064,0,0,1,3.278,3.328,3.157,3.157,0,0,1-3.314,3.443H81.2c-2.605,0-3.736,1.145-3.736,3.958v9.878h4.159V28.325c0-.444.215-.63.6-.63h7.4c5.569,0,7.644-4.073,7.644-7.845,0-3.994-2.29-7.473-7.644-7.473H77.437Zm38.122,5.333a1.181,1.181,0,0,1,1.2-.852,1.128,1.128,0,0,1,1.16.852l7.065,19.648h4.617l-7.874-21.759c-.845-2.333-2.469-3.221-4.932-3.221-2.5,0-4.13.888-5,3.221L103.6,37.365h4.581Zm22.232-5.333v4.366h13.034a3.064,3.064,0,0,1,3.314,3.293,3.167,3.167,0,0,1-3.314,3.479h-9.269c-2.605,0-3.736,1.145-3.736,3.958v9.878h4.159V28.325c0-.444.215-.63.6-.63h6.2L154.2,37.35h4.617l-5.533-9.992c3.629-1.074,5.039-4.4,5.039-7.516,0-3.994-2.29-7.473-7.644-7.473h-12.9Zm27.128,0v4.366h6.943V37.365h4.194V16.751h6.943V12.384H164.919Zm26.569,0v24.98h4.159V12.384h-4.159Zm24.029,5.333a1.181,1.181,0,0,1,1.2-.852,1.128,1.128,0,0,1,1.16.852l7.065,19.648h4.617l-7.874-21.759c-.845-2.333-2.469-3.221-4.932-3.221-2.5,0-4.13.888-5,3.221l-8.181,21.759h4.581Zm30.864-5.333c-6.306,0-8.775,3.629-8.775,8.625V37.365h4.159V27.487h14.337V23.343H241.757V20.974c0-2.333,1.124-4.216,4.9-4.216h9.584V12.391h-9.863Z" transform="translate(-15.067 1.429)" fill="#fbd132"/>
</svg>
