<svg xmlns="http://www.w3.org/2000/svg" width="32.095" height="36.68" viewBox="0 0 32.095 36.68">
  <g id="mensajeria" transform="translate(-1053.151 -2921.391)">
    <path id="Trazado_103" data-name="Trazado 103" d="M13.17,4.585A4.6,4.6,0,0,1,17.755,9.17v2.292a4.585,4.585,0,0,1-9.17,0V9.17A4.6,4.6,0,0,1,13.17,4.585M13.17,0A9.2,9.2,0,0,0,4,9.17v2.292a9.17,9.17,0,0,0,18.34,0V9.17A9.2,9.2,0,0,0,13.17,0Z" transform="translate(1056.029 2921.391)" fill="#333"/>
    <path id="Trazado_104" data-name="Trazado 104" d="M19.34,14.585a9.246,9.246,0,0,1,8.024,4.585H6.96a9.246,9.246,0,0,1,8.024-4.585H19.34m0-4.585H14.755A13.8,13.8,0,0,0,1,23.755H33.095A13.8,13.8,0,0,0,19.34,10Z" transform="translate(1052.151 2934.315)" fill="#333"/>
  </g>
</svg>
