<svg width="19" height="19" viewBox="0 0 19 19" fill="none" xmlns="http://www.w3.org/2000/svg">
<path d="M11.7418 15.039H6.02985L8.11885 12.755H15.1688C15.4716 12.7547 15.762 12.6343 15.9761 12.4202C16.1902 12.2061 16.3106 11.9158 16.3108 11.613V4.759H17.4538C17.7566 4.75927 18.047 4.87967 18.2611 5.09378C18.4752 5.30789 18.5956 5.59821 18.5958 5.901V13.901C18.5956 14.2038 18.4752 14.4941 18.2611 14.7082C18.047 14.9223 17.7566 15.0427 17.4538 15.043H15.1678V18.47L11.7418 15.039ZM3.74185 10.47H1.46085C1.15805 10.4697 0.867733 10.3493 0.653624 10.1352C0.439515 9.92112 0.319112 9.6308 0.318848 9.328V1.328C0.320169 1.0259 0.441038 0.736608 0.655033 0.523362C0.869028 0.310117 1.15874 0.190264 1.46085 0.190002L12.8838 0.190002C13.1866 0.190267 13.477 0.31067 13.6911 0.524779C13.9052 0.738888 14.0256 1.02921 14.0258 1.332V9.332C14.0256 9.6348 13.9052 9.92512 13.6911 10.1392C13.477 10.3533 13.1866 10.4737 12.8838 10.474H7.17285L3.74585 13.897L3.74185 10.47Z" fill="#333333"/>
</svg>
