<svg width="242" height="53" viewBox="0 0 242 53" fill="none" xmlns="http://www.w3.org/2000/svg">
<path d="M26.7291 0.00350026C30.2185 -0.053433 33.6843 0.584675 36.9246 1.88064C40.165 3.17661 43.1149 5.10451 45.6027 7.55201C48.0905 9.99951 50.0662 12.9177 51.4149 16.1364C52.7635 19.3552 53.4581 22.8101 53.4581 26.3C53.4581 29.7899 52.7635 33.2449 51.4149 36.4636C50.0662 39.6823 48.0905 42.6005 45.6027 45.048C43.1149 47.4955 40.165 49.4234 36.9246 50.7194C33.6843 52.0153 30.2185 52.6534 26.7291 52.5965C23.2396 52.6534 19.7738 52.0153 16.5335 50.7194C13.2932 49.4234 10.3432 47.4955 7.85541 45.048C5.36765 42.6005 3.39188 39.6823 2.04322 36.4636C0.694565 33.2449 0 29.7899 0 26.3C0 22.8101 0.694565 19.3552 2.04322 16.1364C3.39188 12.9177 5.36765 9.99951 7.85541 7.55201C10.3432 5.10451 13.2932 3.17661 16.5335 1.88064C19.7738 0.584675 23.2396 -0.053433 26.7291 0.00350026ZM26.7291 2.6665C21.2601 2.66553 15.96 4.56096 11.7319 8.0298C7.50375 11.4986 4.60928 16.3263 3.54166 21.69C2.47403 27.0538 3.29932 32.6218 5.87689 37.4453C8.45446 42.2687 12.6248 46.0492 17.6773 48.1425C22.7299 50.2357 28.3519 50.5123 33.5855 48.925C38.819 47.3377 43.3403 43.9848 46.3788 39.4376C49.4173 34.8904 50.7851 29.4302 50.2491 23.9876C49.713 18.5449 47.3063 13.4566 43.4391 9.5895C41.247 7.39181 38.6424 5.64886 35.7748 4.4608C32.9072 3.27273 29.833 2.66296 26.7291 2.6665ZM17.6891 27.2515H22.2461C23.1715 27.2536 24.0585 27.6222 24.7129 28.2766C25.3674 28.931 25.7359 29.818 25.7381 30.7435V35.7375C25.7354 36.1876 25.5555 36.6184 25.2372 36.9367C24.919 37.2549 24.4881 37.4349 24.0381 37.4375H18.3441C17.6187 37.4362 16.9233 37.1479 16.4098 36.6357C15.8962 36.1235 15.6062 35.4288 15.6031 34.7035V29.3295C15.6044 28.7788 15.8237 28.251 16.2131 27.8616C16.6026 27.4722 17.1303 27.2528 17.6811 27.2515H17.6891ZM34.8191 13.0515H30.4711C29.7398 13.0499 29.039 12.7587 28.5219 12.2417C28.0048 11.7246 27.7136 11.0237 27.7121 10.2925V7.2495C27.7139 6.73608 27.9187 6.24421 28.2817 5.88117C28.6448 5.51812 29.1366 5.31334 29.6501 5.3115H31.8411C33.0494 5.31492 34.2075 5.79584 35.0628 6.64945C35.918 7.50305 36.4013 8.66014 36.4071 9.8685V11.4575C36.4044 11.878 36.2364 12.2806 35.9392 12.5782C35.642 12.8758 35.2396 13.0444 34.8191 13.0475V13.0515ZM40.8191 14.0725C40.2153 13.8759 39.6892 13.4936 39.3156 12.9802C38.9421 12.4667 38.7403 11.8484 38.7391 11.2135C38.7391 10.2355 38.6781 8.9695 40.2061 9.5895C41.7951 10.2355 43.9341 12.4535 43.4971 13.4395C43.0691 14.4085 41.6641 14.3565 40.8081 14.0765L40.8191 14.0725ZM45.4991 25.3435H42.7381C42.0258 25.3406 41.3435 25.0564 40.8398 24.5527C40.3362 24.0491 40.0519 23.3668 40.0491 22.6545V18.4605C40.0498 17.9399 40.257 17.4408 40.6252 17.0726C40.9933 16.7045 41.4924 16.4973 42.0131 16.4965H42.9291C44.2313 16.5007 45.479 17.0199 46.3998 17.9407C47.3207 18.8616 47.8398 20.1093 47.8441 21.4115V22.9915C47.8425 23.614 47.5945 24.2106 47.1543 24.6507C46.7141 25.0909 46.1176 25.3389 45.4951 25.3405L45.4991 25.3435ZM35.7641 25.3435H31.2051C30.2796 25.3414 29.3926 24.9728 28.7382 24.3184C28.0838 23.664 27.7152 22.777 27.7131 21.8515V16.8535C27.7157 16.4034 27.8956 15.9726 28.2139 15.6543C28.5321 15.3361 28.963 15.1561 29.4131 15.1535H35.1051C35.8316 15.1548 36.528 15.444 37.0418 15.9578C37.5555 16.4715 37.8447 17.1679 37.8461 17.8945V23.2635C37.8447 23.8142 37.6254 24.342 37.236 24.7314C36.8465 25.1208 36.3188 25.3402 35.7681 25.3415L35.7641 25.3435ZM34.8211 39.5435H30.4711C29.7396 39.5451 29.0386 39.8364 28.5215 40.3537C28.0044 40.871 27.7134 41.5721 27.7121 42.3035V45.3415C27.7139 45.8549 27.9187 46.3468 28.2817 46.7098C28.6448 47.0729 29.1366 47.2777 29.6501 47.2795H31.8411C33.0494 47.2761 34.2075 46.7952 35.0628 45.9416C35.918 45.0879 36.4013 43.9309 36.4071 42.7225V41.1425C36.4042 40.7221 36.236 40.3198 35.9388 40.0224C35.6417 39.7251 35.2394 39.5566 34.8191 39.5535L34.8211 39.5435ZM40.8211 38.5225C40.2184 38.7192 39.6931 39.1011 39.32 39.6137C38.9469 40.1263 38.745 40.7435 38.7431 41.3775C38.7431 42.3555 38.6821 43.6215 40.2101 43.0015C41.7991 42.3555 43.9381 40.1375 43.5011 39.1515C43.0731 38.1825 41.6681 38.2345 40.8121 38.5145L40.8211 38.5225ZM45.5011 27.2515H42.7381C42.0258 27.2544 41.3435 27.5386 40.8398 28.0423C40.3362 28.5459 40.0519 29.2282 40.0491 29.9405V34.1315C40.0498 34.6521 40.257 35.1512 40.6252 35.5194C40.9933 35.8875 41.4924 36.0947 42.0131 36.0955H42.9291C44.2327 36.0907 45.4814 35.5702 46.4024 34.6475C47.3234 33.7248 47.8417 32.4751 47.8441 31.1715V29.5915C47.8425 28.969 47.5945 28.3724 47.1543 27.9323C46.7141 27.4921 46.1176 27.2441 45.4951 27.2425L45.5011 27.2515ZM35.7661 27.2515H31.2051C30.2796 27.2536 29.3926 27.6222 28.7382 28.2766C28.0838 28.931 27.7152 29.818 27.7131 30.7435V35.7375C27.7157 36.1876 27.8956 36.6184 28.2139 36.9367C28.5321 37.2549 28.963 37.4349 29.4131 37.4375H35.1051C35.8309 37.437 36.5271 37.1491 37.0412 36.6368C37.5554 36.1244 37.8459 35.4294 37.8491 34.7035V29.3295C37.8477 28.7788 37.6284 28.251 37.239 27.8616C36.8495 27.4722 36.3218 27.2528 35.7711 27.2515H35.7661ZM18.6291 13.0475H22.9771C23.7083 13.0459 24.4091 12.7547 24.9262 12.2377C25.4433 11.7206 25.7345 11.0197 25.7361 10.2885V7.2495C25.7342 6.73608 25.5294 6.24421 25.1664 5.88117C24.8033 5.51812 24.3115 5.31334 23.7981 5.3115H21.6101C20.4027 5.31546 19.2459 5.79684 18.3921 6.65058C17.5384 7.50433 17.057 8.66113 17.0531 9.8685V11.4575C17.0559 11.878 17.2243 12.2805 17.5216 12.5779C17.819 12.8753 18.2215 13.0436 18.6421 13.0465L18.6291 13.0475ZM12.6291 14.0685C13.2318 13.8718 13.757 13.4899 14.1301 12.9773C14.5032 12.4647 14.7051 11.8475 14.7071 11.2135C14.7071 10.2355 14.7681 8.9695 13.2401 9.5895C11.6511 10.2355 9.51205 12.4535 9.94905 13.4395C10.3771 14.4085 11.7821 14.3565 12.6381 14.0765L12.6291 14.0685ZM7.95505 25.3395H10.7141C11.4263 25.3366 12.1086 25.0524 12.6123 24.5487C13.1159 24.0451 13.4002 23.3628 13.4031 22.6505V18.4605C13.4023 17.9399 13.1951 17.4408 12.8269 17.0726C12.4588 16.7045 11.9597 16.4973 11.4391 16.4965H10.5221C9.21981 16.5007 7.97211 17.0199 7.05128 17.9407C6.13046 18.8616 5.61127 20.1093 5.60705 21.4115V22.9915C5.60864 23.614 5.85663 24.2106 6.29681 24.6507C6.73699 25.0909 7.33355 25.3389 7.95605 25.3405L7.95505 25.3395ZM17.6901 25.3395H22.2471C23.1725 25.3374 24.0595 24.9688 24.7139 24.3144C25.3684 23.66 25.7369 22.773 25.7391 21.8475V16.8535C25.7364 16.4034 25.5565 15.9726 25.2382 15.6543C24.92 15.3361 24.4891 15.1561 24.0391 15.1535H18.3441C17.6175 15.1548 16.9211 15.444 16.4073 15.9578C15.8936 16.4715 15.6044 17.1679 15.6031 17.8945V23.2635C15.6044 23.8142 15.8237 24.342 16.2131 24.7314C16.6026 25.1208 17.1303 25.3402 17.6811 25.3415L17.6901 25.3395ZM18.6331 39.5395H22.9811C23.713 39.5414 24.4143 39.8333 24.9313 40.3515C25.4483 40.8696 25.7388 41.5716 25.7391 42.3035V45.3415C25.7372 45.8549 25.5324 46.3468 25.1694 46.7098C24.8063 47.0729 24.3145 47.2777 23.8011 47.2795H21.6101C20.4027 47.2755 19.2459 46.7942 18.3921 45.9404C17.5384 45.0867 17.057 43.9299 17.0531 42.7225V41.1425C17.0559 40.722 17.2243 40.3195 17.5216 40.0221C17.819 39.7247 18.2215 39.5564 18.6421 39.5535L18.6331 39.5395ZM12.6331 38.5185C13.2358 38.7152 13.761 39.0971 14.1341 39.6097C14.5072 40.1223 14.7091 40.7395 14.7111 41.3735C14.7111 42.3515 14.7721 43.6175 13.2441 42.9975C11.6551 42.3515 9.51605 40.1335 9.95305 39.1475C10.3811 38.1785 11.7861 38.2305 12.6421 38.5105L12.6331 38.5185ZM7.95505 27.2515H10.7141C11.4263 27.2544 12.1086 27.5386 12.6123 28.0423C13.1159 28.5459 13.4002 29.2282 13.4031 29.9405V34.1315C13.4023 34.6521 13.1951 35.1512 12.8269 35.5194C12.4588 35.8875 11.9597 36.0947 11.4391 36.0955H10.5221C9.21842 36.0907 7.96967 35.5702 7.0487 34.6475C6.12773 33.7248 5.60942 32.4751 5.60705 31.1715V29.5915C5.6089 28.9693 5.85687 28.3732 6.29681 27.9333C6.73674 27.4933 7.33289 27.2453 7.95505 27.2435V27.2515Z" fill="white"/>
<path d="M62.7921 13.8165V18.1825H75.1621C75.6052 18.1497 76.0503 18.2137 76.4663 18.3701C76.8822 18.5264 77.2592 18.7714 77.5711 19.088C77.8829 19.4047 78.1222 19.7853 78.2722 20.2036C78.4223 20.6219 78.4796 21.0679 78.4401 21.5105C78.4818 21.962 78.4258 22.4173 78.2758 22.8452C78.1258 23.2731 77.8855 23.6637 77.571 23.9904C77.2565 24.3171 76.8754 24.5723 76.4535 24.7384C76.0316 24.9046 75.5788 24.978 75.1261 24.9535H66.562C63.957 24.9535 62.826 26.0985 62.826 28.9115V38.7895H66.9851V29.7575C66.9851 29.3135 67.2001 29.1275 67.5851 29.1275H74.9851C80.5541 29.1275 82.6291 25.0545 82.6291 21.2825C82.6291 17.2885 80.3391 13.8095 74.9851 13.8095H62.799L62.7921 13.8165ZM100.914 19.1495C100.988 18.8926 101.147 18.6685 101.365 18.5137C101.583 18.359 101.847 18.2827 102.114 18.2975C102.376 18.2822 102.636 18.3589 102.848 18.5145C103.059 18.67 103.21 18.8946 103.274 19.1495L110.339 38.7975H114.956L107.082 17.0385C106.237 14.7055 104.613 13.8175 102.15 13.8175C99.6501 13.8175 98.0201 14.7055 97.1501 17.0385L88.9621 38.7975H93.5431L100.914 19.1495ZM123.146 13.8165V18.1825H136.18C136.623 18.1449 137.069 18.2041 137.486 18.3559C137.904 18.5078 138.284 18.7488 138.599 19.0621C138.914 19.3754 139.158 19.7535 139.312 20.1703C139.467 20.587 139.529 21.0324 139.494 21.4755C139.54 21.9295 139.487 22.388 139.338 22.8196C139.19 23.2512 138.951 23.6457 138.636 23.9761C138.321 24.3065 137.939 24.5649 137.515 24.7338C137.091 24.9027 136.636 24.978 136.18 24.9545H126.911C124.306 24.9545 123.175 26.0995 123.175 28.9125V38.7905H127.334V29.7575C127.334 29.3135 127.549 29.1275 127.934 29.1275H134.134L139.562 38.7825H144.179L138.646 28.7905C142.275 27.7165 143.685 24.3905 143.685 21.2745C143.685 17.2805 141.395 13.8015 136.041 13.8015H123.141L123.146 13.8165ZM150.274 13.8165V18.1825H157.217V38.7975H161.411V18.1835H168.354V13.8165H150.281H150.274ZM176.843 13.8165V38.7965H181.002V13.8165H176.843ZM200.872 19.1495C200.946 18.8926 201.105 18.6685 201.323 18.5137C201.541 18.359 201.805 18.2827 202.072 18.2975C202.334 18.2822 202.594 18.3589 202.806 18.5145C203.017 18.67 203.168 18.8946 203.232 19.1495L210.297 38.7975H214.914L207.04 17.0385C206.195 14.7055 204.571 13.8175 202.108 13.8175C199.608 13.8175 197.978 14.7055 197.108 17.0385L188.927 38.7975H193.508L200.872 19.1495ZM231.736 13.8165C225.43 13.8165 222.961 17.4455 222.961 22.4415V38.7975H227.12V28.9195H241.457V24.7755H227.119V22.4065C227.119 20.0735 228.243 18.1905 232.019 18.1905H241.603V13.8235H231.74L231.736 13.8165Z" fill="white"/>
</svg>
