<svg width="20" height="20" viewBox="0 0 20 20" fill="none" xmlns="http://www.w3.org/2000/svg">
<path fill-rule="evenodd" clip-rule="evenodd" d="M3.19332 6.109V16.764H17.3993V6.109H3.19332ZM16.2153 2.558H18.5833C18.7413 2.54836 18.8996 2.57239 19.0476 2.62848C19.1956 2.68457 19.33 2.77145 19.4419 2.88338C19.5539 2.99531 19.6407 3.12973 19.6968 3.27775C19.7529 3.42576 19.777 3.58401 19.7673 3.742V17.947C19.777 18.105 19.7529 18.2632 19.6968 18.4113C19.6407 18.5593 19.5539 18.6937 19.4419 18.8056C19.33 18.9175 19.1956 19.0044 19.0476 19.0605C18.8996 19.1166 18.7413 19.1406 18.5833 19.131H2.00932C1.85132 19.1406 1.69308 19.1166 1.54506 19.0605C1.39704 19.0044 1.26262 18.9175 1.1507 18.8056C1.03877 18.6937 0.951885 18.5593 0.895793 18.4113C0.8397 18.2632 0.815679 18.105 0.825317 17.947V3.741C0.815826 3.58309 0.839957 3.42496 0.896116 3.27706C0.952274 3.12916 1.03918 2.99487 1.15109 2.88305C1.263 2.77123 1.39737 2.68444 1.54531 2.62841C1.69326 2.57238 1.85141 2.54838 2.00932 2.558H4.37732V1.374C4.36769 1.2161 4.39169 1.05794 4.44772 0.91C4.50376 0.762056 4.59055 0.627688 4.70237 0.515777C4.81418 0.403865 4.94848 0.316959 5.09637 0.260801C5.24427 0.204642 5.4024 0.180511 5.56032 0.190002C5.71831 0.180364 5.87655 0.204385 6.02457 0.260478C6.17259 0.31657 6.30701 0.403454 6.41894 0.515382C6.53086 0.62731 6.61775 0.761729 6.67384 0.909747C6.72993 1.05776 6.75396 1.21601 6.74432 1.374V2.558H13.8443V1.374C13.8443 1.05999 13.9691 0.75883 14.1911 0.536787C14.4131 0.314744 14.7143 0.190002 15.0283 0.190002C15.3423 0.190002 15.6435 0.314744 15.8655 0.536787C16.0876 0.75883 16.2123 1.05999 16.2123 1.374L16.2153 2.558ZM15.0313 14.396H12.6633V12.028H15.0313V14.396ZM11.4793 14.396H9.11232V12.028H11.4803L11.4793 14.396ZM15.0313 10.845H12.6633V8.477H15.0313V10.845ZM11.4793 10.845H9.11232V8.477H11.4803L11.4793 10.845ZM7.92532 14.396H5.56032V12.028H7.92532V14.396Z" fill="#333333"/>
</svg>
