<svg width="22" height="29" viewBox="0 0 22 29" fill="none" xmlns="http://www.w3.org/2000/svg">
<path d="M5.57665 28.7156C3.80865 26.9681 2.40618 24.8933 1.44933 22.6098C0.492485 20.3264 0 17.879 0 15.4073C0 12.9357 0.492485 10.4883 1.44933 8.20485C2.40618 5.9214 3.80865 3.84663 5.57665 2.09904C5.7341 1.9434 5.94024 1.84509 6.16146 1.82013C6.38268 1.79517 6.60593 1.84504 6.79481 1.96161L10.512 4.25613C10.7077 4.37712 10.8542 4.56221 10.9259 4.77909C10.9977 4.99597 10.9901 5.23086 10.9045 5.44277L9.04801 10.0318C8.9686 10.2277 8.82695 10.3928 8.6444 10.5022C8.46185 10.6117 8.24828 10.6595 8.03585 10.6385L4.83236 10.3234C3.63876 13.61 3.63876 17.2047 4.83236 20.4912L8.02992 20.1753C8.24235 20.1543 8.45592 20.2022 8.63847 20.3116C8.82102 20.421 8.96266 20.5861 9.04208 20.782L10.8986 25.3711C10.9841 25.583 10.9917 25.8179 10.92 26.0348C10.8483 26.2516 10.7018 26.4367 10.5061 26.5577L6.79481 28.8522C6.60593 28.9688 6.38268 29.0187 6.16146 28.9937C5.94024 28.9688 5.7341 28.8713 5.57665 28.7156ZM14.1571 5.40925C14.4905 5.96777 14.6664 6.60441 14.6664 7.25291C14.6664 7.90141 14.4905 8.53806 14.1571 9.09657C14.1042 9.18514 14.0316 9.26073 13.945 9.3177C13.8583 9.37466 13.7597 9.41154 13.6566 9.42556C13.5535 9.43958 13.4485 9.43039 13.3495 9.39867C13.2505 9.36695 13.16 9.31353 13.0848 9.24239L12.7457 8.91807C12.6371 8.81455 12.5657 8.67881 12.5423 8.53148C12.5189 8.38415 12.5448 8.23329 12.616 8.10184C12.7556 7.84046 12.8286 7.54934 12.8286 7.25375C12.8286 6.95816 12.7556 6.66704 12.616 6.40567C12.5448 6.27422 12.5189 6.12336 12.5423 5.97603C12.5657 5.8287 12.6371 5.69295 12.7457 5.58943L13.0848 5.26511C13.16 5.19397 13.2505 5.14055 13.3495 5.10883C13.4485 5.07712 13.5535 5.06793 13.6566 5.08195C13.7597 5.09597 13.8583 5.13284 13.945 5.18981C14.0316 5.24677 14.1042 5.32236 14.1571 5.41093V5.40925ZM19.418 0.244488C21.0857 2.2072 22 4.68839 22 7.25166C22 9.81493 21.0857 12.2961 19.418 14.2588C19.3572 14.3302 19.2823 14.3884 19.1978 14.43C19.1133 14.4716 19.0211 14.4956 18.9269 14.5005C18.8327 14.5055 18.7384 14.4913 18.65 14.4588C18.5615 14.4263 18.4807 14.3762 18.4126 14.3116L18.0803 13.9965C17.9543 13.8773 17.8788 13.7152 17.8688 13.5431C17.8589 13.3709 17.9154 13.2014 18.0269 13.0688C19.4059 11.4367 20.1613 9.37775 20.1613 7.25124C20.1613 5.12472 19.4059 3.06574 18.0269 1.43365C17.9148 1.30104 17.8579 1.13126 17.8676 0.958707C17.8774 0.78615 17.9531 0.623708 18.0795 0.504276L18.4118 0.189178C18.4801 0.124619 18.561 0.0746094 18.6497 0.042249C18.7383 0.00988858 18.8327 -0.00413336 18.927 0.00105209C19.0214 0.00623753 19.1136 0.0305199 19.1981 0.0723944C19.2825 0.114269 19.3574 0.172843 19.418 0.244488ZM16.785 2.78958C17.7898 4.06475 18.3353 5.63489 18.3353 7.25124C18.3353 8.86759 17.7898 10.4377 16.785 11.7129C16.7257 11.7883 16.6509 11.8506 16.5656 11.8957C16.4804 11.9408 16.3865 11.9677 16.29 11.9746C16.1936 11.9816 16.0967 11.9684 16.0058 11.9361C15.9148 11.9037 15.8317 11.8528 15.7619 11.7866L15.4287 11.4707C15.3062 11.3556 15.231 11.1999 15.2174 11.0334C15.2038 10.8668 15.2527 10.7012 15.355 10.5682C16.094 9.61661 16.4946 8.45049 16.4946 7.25082C16.4946 6.05115 16.094 4.88503 15.355 3.93349C15.253 3.8005 15.2041 3.63504 15.2177 3.46871C15.2313 3.30238 15.3064 3.14683 15.4287 3.03177L15.7619 2.71583C15.8317 2.6497 15.9148 2.5988 16.0058 2.56641C16.0967 2.53403 16.1936 2.52089 16.29 2.52784C16.3865 2.53479 16.4804 2.56168 16.5656 2.60677C16.6509 2.65185 16.7257 2.71413 16.785 2.78958Z" fill="white"/>
</svg>
