<svg width="37" height="32" viewBox="0 0 37 32" fill="none" xmlns="http://www.w3.org/2000/svg">
<path d="M33.4248 0.227051H24.4248C23.5298 0.227316 22.6715 0.58298 22.0386 1.21586C21.4057 1.84874 21.0501 2.70703 21.0498 3.60205V12.6021C21.0501 13.4971 21.4057 14.3554 22.0386 14.9882C22.6715 15.6211 23.5298 15.9768 24.4248 15.9771H30.0498V20.4771C30.0498 21.6705 29.5757 22.8151 28.7318 23.659C27.8879 24.5029 26.7433 24.9771 25.5498 24.9771H24.9878C24.7659 24.9764 24.5462 25.0196 24.3411 25.1042C24.136 25.1888 23.9496 25.3131 23.7927 25.47C23.6359 25.6269 23.5115 25.8132 23.427 26.0183C23.3424 26.2234 23.2991 26.4432 23.2998 26.6651V30.0401C23.2991 30.2619 23.3424 30.4817 23.427 30.6868C23.5115 30.8919 23.6359 31.0782 23.7927 31.2351C23.9496 31.392 24.136 31.5163 24.3411 31.6009C24.5462 31.6855 24.7659 31.7287 24.9878 31.7281H25.5508C27.0283 31.7283 28.4913 31.4375 29.8564 30.8721C31.2214 30.3068 32.4617 29.478 33.5063 28.4332C34.551 27.3883 35.3795 26.1479 35.9446 24.7828C36.5097 23.4176 36.8003 21.9545 36.7998 20.4771V3.60205C36.7995 2.70703 36.4439 1.84874 35.811 1.21586C35.1781 0.58298 34.3198 0.227316 33.4248 0.227051ZM13.1748 0.227051H4.1748C3.27978 0.227316 2.42149 0.58298 1.78861 1.21586C1.15573 1.84874 0.80007 2.70703 0.799805 3.60205L0.799805 12.6021C0.80007 13.4971 1.15573 14.3554 1.78861 14.9882C2.42149 15.6211 3.27978 15.9768 4.1748 15.9771H9.7998V20.4771C9.7998 21.6705 9.3257 22.8151 8.48179 23.659C7.63787 24.5029 6.49328 24.9771 5.2998 24.9771H4.7378C4.51595 24.9764 4.29615 25.0196 4.09105 25.1042C3.88596 25.1888 3.69961 25.3131 3.54274 25.47C3.38586 25.6269 3.26155 25.8132 3.17695 26.0183C3.09236 26.2234 3.04914 26.4432 3.0498 26.6651V30.0401C3.04928 30.2618 3.09258 30.4815 3.17724 30.6865C3.2619 30.8915 3.38623 31.0777 3.54309 31.2345C3.69996 31.3912 3.88626 31.5155 4.09129 31.6C4.29632 31.6845 4.51603 31.7277 4.7378 31.7271H5.2998C6.77729 31.7274 8.24037 31.4367 9.60546 30.8715C10.9706 30.3063 12.2109 29.4776 13.2556 28.4329C14.3004 27.3881 15.129 26.1478 15.6943 24.7827C16.2595 23.4176 16.5502 21.9545 16.5498 20.4771V3.60205C16.5495 2.70703 16.1939 1.84874 15.561 1.21586C14.9281 0.58298 14.0698 0.227316 13.1748 0.227051Z" fill="#FBD132"/>
</svg>
