<svg width="22" height="27" viewBox="0 0 22 27" fill="none" xmlns="http://www.w3.org/2000/svg">
<path d="M9.70908 25.624C9.57477 25.6245 9.44076 25.6114 9.30908 25.585H9.28708C9.16261 25.5568 9.04108 25.517 8.92408 25.466L8.89308 25.451C8.77967 25.4005 8.6712 25.3396 8.56908 25.269C8.45661 25.1918 8.3515 25.1045 8.25508 25.008C8.1604 24.9084 8.07597 24.7995 8.00308 24.683C7.92895 24.5661 7.86505 24.4429 7.81208 24.315C7.76051 24.1856 7.72101 24.0517 7.69408 23.915C7.66831 23.7778 7.65559 23.6386 7.65608 23.499H7.65908V18.314H0.559082V15.036C0.962244 15.0271 1.34543 14.8587 1.62471 14.5678C1.90399 14.2769 2.05659 13.8872 2.04908 13.484C2.05659 13.0808 1.90399 12.6911 1.62471 12.4002C1.34543 12.1093 0.962244 11.9409 0.559082 11.932V8.74H7.65908V3.192C7.65983 3.05241 7.67322 2.91317 7.69908 2.776C7.72717 2.63938 7.76733 2.50552 7.81908 2.376C7.86986 2.24851 7.93353 2.12655 8.00908 2.012C8.08239 1.89662 8.16607 1.78817 8.25908 1.688C8.35478 1.59005 8.46034 1.50225 8.57408 1.426C8.68653 1.34939 8.80529 1.28248 8.92908 1.226C9.05291 1.17439 9.18108 1.13389 9.31208 1.105C9.44375 1.07848 9.57777 1.06542 9.71208 1.066H19.3791C19.5134 1.06545 19.6474 1.07852 19.7791 1.105C19.9091 1.13466 20.0363 1.17582 20.1591 1.228C20.2839 1.28252 20.4028 1.34952 20.5141 1.428C20.6264 1.50577 20.7315 1.59345 20.8281 1.69C21.0195 1.88836 21.1701 2.12248 21.2711 2.379L21.2821 2.41C21.3285 2.52929 21.3643 2.65243 21.3891 2.778C21.4147 2.91517 21.4275 3.05445 21.4271 3.194V23.498C21.4276 23.6376 21.4149 23.7768 21.3891 23.914C21.3622 24.0507 21.3227 24.1846 21.2711 24.314C21.2194 24.4425 21.1555 24.5658 21.0801 24.682C21.0055 24.7973 20.9212 24.906 20.8281 25.007C20.7332 25.1051 20.6279 25.1926 20.5141 25.268C20.4022 25.3456 20.2834 25.4125 20.1591 25.468C20.0354 25.5225 19.9064 25.5637 19.7741 25.591C19.6424 25.6175 19.5084 25.6306 19.3741 25.63L9.70908 25.624ZM8.70908 23.498C8.70952 23.5651 8.71588 23.632 8.72808 23.698C8.74253 23.766 8.76191 23.8328 8.78608 23.898C8.81176 23.9598 8.84253 24.0193 8.87808 24.076C8.91569 24.1323 8.95783 24.1855 9.00408 24.235C9.05096 24.284 9.10292 24.3279 9.15908 24.366C9.20763 24.3991 9.2588 24.4282 9.31208 24.453L9.33508 24.461C9.39056 24.4847 9.44815 24.5031 9.50708 24.516H9.52208C9.58599 24.5287 9.65093 24.5354 9.71608 24.536H19.3831C19.4482 24.5356 19.5132 24.5289 19.5771 24.516C19.642 24.5047 19.7051 24.4852 19.7651 24.458C19.8246 24.4292 19.8818 24.3958 19.9361 24.358C19.9905 24.3181 20.042 24.2743 20.0901 24.227C20.1382 24.1791 20.1805 24.1258 20.2161 24.068C20.2514 24.0112 20.2821 23.9517 20.3081 23.89C20.3319 23.8248 20.351 23.758 20.3651 23.69C20.3773 23.624 20.3836 23.5571 20.3841 23.49V21.566H8.71508L8.70908 23.498ZM20.3871 20.476V5.144H8.71508L8.72708 8.7L8.70708 8.739H15.7451V8.816H15.7541L15.7451 8.916V11.931C15.3424 11.9407 14.9599 12.1096 14.6814 12.4006C14.4029 12.6917 14.251 13.0812 14.2591 13.484C14.2583 13.7803 14.3404 14.0709 14.4961 14.323C14.6071 14.442 14.7171 14.567 14.8191 14.696C15.0791 14.915 15.4081 15.0354 15.7481 15.036V18.315H8.72608L8.71808 20.476H20.3871ZM14.6521 17.182V15.915C14.2037 15.6865 13.8272 15.3385 13.5642 14.9093C13.3013 14.4802 13.1621 13.9868 13.1621 13.4835C13.1621 12.9802 13.3013 12.4868 13.5642 12.0577C13.8272 11.6285 14.2037 11.2805 14.6521 11.052V9.873H10.4311V10.716C10.4355 10.7874 10.4253 10.8589 10.401 10.9262C10.3767 10.9935 10.3389 11.0551 10.2899 11.1073C10.2409 11.1594 10.1817 11.2009 10.1161 11.2293C10.0504 11.2577 9.97962 11.2724 9.90808 11.2724C9.83654 11.2724 9.76576 11.2577 9.7001 11.2293C9.63444 11.2009 9.57529 11.1594 9.52629 11.1073C9.47729 11.0551 9.43948 10.9935 9.4152 10.9262C9.39091 10.8589 9.38066 10.7874 9.38508 10.716V9.873H1.65108V11.053C2.10154 11.2788 2.47983 11.6262 2.74315 12.0558C3.00646 12.4854 3.14431 12.9801 3.14108 13.484C3.14431 13.9879 3.00646 14.4826 2.74315 14.9122C2.47983 15.3418 2.10154 15.6892 1.65108 15.915V17.182H9.38408V16.394C9.37966 16.3226 9.38991 16.251 9.4142 16.1838C9.43848 16.1165 9.47629 16.0549 9.52529 16.0027C9.57429 15.9506 9.63344 15.9091 9.6991 15.8807C9.76476 15.8523 9.83554 15.8376 9.90708 15.8376C9.97862 15.8376 10.0494 15.8523 10.1151 15.8807C10.1807 15.9091 10.2399 15.9506 10.2889 16.0027C10.3379 16.0549 10.3757 16.1165 10.4 16.1838C10.4242 16.251 10.4345 16.3226 10.4301 16.394V17.182H14.6521ZM20.3871 4.06V3.192C20.3869 3.12489 20.3805 3.05795 20.3681 2.992C20.3583 2.93223 20.3415 2.87383 20.3181 2.818L20.3111 2.798C20.2611 2.67281 20.187 2.55865 20.0931 2.462C20.0469 2.41259 19.9953 2.36864 19.9391 2.331C19.8851 2.29277 19.8279 2.25931 19.7681 2.231C19.7061 2.20609 19.6422 2.18603 19.5771 2.171C19.5112 2.15833 19.4442 2.15197 19.3771 2.152H9.71708C9.64995 2.15171 9.58296 2.15808 9.51708 2.171C9.452 2.18617 9.38815 2.20622 9.32608 2.231C9.26592 2.2592 9.20836 2.29267 9.15408 2.331C9.09992 2.37083 9.04878 2.41462 9.00108 2.462C8.95366 2.50974 8.91142 2.56236 8.87508 2.619C8.84016 2.67638 8.80941 2.7362 8.78308 2.798C8.75945 2.86317 8.74074 2.93003 8.72708 2.998C8.71455 3.06395 8.70785 3.13087 8.70708 3.198V4.066L20.3871 4.06ZM13.4221 23.174C13.2822 23.168 13.1501 23.1082 13.0533 23.0071C12.9564 22.906 12.9024 22.7715 12.9024 22.6315C12.9024 22.4915 12.9564 22.3569 13.0533 22.2559C13.1501 22.1548 13.2822 22.095 13.4221 22.089H15.4851C15.6249 22.095 15.7571 22.1548 15.8539 22.2559C15.9507 22.3569 16.0048 22.4915 16.0048 22.6315C16.0048 22.7715 15.9507 22.906 15.8539 23.0071C15.7571 23.1082 15.6249 23.168 15.4851 23.174H13.4221ZM5.14708 14.957C5.00723 14.951 4.8751 14.8912 4.77827 14.7901C4.68144 14.689 4.62738 14.5545 4.62738 14.4145C4.62738 14.2745 4.68144 14.1399 4.77827 14.0389C4.8751 13.9378 5.00723 13.878 5.14708 13.872H7.13108C7.27093 13.878 7.40306 13.9378 7.49989 14.0389C7.59673 14.1399 7.65078 14.2745 7.65078 14.4145C7.65078 14.5545 7.59673 14.689 7.49989 14.7901C7.40306 14.8912 7.27093 14.951 7.13108 14.957H5.14708ZM9.38408 14.157V12.609C9.37966 12.5376 9.38991 12.466 9.4142 12.3988C9.43848 12.3315 9.47629 12.2699 9.52529 12.2177C9.57429 12.1656 9.63344 12.1241 9.6991 12.0957C9.76476 12.0673 9.83554 12.0526 9.90708 12.0526C9.97862 12.0526 10.0494 12.0673 10.1151 12.0957C10.1807 12.1241 10.2399 12.1656 10.2889 12.2177C10.3379 12.2699 10.3757 12.3315 10.4 12.3988C10.4242 12.466 10.4345 12.5376 10.4301 12.609V14.154C10.4345 14.2254 10.4242 14.2969 10.4 14.3642C10.3757 14.4315 10.3379 14.4931 10.2889 14.5453C10.2399 14.5974 10.1807 14.6389 10.1151 14.6673C10.0494 14.6957 9.97862 14.7104 9.90708 14.7104C9.83554 14.7104 9.76476 14.6957 9.6991 14.6673C9.63344 14.6389 9.57429 14.5974 9.52529 14.5453C9.47629 14.4931 9.43848 14.4315 9.4142 14.3642C9.38991 14.2969 9.37966 14.2254 9.38408 14.154V14.157ZM5.14708 12.826C5.00723 12.82 4.8751 12.7602 4.77827 12.6591C4.68144 12.558 4.62738 12.4235 4.62738 12.2835C4.62738 12.1435 4.68144 12.0089 4.77827 11.9079C4.8751 11.8068 5.00723 11.747 5.14708 11.741H7.13108C7.27093 11.747 7.40306 11.8068 7.49989 11.9079C7.59673 12.0089 7.65078 12.1435 7.65078 12.2835C7.65078 12.4235 7.59673 12.558 7.49989 12.6591C7.40306 12.7602 7.27093 12.82 7.13108 12.826H5.14708Z" fill="#333333" stroke="#333333"/>
</svg>
