<svg width="38" height="37" viewBox="0 0 38 37" fill="none" xmlns="http://www.w3.org/2000/svg">
<path d="M16.982 2.25101L12.391 11.56L2.11801 13.06C1.70266 13.1209 1.31261 13.2967 0.991912 13.5675C0.671211 13.8384 0.43264 14.1935 0.303144 14.5928C0.173648 14.9921 0.158387 15.4197 0.259086 15.8272C0.359785 16.2347 0.572431 16.606 0.873005 16.899L8.30501 24.139L6.55 34.369C6.47941 34.7824 6.52581 35.2073 6.68396 35.5957C6.8421 35.9841 7.1057 36.3206 7.44498 36.5671C7.78425 36.8136 8.1857 36.9603 8.60396 36.9907C9.02223 37.0211 9.44066 36.9339 9.81201 36.739L19.002 31.909L28.192 36.739C28.5633 36.9324 28.9811 37.0183 29.3985 36.9872C29.816 36.9562 30.2165 36.8092 30.555 36.563C30.8935 36.3167 31.1566 35.9809 31.3147 35.5934C31.4728 35.2058 31.5197 34.7818 31.45 34.369L29.695 24.139L37.127 16.899C37.4276 16.606 37.6402 16.2347 37.7409 15.8272C37.8416 15.4197 37.8264 14.9921 37.6969 14.5928C37.5674 14.1935 37.3288 13.8384 37.0081 13.5675C36.6874 13.2967 36.2973 13.1209 35.882 13.06L25.609 11.56L21.018 2.25101C20.8317 1.87496 20.5441 1.55844 20.1875 1.33715C19.831 1.11585 19.4197 0.998596 19 0.998596C18.5804 0.998596 18.169 1.11585 17.8125 1.33715C17.4559 1.55844 17.1683 1.87496 16.982 2.25101Z" fill="url(#paint0_linear_6_100)"/>
<defs>
<linearGradient id="paint0_linear_6_100" x1="19" y1="0.998596" x2="19" y2="36.9966" gradientUnits="userSpaceOnUse">
<stop stop-color="#FBD132"/>
<stop offset="1" stop-color="#FF8503"/>
</linearGradient>
</defs>
</svg>
