<svg id="twitter_icon" xmlns="http://www.w3.org/2000/svg" width="28.916" height="23.551" viewBox="0 0 28.916 23.551">
  <path id="Trazado_439" data-name="Trazado 439" d="M1333.013,26.91a12.646,12.646,0,0,1-3,.819c.462-.077,1.082-.915,1.354-1.254a5.177,5.177,0,0,0,.925-1.741.115.115,0,0,0-.021-.149.178.178,0,0,0-.16.013,14.723,14.723,0,0,1-3.414,1.3.231.231,0,0,1-.237-.063,2.693,2.693,0,0,0-.3-.3,6.053,6.053,0,0,0-1.652-1.012,5.746,5.746,0,0,0-2.535-.407,6.043,6.043,0,0,0-2.4.679,6.2,6.2,0,0,0-1.94,1.584,5.974,5.974,0,0,0-1.157,2.319,6.282,6.282,0,0,0-.061,2.449c.019.137.007.156-.118.137-4.684-.7-8.565-2.373-11.718-5.964-.136-.156-.211-.156-.324.012-1.378,2.067-.708,5.388,1.014,7.021.229.218.466.435.719.633a5.96,5.96,0,0,1-2.26-.633c-.137-.087-.205-.037-.217.118a3.573,3.573,0,0,0,.037.672,6.009,6.009,0,0,0,3.7,4.789,3.518,3.518,0,0,0,.752.23,6.714,6.714,0,0,1-2.218.069c-.162-.032-.224.05-.162.2a6.238,6.238,0,0,0,4.66,3.9c.211.037.422.037.634.087-.011.019-.025.019-.037.037-.524.8-2.337,1.392-3.183,1.687a11.408,11.408,0,0,1-4.832.618c-.26-.038-.314-.035-.385,0s-.009.107.075.174c.329.217.665.411,1.007.6a15.949,15.949,0,0,0,3.229,1.292c5.806,1.6,12.345.425,16.7-3.906,3.423-3.4,4.624-8.092,4.624-12.787,0-.184.217-.285.346-.382a12.54,12.54,0,0,0,2.512-2.365c.149-.2.388-.379.388-.453V26.91C1333.368,26.835,1333.128,26.856,1333.013,26.91Z" transform="translate(-1304.451 -23.96)" fill="#fbd132"/>
  <path id="Trazado_440" data-name="Trazado 440" d="M1312.2,45.339Z" transform="translate(-1303.76 -22.066)" fill="#fbd132" fill-rule="evenodd"/>
  <path id="Trazado_441" data-name="Trazado 441" d="M1312.217,45.339c-.036,0-.468,0,0,0Z" transform="translate(-1303.778 -22.066)" fill="#fbd132" fill-rule="evenodd"/>
  <path id="Trazado_442" data-name="Trazado 442" d="M1313.079,45.364c0-.048.5,0,0,0C1313.079,45.339,1313.14,45.364,1313.079,45.364Z" transform="translate(-1303.682 -22.066)" fill="#fbd132" fill-rule="evenodd"/>
  <path id="Trazado_443" data-name="Trazado 443" d="M1322.317,23.972a.1.1,0,0,1-.118,0Z" transform="translate(-1302.869 -23.972)" fill="#fbd132" fill-rule="evenodd"/>
</svg>
