<svg width="30" height="25" viewBox="0 0 30 25" fill="none" xmlns="http://www.w3.org/2000/svg">
<path d="M28.768 3.46207C27.8055 3.85746 26.7979 4.13254 25.768 4.28108C26.23 4.20408 26.85 3.36608 27.122 3.02708C27.539 2.51135 27.8531 1.9203 28.0471 1.28607C28.062 1.26286 28.0681 1.23502 28.0643 1.20766C28.0604 1.1803 28.0469 1.15524 28.0261 1.13707C28.0002 1.12656 27.9723 1.12226 27.9445 1.12451C27.9167 1.12677 27.8898 1.13553 27.866 1.15007C26.7864 1.72346 25.6396 2.16015 24.4521 2.45008C24.4107 2.46288 24.3664 2.46376 24.3245 2.45262C24.2826 2.44148 24.2446 2.41876 24.215 2.38707C24.1231 2.27934 24.0228 2.17903 23.9151 2.08707C23.4223 1.66323 22.8646 1.32153 22.2631 1.07508C21.4596 0.749945 20.593 0.610804 19.7281 0.668074C18.8896 0.725052 18.0721 0.956311 17.3281 1.34708C16.5804 1.73761 15.9203 2.2766 15.3881 2.93107C14.8374 3.6101 14.4424 4.40173 14.231 5.25008C14.0502 6.0545 14.0295 6.88665 14.1701 7.69907C14.1891 7.83607 14.1771 7.85508 14.0521 7.83608C9.36807 7.13608 5.48705 5.46307 2.33405 1.87207C2.19805 1.71607 2.12307 1.71608 2.01007 1.88408C0.632074 3.95108 1.30211 7.27208 3.02411 8.90508C3.25311 9.12308 3.49011 9.34008 3.74311 9.53808C2.95526 9.47895 2.18703 9.26378 1.4831 8.90508C1.3461 8.81808 1.27805 8.86808 1.26605 9.02308C1.25722 9.24774 1.26959 9.47274 1.30304 9.69508C1.44097 10.7493 1.85614 11.748 2.50617 12.5894C3.15619 13.4307 4.01786 14.0845 5.00312 14.4841C5.2444 14.5886 5.49659 14.6658 5.75507 14.7141C5.02468 14.8599 4.27509 14.8833 3.53705 14.7831C3.37505 14.7511 3.31306 14.8331 3.37506 14.9831C3.75492 15.9765 4.38245 16.8563 5.19806 17.5389C6.01367 18.2215 6.99031 18.6842 8.0351 18.8831C8.2461 18.9201 8.45701 18.9201 8.66901 18.9701C8.65801 18.9891 8.64402 18.9891 8.63202 19.0071C8.10802 19.8071 6.29504 20.3991 5.44904 20.6941C3.90165 21.2456 2.2535 21.4564 0.617129 21.3121C0.357129 21.2741 0.303119 21.2771 0.232119 21.3121C0.161119 21.3471 0.223071 21.4191 0.307071 21.4861C0.636071 21.7031 0.972029 21.8971 1.31403 22.0861C2.34005 22.6332 3.42282 23.0664 4.54303 23.3781C10.349 24.9781 16.8881 23.8031 21.2431 19.4721C24.6661 16.0721 25.8671 11.3801 25.8671 6.68507C25.8671 6.50107 26.0841 6.40007 26.2131 6.30307C27.1554 5.63424 28.0007 4.83838 28.725 3.93807C28.874 3.73807 29.1131 3.55908 29.1131 3.48508V3.46207C29.1231 3.38707 28.883 3.40808 28.768 3.46207Z" fill="white"/>
</svg>
