<svg width="28" height="23" viewBox="0 0 28 23" fill="none" xmlns="http://www.w3.org/2000/svg">
<path d="M27.2722 2.98951C26.3861 3.3552 25.4584 3.60989 24.5101 3.74783C24.9358 3.6758 25.507 2.90047 25.7592 2.58734C26.1435 2.10985 26.4328 1.5627 26.6114 0.975645C26.6254 0.954219 26.6312 0.928433 26.6277 0.903055C26.6242 0.877676 26.6117 0.85442 26.5924 0.837586C26.5686 0.827799 26.5429 0.823785 26.5172 0.825871C26.4916 0.827957 26.4669 0.836085 26.445 0.849592C25.4494 1.38176 24.3915 1.78738 23.296 2.05711C23.2579 2.06891 23.2172 2.06972 23.1786 2.05947C23.14 2.04921 23.1051 2.02829 23.0777 1.99908C22.9933 1.89785 22.901 1.80351 22.8017 1.71696C22.347 1.32471 21.8323 1.00853 21.2775 0.780562C20.5367 0.479488 19.7376 0.350548 18.9401 0.4034C18.1656 0.455647 17.4105 0.669638 16.7232 1.03167C16.0318 1.39236 15.4212 1.89112 14.9289 2.4973C14.4208 3.12587 14.0564 3.85876 13.8614 4.64422C13.6948 5.38887 13.6758 6.15918 13.8056 6.91119C13.8225 7.03824 13.8116 7.05525 13.6969 7.03824C9.37683 6.39296 5.79634 4.8373 2.8887 1.51688C2.7641 1.37282 2.68941 1.37282 2.58974 1.52788C2.02802 2.56855 1.81559 3.76327 1.98402 4.93471C2.15245 6.10614 2.69276 7.19184 3.52471 8.03066C3.73703 8.23075 3.95435 8.43084 4.18859 8.61692C3.46198 8.56207 2.75342 8.36279 2.10424 8.03066C1.97765 7.94963 1.9149 7.99665 1.90493 8.13971C1.8969 8.34774 1.90819 8.55607 1.93876 8.76198C2.0672 9.73888 2.45197 10.664 3.05357 11.4427C3.65518 12.2214 4.45209 12.8257 5.36279 13.1939C5.58667 13.291 5.82068 13.3625 6.0605 13.407C5.3869 13.5417 4.69565 13.563 4.01508 13.47C3.86556 13.441 3.80872 13.516 3.86554 13.6591C4.21571 14.5789 4.79448 15.3936 5.54677 16.0257C6.29906 16.6579 7.1999 17.0864 8.16371 17.2706C8.36307 17.3046 8.55252 17.3046 8.74789 17.3517C8.73792 17.3687 8.72491 17.3687 8.71394 17.3857C8.2305 18.125 6.55794 18.6742 5.77845 18.9473C4.35119 19.4575 2.83093 19.6524 1.32172 19.5186C1.08249 19.4836 1.03172 19.4866 0.965934 19.5186C0.900146 19.5506 0.95793 19.6186 1.03468 19.6796C1.33372 19.8797 1.64871 20.0598 1.9637 20.2319C2.90987 20.74 3.90866 21.1425 4.94215 21.4324C10.2979 22.917 16.3285 21.8256 20.3496 17.8169C23.5074 14.6675 24.6148 10.3266 24.6148 5.97979C24.6148 5.80971 24.8142 5.71567 24.9338 5.62563C25.8028 5.00661 26.5824 4.26999 27.2503 3.4367C27.3879 3.25162 27.6092 3.08555 27.6092 3.01752V2.98951C27.5992 2.92048 27.3789 2.94049 27.2722 2.98951Z" fill="#333333"/>
</svg>
