<svg width="46" height="32" viewBox="0 0 46 32" fill="none" xmlns="http://www.w3.org/2000/svg">
<path d="M14 16C15.5575 16 17.0801 15.5381 18.3751 14.6728C19.6702 13.8075 20.6795 12.5776 21.2756 11.1386C21.8716 9.69967 22.0275 8.11627 21.7237 6.58867C21.4198 5.06107 20.6698 3.65788 19.5685 2.55654C18.4671 1.4552 17.0639 0.705178 15.5363 0.401319C14.0087 0.0974609 12.4253 0.253412 10.9864 0.849452C9.5474 1.44549 8.31749 2.45485 7.45218 3.74989C6.58686 5.04493 6.125 6.56748 6.125 8.125C6.12447 9.15931 6.32781 10.1836 6.72338 11.1393C7.11895 12.0949 7.699 12.9633 8.43036 13.6946C9.16173 14.426 10.0301 15.0061 10.9857 15.4016C11.9414 15.7972 12.9657 16.0005 14 16ZM19.4 18.25H18.816C17.3182 18.99 15.6701 19.375 13.9995 19.375C12.3289 19.375 10.6808 18.99 9.183 18.25H8.6C6.45175 18.25 4.39148 19.1034 2.87244 20.6224C1.35339 22.1415 0.5 24.2017 0.5 26.35L0.5 28.375C0.500265 29.27 0.85593 30.1283 1.48881 30.7612C2.12169 31.3941 2.97998 31.7497 3.875 31.75H24.125C25.02 31.7497 25.8783 31.3941 26.5112 30.7612C27.1441 30.1283 27.4997 29.27 27.5 28.375V26.35C27.5 25.2863 27.2905 24.233 26.8834 23.2503C26.4764 22.2675 25.8797 21.3746 25.1276 20.6224C24.3754 19.8703 23.4825 19.2736 22.4997 18.8666C21.517 18.4595 20.4637 18.25 19.4 18.25ZM34.25 16C35.585 16 36.8901 15.6041 38.0001 14.8624C39.1101 14.1207 39.9753 13.0665 40.4862 11.8331C40.9971 10.5997 41.1307 9.24252 40.8703 7.93314C40.6099 6.62377 39.967 5.42104 39.023 4.47703C38.079 3.53303 36.8762 2.89015 35.5669 2.6297C34.2575 2.36925 32.9003 2.50293 31.6669 3.01382C30.4335 3.52471 29.3793 4.38987 28.6376 5.4999C27.8959 6.60994 27.5 7.91498 27.5 9.25C27.5005 11.0401 28.2119 12.7566 29.4776 14.0224C30.7434 15.2881 32.46 15.9995 34.25 16ZM37.625 18.25H37.358C35.3539 19.0001 33.1461 19.0001 31.142 18.25H30.875C29.497 18.2592 28.1459 18.6328 26.959 19.333C28.745 21.2338 29.7426 23.7418 29.75 26.35V29.05C29.75 29.205 29.715 29.35 29.708 29.5H42.125C43.02 29.4997 43.8783 29.1441 44.5112 28.5112C45.1441 27.8783 45.4997 27.02 45.5 26.125C45.5005 25.0907 45.2972 24.0664 44.9016 23.1108C44.5061 22.1551 43.926 21.2867 43.1946 20.5554C42.4633 19.824 41.5949 19.2439 40.6393 18.8484C39.6836 18.4528 38.6593 18.2495 37.625 18.25Z" fill="url(#paint0_linear_6_94)"/>
<defs>
<linearGradient id="paint0_linear_6_94" x1="23" y1="0.25" x2="23" y2="31.75" gradientUnits="userSpaceOnUse">
<stop stop-color="#FBD132"/>
<stop offset="1" stop-color="#FF8503"/>
</linearGradient>
</defs>
</svg>
