<svg width="31" height="22" viewBox="0 0 31 22" fill="none" xmlns="http://www.w3.org/2000/svg">
<path d="M30.155 6.98295C30.155 5.32216 29.4953 3.7294 28.3209 2.55504C27.1466 1.38069 25.5539 0.720947 23.8931 0.720947H7.00903C5.34825 0.720947 3.75553 1.38069 2.58118 2.55504C1.40682 3.7294 0.74707 5.32216 0.74707 6.98295V15.1539C0.74707 16.8147 1.40682 18.4075 2.58118 19.5818C3.75553 20.7562 5.34825 21.4159 7.00903 21.4159H23.8931C25.5539 21.4159 27.1466 20.7562 28.3209 19.5818C29.4953 18.4075 30.155 16.8147 30.155 15.1539V6.98295ZM19.9851 10.8209L13.385 14.3729C13.3186 14.4081 13.2444 14.426 13.1693 14.425C13.0942 14.424 13.0205 14.4041 12.9551 14.3672C12.8896 14.3302 12.8346 14.2774 12.7949 14.2136C12.7552 14.1498 12.7322 14.077 12.728 14.0019V6.70895C12.7324 6.63309 12.7559 6.55958 12.7964 6.49529C12.8369 6.431 12.893 6.37805 12.9596 6.34138C13.0261 6.30471 13.1009 6.28552 13.1769 6.28562C13.2529 6.28572 13.3276 6.3051 13.394 6.34195L19.9761 10.0809C20.0423 10.117 20.0978 10.17 20.1367 10.2346C20.1756 10.2991 20.1966 10.3729 20.1975 10.4483C20.1984 10.5237 20.1792 10.598 20.1418 10.6635C20.1045 10.729 20.0505 10.7833 19.9851 10.8209Z" fill="white"/>
</svg>
