<svg id="youtube_icon" xmlns="http://www.w3.org/2000/svg" width="29.408" height="20.695" viewBox="0 0 29.408 20.695">
  <path id="Trazado_445" data-name="Trazado 445" d="M1503.408,32.262A6.262,6.262,0,0,0,1497.146,26h-16.884A6.262,6.262,0,0,0,1474,32.262v8.171a6.262,6.262,0,0,0,6.262,6.262h16.884a6.262,6.262,0,0,0,6.262-6.262ZM1493.238,36.1l-6.6,3.552a.448.448,0,0,1-.657-.371V31.988a.449.449,0,0,1,.666-.367l6.582,3.739A.424.424,0,0,1,1493.238,36.1Z" transform="translate(-1474 -26)" fill="#fbd132"/>
</svg>
