<svg width="28" height="20" viewBox="0 0 28 20" fill="none" xmlns="http://www.w3.org/2000/svg">
<path d="M27.4216 6.10068C27.4216 5.33939 27.2722 4.58556 26.9819 3.88223C26.6916 3.17891 26.2661 2.53986 25.7297 2.0016C25.1933 1.46333 24.5564 1.03639 23.8556 0.745144C23.1547 0.453902 22.4037 0.304068 21.6452 0.304199H6.07223C4.5405 0.304199 3.07155 0.914898 1.98845 2.00195C0.905352 3.089 0.296875 4.56336 0.296875 6.10068V13.6649C0.296875 15.2022 0.905352 16.6766 1.98845 17.7637C3.07155 18.8507 4.5405 19.4614 6.07223 19.4614H21.6452C23.1769 19.4614 24.6458 18.8507 25.7289 17.7637C26.812 16.6766 27.4206 15.2022 27.4206 13.6649L27.4216 6.10068ZM18.0408 9.6542L11.9543 12.9426C11.893 12.9751 11.8246 12.9916 11.7552 12.9905C11.6859 12.9895 11.618 12.971 11.5576 12.9367C11.4973 12.9025 11.4465 12.8535 11.4099 12.7944C11.3733 12.7353 11.3522 12.6679 11.3483 12.5985V5.84757C11.3522 5.7773 11.3737 5.70916 11.411 5.64955C11.4483 5.58995 11.5 5.54083 11.5614 5.50683C11.6228 5.47282 11.6918 5.45503 11.7619 5.45514C11.832 5.45524 11.901 5.47323 11.9623 5.50743L18.0337 8.96891C18.0949 9.00236 18.146 9.0516 18.1818 9.11153C18.2176 9.17146 18.2368 9.23991 18.2374 9.30979C18.238 9.37967 18.2201 9.44845 18.1853 9.509C18.1506 9.56955 18.1013 9.61968 18.0408 9.6542Z" fill="#333333"/>
</svg>
