<svg id="menu-disco" xmlns="http://www.w3.org/2000/svg" width="21.869" height="24.827" viewBox="0 0 21.869 24.827">
  <g id="_2943547788704">
    <path id="Trazado_119" data-name="Trazado 119" d="M19.96,22.809V3.654A2.4,2.4,0,0,1,20,3.205a1.968,1.968,0,0,1,.132-.428,2.094,2.094,0,0,1,.212-.4,2.633,2.633,0,0,1,.284-.348,2.161,2.161,0,0,1,.348-.284,2.35,2.35,0,0,1,.4-.212,2.651,2.651,0,0,1,.428-.132,2.4,2.4,0,0,1,.448-.044h8.755a2.4,2.4,0,0,1,.448.044,1.968,1.968,0,0,1,.428.132,2.094,2.094,0,0,1,.4.212,2.633,2.633,0,0,1,.348.284,2.16,2.16,0,0,1,.284.348,2.349,2.349,0,0,1,.212.4,2.65,2.65,0,0,1,.132.428,2.4,2.4,0,0,1,.044.448V22.809a2.4,2.4,0,0,1-.044.448,1.968,1.968,0,0,1-.132.428,2.094,2.094,0,0,1-.212.4,2.633,2.633,0,0,1-.284.348,2.16,2.16,0,0,1-.348.284,2.349,2.349,0,0,1-.4.212,2.651,2.651,0,0,1-.428.132,2.4,2.4,0,0,1-.448.044H22.254a2.4,2.4,0,0,1-.448-.044,1.968,1.968,0,0,1-.428-.132,2.094,2.094,0,0,1-.4-.212,2.633,2.633,0,0,1-.348-.284,2.16,2.16,0,0,1-.284-.348,2.349,2.349,0,0,1-.212-.4A2.651,2.651,0,0,1,20,23.257,2.4,2.4,0,0,1,19.96,22.809Z" transform="translate(-11.97 -0.816)" fill="#fff"/>
    <path id="Trazado_120" data-name="Trazado 120" d="M18.578,22.678V2.15a2.136,2.136,0,0,1,.04-.42,2.293,2.293,0,0,1,.124-.4,2.078,2.078,0,0,1,.2-.372,2.369,2.369,0,0,1,.264-.328,1.975,1.975,0,0,1,.328-.264,2.367,2.367,0,0,1,.372-.2,2.293,2.293,0,0,1,.4-.124,2.136,2.136,0,0,1,.42-.04H30.855a2.135,2.135,0,0,1,.42.04,2.293,2.293,0,0,1,.4.124,2.078,2.078,0,0,1,.372.2,2.37,2.37,0,0,1,.328.264,2.1,2.1,0,0,1,.464.7l.012.032a2.194,2.194,0,0,1,.112.372,2.135,2.135,0,0,1,.04.42V22.678a2.135,2.135,0,0,1-.04.42,2.293,2.293,0,0,1-.124.4,2.078,2.078,0,0,1-.2.372,2.37,2.37,0,0,1-.264.328,1.975,1.975,0,0,1-.328.264,2.367,2.367,0,0,1-.372.2,2.138,2.138,0,0,1-.4.124,2.107,2.107,0,0,1-.42.04H20.724a2.135,2.135,0,0,1-.42-.04l-.024,0a2.2,2.2,0,0,1-.38-.12l-.032-.016a2.145,2.145,0,0,1-.34-.184A2.37,2.37,0,0,1,19.2,24.2a1.975,1.975,0,0,1-.264-.328,2.367,2.367,0,0,1-.2-.372,2.293,2.293,0,0,1-.124-.4,2.136,2.136,0,0,1-.04-.42Zm1.1-20.528V22.678a1.1,1.1,0,0,0,.02.2,1.31,1.31,0,0,0,.06.2,1.284,1.284,0,0,0,.1.18,1.464,1.464,0,0,0,.132.16.931.931,0,0,0,.16.132,1.026,1.026,0,0,0,.16.088l.024.008a1.037,1.037,0,0,0,.18.056l.016,0a1.139,1.139,0,0,0,.2.02H30.855a1.1,1.1,0,0,0,.2-.02h0a.854.854,0,0,0,.2-.06h0a1.286,1.286,0,0,0,.18-.1,1.464,1.464,0,0,0,.16-.132.931.931,0,0,0,.132-.16,1.285,1.285,0,0,0,.1-.18,1.31,1.31,0,0,0,.06-.2,1.139,1.139,0,0,0,.02-.2V2.15a1.1,1.1,0,0,0-.02-.2.755.755,0,0,0-.052-.176l-.008-.02a1.018,1.018,0,0,0-.228-.34.931.931,0,0,0-.16-.132,1.285,1.285,0,0,0-.18-.1,1.309,1.309,0,0,0-.2-.06,1.139,1.139,0,0,0-.2-.02H20.732a1.1,1.1,0,0,0-.2.02,1.31,1.31,0,0,0-.2.06,1.284,1.284,0,0,0-.18.1,1.463,1.463,0,0,0-.16.132.931.931,0,0,0-.132.16,1.285,1.285,0,0,0-.1.18,1.31,1.31,0,0,0-.06.2,1.139,1.139,0,0,0-.02.2Z" transform="translate(-11.136 0)" fill="#333"/>
    <path id="Trazado_121" data-name="Trazado 121" d="M14.48,28.444H0v-2.1c.783,0,1.421-1.445,1.421-2.208S1.078,22.194.3,22.194v-1.83H14.48l-.217,2.053c-.783,0-1.2.956-1.2,1.719s.637,1.985,1.421,1.985v2.323Z" transform="translate(0.633 -11.775)" fill="#ebc74e"/>
    <path id="Trazado_122" data-name="Trazado 122" d="M14.767,27.915V26.634a2.715,2.715,0,0,1,0-4.916V20.525H1.145v1.193a2.719,2.719,0,0,1,1.561,2.458,2.719,2.719,0,0,1-1.561,2.458v1.281Zm1.145,1.145H0V25.745a1.568,1.568,0,0,0,1.561-1.569A1.568,1.568,0,0,0,0,22.606V19.38H15.912v3.226a1.569,1.569,0,0,0,0,3.138Z" transform="translate(0 -11.622)" fill="#333"/>
    <path id="Trazado_123" data-name="Trazado 123" d="M23.1,20.858a.548.548,0,1,1,1.1,0v1.077a.548.548,0,1,1-1.1,0Z" transform="translate(-13.853 -12.18)" fill="#333"/>
    <path id="Trazado_124" data-name="Trazado 124" d="M23.1,37.888a.548.548,0,1,1,1.1,0v1.225a.548.548,0,1,1-1.1,0Z" transform="translate(-13.853 -22.392)" fill="#333"/>
    <path id="Trazado_125" data-name="Trazado 125" d="M11.188,28.057a.548.548,0,1,1,0-1.1h2.078a.548.548,0,1,1,0,1.1Z" transform="translate(-6.381 -16.168)" fill="#333"/>
    <path id="Trazado_126" data-name="Trazado 126" d="M11.188,33.437a.548.548,0,1,1,0-1.1h2.078a.548.548,0,1,1,0,1.1Z" transform="translate(-6.381 -19.394)" fill="#333"/>
    <path id="Trazado_127" data-name="Trazado 127" d="M19.918,50.117a.548.548,0,0,1,0-1.1h12.61a.548.548,0,0,1,0,1.1Z" transform="translate(-11.616 -29.397)" fill="#333"/>
    <path id="Trazado_128" data-name="Trazado 128" d="M19.918,8.657a.548.548,0,0,1,0-1.1h12.83a.548.548,0,1,1,0,1.1H19.918Z" transform="translate(-11.616 -4.534)" fill="#333"/>
    <path id="Trazado_129" data-name="Trazado 129" d="M32.848,54.187a.548.548,0,0,1,0-1.1H35.01a.548.548,0,0,1,0,1.1Z" transform="translate(-19.37 -31.838)" fill="#333"/>
    <path id="Trazado_130" data-name="Trazado 130" d="M23.1,28.328a.548.548,0,1,1,1.1,0V29.89a.548.548,0,0,1-1.1,0Z" transform="translate(-13.853 -16.659)" fill="#333"/>
  </g>
</svg>
