<svg id="reserva-disco" xmlns="http://www.w3.org/2000/svg" width="19.559" height="24.827" viewBox="0 0 19.559 24.827">
  <g id="Capa_x0020_1">
    <g id="_2943388717984">
      <path id="Trazado_92" data-name="Trazado 92" d="M10.513,1.65H22.974a1.494,1.494,0,0,1,1.493,1.493V20.159a1.494,1.494,0,0,1-1.493,1.493H10.513A1.494,1.494,0,0,1,9.02,20.159V3.143A1.494,1.494,0,0,1,10.513,1.65Z" transform="translate(-5.545 -1.017)" fill="#fff"/>
      <path id="Trazado_93" data-name="Trazado 93" d="M21.961,20.012a.857.857,0,0,0,.856-.856V2.139a.857.857,0,0,0-.856-.856H9.5a.857.857,0,0,0-.856.856V19.156a.857.857,0,0,0,.856.856Zm0,1.273H9.5A2.128,2.128,0,0,1,7.37,19.156V2.139A2.128,2.128,0,0,1,9.5.01H21.961A2.128,2.128,0,0,1,24.09,2.139V19.156A2.128,2.128,0,0,1,21.961,21.285Z" transform="translate(-4.531 -0.01)" fill="#333"/>
      <path id="Trazado_94" data-name="Trazado 94" d="M3.143,10.86H15.6A1.494,1.494,0,0,1,17.1,12.353V29.369A1.494,1.494,0,0,1,15.6,30.862H3.143A1.494,1.494,0,0,1,1.65,29.369V12.353A1.494,1.494,0,0,1,3.143,10.86Z" transform="translate(-1.017 -6.675)" fill="#fff"/>
      <path id="Trazado_95" data-name="Trazado 95" d="M14.6,29.222a.857.857,0,0,0,.856-.856V11.349a.857.857,0,0,0-.856-.856H2.139a.857.857,0,0,0-.856.856V28.366a.857.857,0,0,0,.856.856Zm0,1.273H2.139A2.128,2.128,0,0,1,.01,28.366V11.349A2.128,2.128,0,0,1,2.139,9.22H14.6a2.128,2.128,0,0,1,2.129,2.129V28.366A2.128,2.128,0,0,1,14.6,30.495Z" transform="translate(-0.01 -5.668)" fill="#333"/>
      <path id="Trazado_96" data-name="Trazado 96" d="M7.36,33.72H18.279v1.018H7.36Z" transform="translate(-4.525 -20.718)" fill="#333"/>
      <path id="Trazado_97" data-name="Trazado 97" d="M7.36,39.25H18.279v1.018H7.36Z" transform="translate(-4.525 -24.115)" fill="#333"/>
      <path id="Trazado_98" data-name="Trazado 98" d="M7.36,44.77H18.279v1.018H7.36Z" transform="translate(-4.525 -27.506)" fill="#333"/>
      <path id="Trazado_99" data-name="Trazado 99" d="M7.36,50.29h6.252v1.018H7.36Z" transform="translate(-4.525 -30.897)" fill="#333"/>
      <path id="Trazado_100" data-name="Trazado 100" d="M7.53,21.381V18.6a.423.423,0,0,1,.123-.3.41.41,0,0,1,.3-.123h9.878a.423.423,0,0,1,.3.123.41.41,0,0,1,.123.3v2.777a.423.423,0,0,1-.123.3.41.41,0,0,1-.3.123H7.954a.423.423,0,0,1-.3-.123.41.41,0,0,1-.123-.3Z" transform="translate(-4.63 -11.172)" fill="#ebc74e"/>
      <path id="Trazado_101" data-name="Trazado 101" d="M7.53,21.7V18.284a.092.092,0,0,1,.1-.1H18.148a.092.092,0,0,1,.1.1V21.7a.092.092,0,0,1-.1.1H7.634a.092.092,0,0,1-.1-.1Z" transform="translate(-4.63 -11.172)" fill="#ebc74e"/>
      <path id="Trazado_102" data-name="Trazado 102" d="M6.21,20.887V17.473a.543.543,0,0,1,.617-.613H17.341a.59.59,0,0,1,.44.177.6.6,0,0,1,.177.44v3.413a.546.546,0,0,1-.617.617H6.827a.546.546,0,0,1-.617-.617Zm1.018-3.008v2.607h9.708V17.878Z" transform="translate(-3.819 -10.361)" fill="#333"/>
    </g>
  </g>
</svg>
