<svg id="covers-disco" xmlns="http://www.w3.org/2000/svg" width="20.669" height="12.577" viewBox="0 0 20.669 12.577">
  <path id="Trazado_112" data-name="Trazado 112" d="M25.76,10.761H18.185l.53-2.727c1.118,0,1.742-1.754,1.742-2.878s-1.155-2.8-2.273-2.8L18.715,0H37.578V10.761Z" transform="translate(-17.399 0.72)" fill="#fff"/>
  <path id="Trazado_113" data-name="Trazado 113" d="M19.181,11.089V1.48H1.48V3.034A3.533,3.533,0,0,1,3.505,6.227,3.525,3.525,0,0,1,1.48,9.42v1.662h17.7Zm1.488,1.488H0v-4.3A2.033,2.033,0,0,0,2.025,6.234,2.033,2.033,0,0,0,0,4.195V0H20.669Z" fill="#333"/>
  <path id="Trazado_114" data-name="Trazado 114" d="M16.55,1.391a.711.711,0,1,1,1.422,0V2.785a.711.711,0,1,1-1.422,0Z" transform="translate(-4.539 -0.187)" fill="#333"/>
  <path id="Trazado_115" data-name="Trazado 115" d="M16.55,13.591a.711.711,0,1,1,1.422,0v1.589a.711.711,0,1,1-1.422,0V13.591Z" transform="translate(-4.539 -3.533)" fill="#333"/>
  <path id="Trazado_116" data-name="Trazado 116" d="M8.341,6.872a.711.711,0,1,1,0-1.422h2.7a.711.711,0,1,1,0,1.422Z" transform="translate(-2.093 -1.495)" fill="#333"/>
  <path id="Trazado_117" data-name="Trazado 117" d="M8.341,10.722a.711.711,0,1,1,0-1.422h2.7a.711.711,0,1,1,0,1.422Z" transform="translate(-2.093 -2.551)" fill="#333"/>
  <path id="Trazado_118" data-name="Trazado 118" d="M16.55,6.741a.711.711,0,1,1,1.422,0V8.766a.711.711,0,0,1-1.422,0Z" transform="translate(-4.539 -1.654)" fill="#333"/>
</svg>
