<svg xmlns="http://www.w3.org/2000/svg" width="225.919" height="57.36" viewBox="0 0 225.919 57.36"><g transform="translate(-609.065 -170)"><path d="M2.48-20.925v3.658H13.361a2.628,2.628,0,0,1,2.883,2.79,2.7,2.7,0,0,1-2.914,2.883H5.8c-2.294,0-3.286.961-3.286,3.317V0H6.169V-7.564A.462.462,0,0,1,6.7-8.091h6.51c4.9,0,6.727-3.41,6.727-6.572,0-3.348-2.015-6.262-6.727-6.262Zm31.434,4.092a1.057,1.057,0,0,1,1.054-.713,1,1,0,0,1,1.023.713L42.346,0h4.061L39.339-18.6c-.744-1.953-2.17-2.7-4.34-2.7-2.2,0-3.627.744-4.4,2.7L23.25,0h4.03ZM53.32-20.925v3.658H64.79A2.63,2.63,0,0,1,67.7-14.508a2.71,2.71,0,0,1-2.914,2.914H56.637c-2.294,0-3.286.961-3.286,3.317V0h3.658V-7.564a.462.462,0,0,1,.527-.527h5.456L67.766,0h4.061L66.96-8.37a6.164,6.164,0,0,0,4.433-6.293c0-3.348-2.015-6.262-6.727-6.262Zm24.025,0v3.658h6.107V0h3.689V-17.267h6.107v-3.658Zm23.219,0V0h3.658V-20.925Zm21.3,4.092a1.057,1.057,0,0,1,1.054-.713,1,1,0,0,1,1.023.713L130.293,0h4.061l-7.068-18.6c-.744-1.953-2.17-2.7-4.34-2.7-2.2,0-3.627.744-4.4,2.7L111.2,0h4.03Zm27-4.092c-5.549,0-7.719,3.038-7.719,7.223V0H144.8V-8.277h12.617v-3.472H144.8v-1.984c0-1.953.992-3.534,4.309-3.534h8.432v-3.658Z" transform="translate(677.442 209.297)" fill="#ebc74e"/><path d="M28.68,0h0a28.68,28.68,0,0,1,0,57.36h0A28.68,28.68,0,0,1,28.68,0h0ZM18.825,29.719H23.8a3.822,3.822,0,0,1,3.811,3.811v5.446a1.859,1.859,0,0,1-1.854,1.854H19.546a3,3,0,0,1-2.987-2.987V31.984a2.272,2.272,0,0,1,2.266-2.266ZM37.5,14.229H32.761a3.017,3.017,0,0,1-3.008-3.008V7.91A2.12,2.12,0,0,1,31.867,5.8h2.391a4.99,4.99,0,0,1,4.975,4.975V12.5A1.734,1.734,0,0,1,37.5,14.229Zm6.541,1.116a3.294,3.294,0,0,1-2.262-3.118c0-1.063-.064-2.444,1.6-1.771,1.734.7,4.066,3.124,3.595,4.2S44.983,15.653,44.045,15.345Zm5.106,12.3H46.14a2.943,2.943,0,0,1-2.934-2.934V20.135a2.149,2.149,0,0,1,2.143-2.143h1a5.381,5.381,0,0,1,5.365,5.365v1.721a2.57,2.57,0,0,1-2.562,2.562Zm-10.616,0H33.564a3.822,3.822,0,0,1-3.811-3.811V18.385a1.859,1.859,0,0,1,1.854-1.854h6.208A3,3,0,0,1,40.8,19.518v5.858a2.272,2.272,0,0,1-2.266,2.266ZM37.5,43.131H32.761a3.017,3.017,0,0,0-3.008,3.008V49.45a2.12,2.12,0,0,0,2.114,2.114h2.391a4.99,4.99,0,0,0,4.975-4.975V44.86A1.734,1.734,0,0,0,37.5,43.131Zm6.541-1.116a3.294,3.294,0,0,0-2.262,3.118c0,1.063-.064,2.444,1.6,1.771,1.734-.7,4.066-3.124,3.595-4.2S44.983,41.707,44.045,42.015Zm5.106-12.3H46.14a2.943,2.943,0,0,0-2.934,2.934v4.572a2.149,2.149,0,0,0,2.143,2.143h1A5.381,5.381,0,0,0,51.714,34V32.281a2.57,2.57,0,0,0-2.562-2.562Zm-10.616,0H33.564a3.822,3.822,0,0,0-3.811,3.811v5.446a1.859,1.859,0,0,0,1.854,1.854h6.208A3,3,0,0,0,40.8,37.842V31.984a2.272,2.272,0,0,0-2.266-2.266ZM19.856,14.229H24.6a3.017,3.017,0,0,0,3.008-3.008V7.91A2.12,2.12,0,0,0,25.493,5.8H23.1a4.99,4.99,0,0,0-4.975,4.975V12.5a1.734,1.734,0,0,0,1.729,1.729Zm-6.541,1.116a3.294,3.294,0,0,0,2.262-3.118c0-1.063.064-2.444-1.6-1.771-1.734.7-4.066,3.124-3.595,4.2S12.377,15.653,13.315,15.345Zm-5.106,12.3H11.22a2.943,2.943,0,0,0,2.934-2.934V20.135a2.149,2.149,0,0,0-2.143-2.143h-1a5.381,5.381,0,0,0-5.365,5.365v1.721a2.57,2.57,0,0,0,2.562,2.562Zm10.616,0H23.8a3.822,3.822,0,0,0,3.811-3.811V18.385a1.859,1.859,0,0,0-1.854-1.854H19.546a3,3,0,0,0-2.987,2.987v5.858a2.272,2.272,0,0,0,2.266,2.266Zm1.031,15.49H24.6a3.017,3.017,0,0,1,3.008,3.008V49.45a2.12,2.12,0,0,1-2.114,2.114H23.1a4.99,4.99,0,0,1-4.975-4.975V44.86a1.734,1.734,0,0,1,1.729-1.729Zm-6.541-1.116a3.294,3.294,0,0,1,2.262,3.118c0,1.063.064,2.444-1.6,1.771-1.734-.7-4.066-3.124-3.595-4.2S12.377,41.707,13.315,42.015Zm-5.106-12.3H11.22a2.943,2.943,0,0,1,2.934,2.934v4.572a2.149,2.149,0,0,1-2.143,2.143h-1A5.381,5.381,0,0,1,5.647,34V32.281a2.57,2.57,0,0,1,2.562-2.562ZM28.68,2.907A25.773,25.773,0,1,0,46.9,10.455,25.694,25.694,0,0,0,28.68,2.907Z" transform="translate(609.065 170)" fill="#ebc74e"/></g></svg>