<?xml version="1.0" encoding="UTF-8"?>
<!DOCTYPE svg PUBLIC "-//W3C//DTD SVG 1.1//EN" "http://www.w3.org/Graphics/SVG/1.1/DTD/svg11.dtd">
<!-- Creator: CorelDRAW 2021 (64-Bit) -->
<svg xmlns="http://www.w3.org/2000/svg" xml:space="preserve" width="63.4392mm" height="11.6784mm" version="1.1" style="shape-rendering:geometricPrecision; text-rendering:geometricPrecision; image-rendering:optimizeQuality; fill-rule:evenodd; clip-rule:evenodd"
viewBox="0 0 327.24 60.24"
 xmlns:xlink="http://www.w3.org/1999/xlink"
 xmlns:xodm="http://www.corel.com/coreldraw/odm/2003">
 <defs>
  <style type="text/css">
   <![CDATA[
    .fil0 {fill:#333333;fill-rule:nonzero}
   ]]>
  </style>
 </defs>
 <g id="Capa_x0020_1">
  <metadata id="CorelCorpID_0Corel-Layer"/>
  <g id="_2943755830416">
   <path class="fil0" d="M30.12 0l0 0c8.32,0 15.85,3.37 21.3,8.82 5.45,5.45 8.82,12.98 8.82,21.3 0,8.32 -3.37,15.85 -8.82,21.3 -5.45,5.45 -12.98,8.82 -21.3,8.82l-0 0 0 0c-8.32,0 -15.85,-3.37 -21.3,-8.82 -5.45,-5.45 -8.82,-12.98 -8.82,-21.3 0,-8.32 3.37,-15.85 8.82,-21.3 5.45,-5.45 12.98,-8.82 21.3,-8.82l0 0zm0 3.05c-7.47,0 -14.24,3.03 -19.14,7.93 -4.9,4.9 -7.93,11.67 -7.93,19.14 0,7.48 3.03,14.24 7.93,19.14 4.9,4.9 11.67,7.93 19.14,7.93 7.48,0 14.24,-3.03 19.14,-7.93 4.9,-4.9 7.93,-11.67 7.93,-19.14 0,-7.47 -3.03,-14.24 -7.93,-19.14 -4.9,-4.9 -11.67,-7.93 -19.14,-7.93zm-10.35 28.16l5.22 0c2.2,0 4,1.8 4,4l0 5.72c0,1.07 -0.88,1.95 -1.95,1.95l-6.52 0c-1.73,0 -3.14,-1.41 -3.14,-3.14l0 -6.15c0,-1.31 1.07,-2.38 2.38,-2.38zm19.62 -16.27l-4.98 0c-1.74,0 -3.16,-1.42 -3.16,-3.16l0 -3.48c0,-1.22 1,-2.22 2.22,-2.22l2.51 0c2.87,0 5.23,2.35 5.23,5.22l0 1.82c0,1 -0.82,1.82 -1.82,1.82zm6.87 1.17c-1.38,-0.45 -2.38,-1.75 -2.38,-3.27 0,-1.12 -0.07,-2.57 1.68,-1.86 1.82,0.74 4.27,3.28 3.77,4.41 -0.49,1.11 -2.1,1.05 -3.08,0.73zm5.36 12.91l-3.16 0c-1.7,0 -3.08,-1.39 -3.08,-3.08l0 -4.8c0,-1.24 1.01,-2.25 2.25,-2.25l1.05 0c3.1,0 5.63,2.54 5.63,5.63l0 1.81c0,1.48 -1.21,2.69 -2.69,2.69zm-11.15 0l-5.22 0c-2.2,0 -4,-1.8 -4,-4l0 -5.72c0,-1.07 0.88,-1.95 1.95,-1.95l6.52 0c1.73,0 3.14,1.41 3.14,3.14l0 6.15c0,1.31 -1.07,2.38 -2.38,2.38zm-1.08 16.27l-4.98 0c-1.74,0 -3.16,1.42 -3.16,3.16l0 3.48c0,1.22 1,2.22 2.22,2.22l2.51 0c2.87,0 5.23,-2.35 5.23,-5.22l0 -1.81c0,-1 -0.82,-1.82 -1.82,-1.82zm6.87 -1.17c-1.38,0.45 -2.38,1.75 -2.38,3.27 0,1.12 -0.07,2.57 1.68,1.86 1.82,-0.74 4.27,-3.28 3.77,-4.41 -0.49,-1.11 -2.1,-1.05 -3.08,-0.73zm5.36 -12.91l-3.16 0c-1.7,0 -3.08,1.39 -3.08,3.08l0 4.8c0,1.24 1.01,2.25 2.25,2.25l1.05 0c3.1,0 5.63,-2.54 5.63,-5.64l0 -1.81c0,-1.48 -1.21,-2.69 -2.69,-2.69zm-11.15 0l-5.22 0c-2.2,0 -4,1.8 -4,4l0 5.72c0,1.07 0.88,1.95 1.95,1.95l6.52 0c1.73,0 3.14,-1.41 3.14,-3.14l0 -6.15c0,-1.31 -1.07,-2.38 -2.38,-2.38zm-19.62 -16.27l4.98 0c1.74,0 3.16,-1.42 3.16,-3.16l0 -3.48c0,-1.22 -1,-2.22 -2.22,-2.22l-2.51 0c-2.87,0 -5.22,2.35 -5.22,5.22l0 1.82c0,1 0.82,1.82 1.82,1.82zm-6.87 1.17c1.38,-0.45 2.38,-1.75 2.38,-3.27 0,-1.12 0.07,-2.57 -1.68,-1.86 -1.82,0.74 -4.27,3.28 -3.77,4.41 0.49,1.11 2.1,1.05 3.08,0.73zm-5.36 12.91l3.16 0c1.7,0 3.08,-1.39 3.08,-3.08l0 -4.8c0,-1.24 -1.01,-2.25 -2.25,-2.25l-1.05 0c-3.1,0 -5.63,2.54 -5.63,5.63l0 1.81c0,1.48 1.21,2.69 2.69,2.69zm11.15 0l5.22 0c2.2,0 4,-1.8 4,-4l0 -5.72c0,-1.07 -0.88,-1.95 -1.95,-1.95l-6.52 0c-1.73,0 -3.14,1.41 -3.14,3.14l0 6.15c0,1.31 1.07,2.38 2.38,2.38zm1.08 16.27l4.98 0c1.74,0 3.16,1.42 3.16,3.16l0 3.48c0,1.22 -1,2.22 -2.22,2.22l-2.51 0c-2.87,0 -5.22,-2.35 -5.22,-5.22l0 -1.81c0,-1 0.82,-1.82 1.82,-1.82zm-6.87 -1.17c1.38,0.45 2.38,1.75 2.38,3.27 0,1.12 0.07,2.57 -1.68,1.86 -1.82,-0.74 -4.27,-3.28 -3.77,-4.41 0.49,-1.11 2.1,-1.05 3.08,-0.73zm-5.36 -12.91l3.16 0c1.7,0 3.08,1.39 3.08,3.08l0 4.8c0,1.24 -1.01,2.25 -2.25,2.25l-1.05 0c-3.1,0 -5.63,-2.54 -5.63,-5.64l0 -1.81c0,-1.48 1.21,-2.69 2.69,-2.69z"/>
   <path class="fil0" d="M77.43 12.39l0 6.1 17.28 0c3.15,0 4.58,2.12 4.58,4.65 0,2.43 -1.33,4.81 -4.63,4.81l-11.96 0c-3.64,0 -5.22,1.6 -5.22,5.53l0 13.8 5.81 0 0 -12.62c0,-0.62 0.3,-0.88 0.84,-0.88l10.34 0c7.78,0 10.68,-5.69 10.68,-10.96 0,-5.58 -3.2,-10.44 -10.68,-10.44l-17.03 0zm53.26 7.45c0.32,-0.84 0.89,-1.19 1.67,-1.19 0.79,0 1.33,0.36 1.62,1.19l9.87 27.45 6.45 0 -11 -30.4c-1.18,-3.26 -3.45,-4.5 -6.89,-4.5 -3.49,0 -5.77,1.24 -6.99,4.5l-11.43 30.4 6.4 0 10.3 -27.45zm31.06 -7.45l0 6.1 18.21 0c3.2,0 4.63,2.12 4.63,4.6 0,2.48 -1.33,4.86 -4.63,4.86l-12.95 0c-3.64,0 -5.22,1.6 -5.22,5.53l0 13.8 5.81 0 0 -12.62c0,-0.62 0.3,-0.88 0.84,-0.88l8.66 0 7.58 13.49 6.45 0 -7.73 -13.96c5.07,-1.5 7.04,-6.15 7.04,-10.5 0,-5.58 -3.2,-10.44 -10.68,-10.44l-18.02 0zm37.9 0l0 6.1 9.7 0 0 28.8 5.86 0 0 -28.8 9.7 0 0 -6.1 -25.25 0zm37.12 0l0 34.9 5.81 0 0 -34.9 -5.81 0zm33.57 7.45c0.32,-0.84 0.89,-1.19 1.67,-1.19 0.79,0 1.33,0.36 1.62,1.19l9.87 27.45 6.45 0 -11 -30.4c-1.18,-3.26 -3.45,-4.5 -6.89,-4.5 -3.49,0 -5.77,1.24 -6.99,4.5l-11.43 30.4 6.4 0 10.3 -27.45zm43.12 -7.45c-8.81,0 -12.26,5.07 -12.26,12.05l0 22.85 5.81 0 0 -13.8 20.03 0 0 -5.79 -20.03 0 0 -3.31c0,-3.26 1.57,-5.89 6.84,-5.89l13.39 0 0 -6.1 -13.78 0z"/>
  </g>
 </g>
</svg>
