<?xml version="1.0" encoding="UTF-8"?>
<!DOCTYPE svg PUBLIC "-//W3C//DTD SVG 1.1//EN" "http://www.w3.org/Graphics/SVG/1.1/DTD/svg11.dtd">
<!-- Creator: CorelDRAW 2021 (64-Bit) -->
<svg xmlns="http://www.w3.org/2000/svg" xml:space="preserve" width="52.5597mm" height="38.7248mm" version="1.1" style="shape-rendering:geometricPrecision; text-rendering:geometricPrecision; image-rendering:optimizeQuality; fill-rule:evenodd; clip-rule:evenodd"
viewBox="0 0 131.24 96.7"
 xmlns:xlink="http://www.w3.org/1999/xlink"
 xmlns:xodm="http://www.corel.com/coreldraw/odm/2003">
 <defs>
  <style type="text/css">
   <![CDATA[
    .fil0 {fill:#FEFEFE}
   ]]>
  </style>
 </defs>
 <g id="Capa_x0020_1">
  <metadata id="CorelCorpID_0Corel-Layer"/>
  <path class="fil0" d="M92.93 33.28l-33.28 0 0 -33.28 33.28 0 0 33.28zm-54.61 -7.11l0 -26.17 14.22 0 0 40.39 40.39 0 0 14.22 -40.39 0 -14.22 0 0 -14.22 0 -14.22zm-32.52 42.65l-5.79 4.18 0 23.25 5.79 0 0 -11.26c1.05,-1.09 1.89,-1.77 2.9,-1.77 2.41,0 2.17,3.18 2.17,5.03l0 8 5.79 0 0 -10.82c0,-3.62 -1.17,-7.52 -6.07,-7.52 -2.25,0 -3.66,0.8 -4.79,2.57l0 -11.66zm22.6 9.09c-5.15,0 -9.29,4.18 -9.29,9.37 0,5.19 4.14,9.41 9.29,9.41 3.14,0 6.07,-1.61 7.8,-4.22l-4.55 -2.69c-0.72,1.09 -1.85,1.45 -2.98,1.45 -1.65,0 -2.78,-0.8 -3.14,-2.01l11.95 0c0,0 0.24,-1.33 0.2,-2.29 -0.2,-4.99 -4.26,-9.01 -9.29,-9.01zm-2.86 7.44c0.4,-1.25 1.49,-2.05 3.02,-2.05 1.37,0 2.37,0.68 2.86,2.05l-5.87 0zm14.64 10.9l5.75 0 0 -27.43 -5.75 4.18 0 23.25zm17.5 -18.34c-5.15,0 -9.29,4.18 -9.29,9.37 0,5.19 4.14,9.41 9.29,9.41 3.14,0 6.07,-1.61 7.8,-4.22l-4.55 -2.69c-0.72,1.09 -1.85,1.45 -2.98,1.45 -1.65,0 -2.78,-0.8 -3.14,-2.01l11.95 0c0,0 0.24,-1.33 0.2,-2.29 -0.2,-4.99 -4.26,-9.01 -9.29,-9.01zm-2.86 7.44c0.4,-1.25 1.49,-2.05 3.02,-2.05 1.37,0 2.37,0.68 2.86,2.05l-5.87 0zm24.98 -7.44c-1.65,0 -3.26,0.48 -4.59,1.33l0 -10.42 -5.79 4.18 0 23.25 5.79 0 0 -2.25c0.76,1.49 2.17,2.7 4.59,2.7 4.91,0 8.89,-4.22 8.89,-9.41 0,-5.19 -3.98,-9.37 -8.89,-9.37zm-1.09 13.43c-1.45,0 -2.73,-0.8 -3.42,-2.09l0 -3.94c0.68,-1.29 1.97,-2.09 3.42,-2.09 2.13,0 3.9,1.81 3.9,4.06 0,2.25 -1.77,4.06 -3.9,4.06zm22.77 -13.43c-1.65,0 -3.26,0.48 -4.59,1.33l0 -10.42 -5.79 4.18 0 23.25 5.79 0 0 -2.25c0.76,1.49 2.17,2.7 4.59,2.7 4.91,0 8.89,-4.22 8.89,-9.41 0,-5.19 -3.98,-9.37 -8.89,-9.37zm-1.09 13.43c-1.45,0 -2.73,-0.8 -3.42,-2.09l0 -3.94c0.68,-1.29 1.97,-2.09 3.42,-2.09 2.13,0 3.9,1.81 3.9,4.06 0,2.25 -1.77,4.06 -3.9,4.06zm25.06 -12.07c-1.33,-0.88 -2.94,-1.37 -4.59,-1.37 -4.91,0 -8.89,4.18 -8.89,9.37 0,5.19 3.98,9.41 8.89,9.41 1.65,0 3.26,-0.48 4.59,-1.37l0 0.93 5.79 0 0 -17.98 -5.79 0 0 1.01zm-0.04 9.97c-0.72,1.29 -2.01,2.14 -3.46,2.14 -2.13,0 -3.9,-1.86 -3.9,-4.12 0,-2.27 1.77,-4.08 3.9,-4.08 1.45,0 2.73,0.8 3.46,2.14l0 3.93z"/>
 </g>
</svg>
